<?xml version="1.0" standalone="no"?>
<!DOCTYPE svg PUBLIC "-//W3C//DTD SVG 1.1//EN" "http://www.w3.org/Graphics/SVG/1.1/DTD/svg11.dtd" >
<svg>
<metadata>
Created by FontForge 20090914 at Wed Aug 26 12:49:52 2020
 By www-data
Typeface &#194;&#169; 1992 Stephenson Blake (Holdings) Ltd. Data &#194;&#169; 1992 URW. Portions &#194;&#169; 1992 Microsoft Corp. All rights reserved.
</metadata>
<defs>
<font id="BaskOldFace" horiz-adv-x="1007" >
  <font-face 
    font-family="Baskerville Old Face"
    font-weight="400"
    font-stretch="normal"
    units-per-em="2048"
    panose-1="2 2 6 2 8 5 5 2 3 3"
    ascent="1638"
    descent="-410"
    x-height="850"
    cap-height="1365"
    bbox="-309 -539.001 2266 1805"
    underline-thickness="90"
    underline-position="-180"
    unicode-range="U+0020-U+F002"
  />
<missing-glyph horiz-adv-x="682" 
d="M68 0v1365h546v-1365h-546zM546 68v1229h-410v-1229h410z" />
    <glyph glyph-name=".notdef" horiz-adv-x="682" 
d="M68 0v1365h546v-1365h-546zM546 68v1229h-410v-1229h410z" />
    <glyph glyph-name="space" unicode=" " horiz-adv-x="512" 
 />
    <glyph glyph-name="exclam" unicode="!" horiz-adv-x="525" 
d="M269 350h-18.001l-94 747c-8 61.333 -12 108.666 -12 141.999c0 44 11 78.333 33 103s52.333 37 91 37c36.667 0 65.834 -12 87.501 -36s32.5 -57 32.5 -99c0 -29.333 -4 -71.666 -12 -126.999zM257.999 226c33.333 0 61.833 -11.833 85.5 -35.5s35.5 -52.5 35.5 -86.5
c0 -33.333 -11.833 -61.833 -35.5 -85.5s-52.167 -35.5 -85.5 -35.5s-61.833 11.833 -85.5 35.5s-35.5 52.167 -35.5 85.5c0 34 11.833 62.833 35.5 86.5s52.167 35.5 85.5 35.5z" />
    <glyph glyph-name="quotedbl" unicode="&#x22;" horiz-adv-x="499" 
d="M153 879l-22 -0.000976562l-49 311c-4.66699 28.667 -7 54.334 -7 77.001c0 32.667 6.16699 60.167 18.5 82.5s27.5 33.5 45.5 33.5c20.667 0 37.5 -10.667 50.5 -32s19.5 -49 19.5 -83c0 -20.667 -2.33301 -46.667 -7 -78zM367 878.999l-22 -0.000976562l-49 311
c-4.66699 28.667 -7 54.334 -7 77.001c0 32.667 6.33301 60.167 19 82.5s28 33.5 46 33.5c20 0 36.667 -10.667 50 -32s20 -49 20 -83c0 -20.667 -2.66699 -46.667 -8 -78z" />
    <glyph glyph-name="numbersign" unicode="#" 
d="M698 469l-66 -469h-65l66 469h-314l-66 -469h-64l66 469h-200l8 59h200l48 337h-200l8 59h200l62 441h64l-62 -441h314l62 441h65l-62 -441h189l-8 -59h-189l-48 -337h189l-8 -59h-189zM641 528l48 337h-314l-47 -337h313z" />
    <glyph glyph-name="dollar" unicode="$" 
d="M496 1374l0.00292969 152h45v-152c68.667 -4 130 -19 184 -45c44.667 -22 79.667 -51.167 105 -87.5s38 -76.166 38 -119.499c0 -34 -9.83301 -62.667 -29.5 -86s-43.834 -35 -72.501 -35c-22 0 -40.667 7.66699 -56 23s-23 34.333 -23 57c0 14.667 3 29 9 43l18 38
c6 14 9 30.667 9 50c0 28 -8 52.5 -24 73.5s-38.667 36.833 -68 47.5c-24.667 8.66699 -54.667 14.667 -90 18v-547l10 -6c119.333 -69.333 203.666 -133 252.999 -191c32.667 -38.667 58.167 -81.834 76.5 -129.501s27.5 -95.5 27.5 -143.5c0 -66.667 -16 -127 -48 -181
s-76.333 -95.667 -133 -125c-54 -27.333 -116 -45.333 -186 -54v-163h-45v160c-62.667 0 -126 13 -190 39c-66 26.667 -117.167 63.334 -153.5 110.001s-54.5 99 -54.5 157c0 44 11.667 81.167 35 111.5s51.666 45.5 84.999 45.5c22 0 40.167 -7.16699 54.5 -21.5
s21.5 -32.5 21.5 -54.5c0 -22.667 -12.333 -50.334 -37 -83.001c-13.333 -18.667 -22.5 -34 -27.5 -46s-7.5 -25.333 -7.5 -40c0 -36 11.833 -69.5 35.5 -100.5s55.5 -54.833 95.5 -71.5c38.667 -16 83.667 -24 135 -24h8v654l-57 33c-54 31.333 -95.167 57.333 -123.5 78
s-53.833 43.334 -76.5 68.001c-59.333 66 -89 141.333 -89 226c0 53.333 12.667 103.166 38 149.499s60.333 83.5 105 111.5c58 36 125.667 56.333 203 61zM496.003 1353c-45.333 -2.66699 -83 -10.999 -113 -24.999c-34.667 -16.667 -62.667 -43.667 -84 -81
s-32 -79 -32 -125c0 -54.667 15.667 -104.334 47 -149.001c17.333 -24.667 36.833 -45.667 58.5 -63s59.5 -42 113.5 -74l10 -6v523zM541.003 -3.99902c31.333 3.33301 56.6689 8.66699 76.002 16s37.666 18 54.999 32c29.333 24 52.666 56.5 69.999 97.5
s26 84.833 26 131.5c0 134 -75.667 249.333 -227 346v-623z" />
    <glyph glyph-name="percent" unicode="%" horiz-adv-x="1515" 
d="M227 -191l-36 28.9971l924 1259l-35 -19c-69.333 -36 -126.666 -60.833 -171.999 -74.5s-94 -20.5 -146 -20.5c-27.333 0 -54.666 3 -81.999 9c22 -36 37.167 -66.667 45.5 -92s12.5 -53.666 12.5 -84.999c0 -76 -27.333 -145.667 -82 -209
c-34 -40.667 -74.833 -72 -122.5 -94s-97.5 -33 -149.5 -33c-49.333 0 -96.833 9.83301 -142.5 29.5s-86.5 47.5 -122.5 83.5c-61.333 62.667 -92 134.667 -92 216c0 40 8 79.667 24 119s38.667 75 68 107c33.333 36.667 73.166 65.334 119.499 86.001s94.166 31 143.499 31
c33.333 0 64.833 -4.5 94.5 -13.5s62.5 -23.833 98.5 -44.5c45.333 -27.333 78.833 -44.666 100.5 -51.999s48.5 -11 80.5 -11c80 0 170 25.333 270 76c65.333 33.333 135.333 82.333 210 147h60v-13zM170 812.997c0 -47.333 7.16797 -93 21.501 -137s33.833 -80 58.5 -108
c39.333 -44 85.666 -66 138.999 -66c46 0 86.333 19.333 121 58c54 61.333 81 145.333 81 252c0 111.333 -27 196.333 -81 255c-38 41.333 -82.667 62 -134 62c-48.667 0 -92 -23.333 -130 -70c-23.333 -28.667 -41.833 -65 -55.5 -109s-20.5 -89.667 -20.5 -137z
M786.001 312.997c0 86 30.665 161.001 91.998 225.001c72.667 76.667 160.334 115 263.001 115c100 0 185.667 -38.667 257 -116c59.333 -64 89 -136 89 -216c0 -108 -43.667 -195.667 -131 -263c-65.333 -50.667 -139.666 -76 -222.999 -76c-46 0 -90.5 8.66699 -133.5 26
s-81.167 41.666 -114.5 72.999c-66 62 -99 139.333 -99 232zM929.999 314.998c0 -47.333 7.16797 -93 21.501 -137s33.833 -80 58.5 -108c39.333 -44 85.666 -66 138.999 -66c46 0 86.333 19.333 121 58c54.667 61.333 82 145.333 82 252c0 111.333 -27.333 196.333 -82 255
c-38 41.333 -82.333 62 -133 62c-49.333 0 -93 -23.333 -131 -70c-23.333 -28.667 -41.833 -65 -55.5 -109s-20.5 -89.667 -20.5 -137z" />
    <glyph glyph-name="ampersand" unicode="&#x26;" horiz-adv-x="1379" 
d="M501 831l334 -463.999c46.667 87.333 79.334 154.333 98.001 201s28 86.334 28 119.001c0 64.667 -46.333 103.667 -139 117v20h389v-20c-30.667 -2.66699 -55.667 -7.83398 -75 -15.501s-37.666 -19.5 -54.999 -35.5c-34 -32 -76 -100 -126 -204l-31 -64
c-16.667 -36 -41 -83 -73 -141c25.333 -33.333 55.166 -69.166 89.499 -107.499s64.833 -69.833 91.5 -94.5c38 -34.667 71.167 -59.834 99.5 -75.501s55.833 -23.5 82.5 -23.5c28.667 0 52.667 8 72 24s36.333 42 51 78l20 -9c-33.333 -113.333 -105 -170 -215 -170
c-36.667 0 -75 7 -115 21s-76.333 33.333 -109 58c-50 37.333 -101.667 87.666 -155 150.999c-29.333 -42.667 -53.333 -74.667 -72 -96c-38.667 -43.333 -83.834 -76.5 -135.501 -99.5s-106.834 -34.5 -165.501 -34.5c-54 0 -106.167 10 -156.5 30s-91.5 47.333 -123.5 82
c-59.333 63.333 -89 143.333 -89 240c0 95.333 28.667 182 86 260c22.667 30.667 49.834 59.5 81.501 86.5s75.167 58.5 130.5 94.5l16 11c-41.333 58.667 -70.666 105 -87.999 139c-40.667 78.667 -61 149 -61 211c0 38.667 9.33301 77 28 115
c23.333 50 57.666 88 102.999 114s99.666 39 162.999 39c82.667 0 150.667 -22.5 204 -67.5s80 -102.833 80 -173.5c0 -52 -13.667 -98.167 -41 -138.5s-71.666 -79.833 -132.999 -118.5c-43.333 -28 -73 -47.667 -89 -59zM357 742.001
c-55.333 -34 -98.333 -81.332 -129 -141.999s-46 -128.334 -46 -203.001c0 -51.333 8 -101 24 -149s37.667 -88.667 65 -122c25.333 -30 55.833 -53.333 91.5 -70s73.167 -25 112.5 -25c62 0 117.333 19.333 166 58c18 14.667 34.333 31 49 49s33 44.333 55 79zM482 853.002
c31.333 24.667 54.833 46.334 70.5 65.001s29.5 41 41.5 67c23.333 49.333 35 102.333 35 159c0 66.667 -16 119.667 -48 159s-75 59 -129 59c-46.667 0 -84.334 -15 -113.001 -45s-43 -69 -43 -117c0 -28.667 5.83301 -57.334 17.5 -86.001s33.834 -68 66.501 -118
c31.333 -48 65.333 -95.667 102 -143z" />
    <glyph glyph-name="quotesingle" unicode="'" horiz-adv-x="284" 
d="M153 879l-22 -0.000976562l-49 311c-4.66699 28.667 -7 54.334 -7 77.001c0 32.667 6.16699 60.167 18.5 82.5s27.5 33.5 45.5 33.5c20.667 0 37.5 -10.667 50.5 -32s19.5 -49 19.5 -83c0 -20.667 -2.33301 -46.667 -7 -78z" />
    <glyph glyph-name="parenleft" unicode="(" horiz-adv-x="601" 
d="M574 -246l-31 0.000976562c-99.333 106.667 -177.666 212.667 -234.999 318c-44.667 82.667 -79.334 169.167 -104.001 259.5s-37 175.5 -37 255.5s12.667 166.833 38 260.5s59.666 180.834 102.999 261.501c28.667 54 61 105.167 97 153.5s82 103.166 138 164.499h31
l-17 -31c-49.333 -92.667 -87.166 -172.667 -113.499 -240s-46.833 -138 -61.5 -212c-10.667 -53.333 -19.667 -113.833 -27 -181.5s-11 -124.834 -11 -171.501c0 -56 4.66699 -123 14 -201c14 -118 34.833 -218.833 62.5 -302.5s73.167 -184.5 136.5 -302.5z" />
    <glyph glyph-name="parenright" unicode=")" horiz-adv-x="601" 
d="M26 1427h31c99.333 -106.667 177.666 -212.667 234.999 -318c44.667 -82.667 79.334 -169.167 104.001 -259.5s37 -175.5 37 -255.5s-12.667 -166.833 -38 -260.5s-59.666 -180.834 -102.999 -261.501c-28.667 -54 -61 -105.167 -97 -153.5s-82 -103.166 -138 -164.499
h-31l17 31c49.333 92.667 87.166 172.667 113.499 240s46.833 138 61.5 212c11.333 53.333 20.5 113.833 27.5 181.5s10.5 125.167 10.5 172.5c0 55.333 -4.66699 122 -14 200c-14 118 -34.833 218.833 -62.5 302.5s-73.167 184.5 -136.5 302.5z" />
    <glyph glyph-name="asterisk" unicode="*" 
d="M504 1383c16.667 0 30.0049 -3.66504 40.0049 -10.998s15 -17 15 -29c0 -14.667 -3.33301 -34.667 -10 -60l-17 -60c-6.66699 -24 -9.66699 -40 -9 -48c0 -10.667 4 -16.334 12 -17.001c3.33301 0 15.333 6.16699 36 18.5s42.667 26.5 66 42.5
c27.333 18.667 49.333 28 66 28c13.333 0 24.666 -6.83301 33.999 -20.5s14 -29.834 14 -48.501c0 -30.667 -28.667 -46 -86 -46l-62 -3c-40.667 0 -61.334 -6.33301 -62.001 -19c-0.666992 -8 29.333 -35.333 90 -82c33.333 -25.333 50 -45.333 50 -60
c0 -14 -7 -28 -21 -42s-28 -21 -42 -21c-13.333 0 -24.333 4.83301 -33 14.5s-18 28.167 -28 55.5l-21 58c-13.333 36 -24.333 54 -33 54s-19.667 -18 -33 -54l-22 -58c-9.33301 -26.667 -18.166 -45 -26.499 -55s-18.5 -15 -30.5 -15
c-14.667 0 -29.334 6.83301 -44.001 20.5s-22 27.5 -22 41.5c0 15.333 16.667 35.666 50 60.999c60 46 90 73.333 90 82c0.666992 5.33301 -4.83301 9.83301 -16.5 13.5s-26.834 5.5 -45.501 5.5l-62 3c-57.333 0 -86 16 -86 48c0 18 4.66699 33.833 14 47.5
s20.333 20.5 33 20.5c17.333 0 39.666 -9.66699 66.999 -29c26 -18 43.333 -29.667 52 -35l42 -23l7 -3c8.66699 0 13 7.33301 13 22c0 6.66699 -3 21 -9 43l-17 60c-6.66699 24.667 -10 44.334 -10 59.001c0 12 5.16699 21.833 15.5 29.5s24.166 11.5 41.499 11.5z" />
    <glyph glyph-name="plus" unicode="+" 
d="M472 638h-406v62h406v385h62v-385h406v-62h-406v-385h-62v385z" />
    <glyph glyph-name="comma" unicode="," horiz-adv-x="488" 
d="M100 -298l-9 20.999c43.333 18 77.666 37 102.999 57s47 45.667 65 77c28 48 44 94.667 48 140c-18 -6 -33.667 -9 -47 -9c-36.667 0 -66.667 10.833 -90 32.5s-35 49.834 -35 84.501c0 33.333 11.667 62 35 86s51.333 36 84 36c40 0 72.333 -16 97 -48
s37 -74.333 37 -127c0 -52 -12.5 -103.5 -37.5 -154.5s-58.167 -92.833 -99.5 -125.5c-43.333 -34.667 -93.666 -58 -150.999 -70z" />
    <glyph glyph-name="hyphen" unicode="-" horiz-adv-x="514" 
d="M34 509h446v-150h-446v150z" />
    <glyph glyph-name="hyphen" unicode="&#xad;" horiz-adv-x="514" 
d="M34 509h446v-150h-446v150z" />
    <glyph glyph-name="period" unicode="." horiz-adv-x="500" 
d="M250 226c33.333 0 61.833 -11.833 85.5 -35.5s35.5 -52.5 35.5 -86.5c0 -33.333 -11.833 -61.833 -35.5 -85.5s-52.167 -35.5 -85.5 -35.5s-61.833 11.833 -85.5 35.5s-35.5 52.167 -35.5 85.5c0 34 11.833 62.833 35.5 86.5s52.167 35.5 85.5 35.5z" />
    <glyph glyph-name="slash" unicode="/" horiz-adv-x="601" 
d="M-66 -246l615 1673h64l-616 -1673h-63z" />
    <glyph glyph-name="zero" unicode="0" 
d="M503 1383c70 0 135.333 -31.668 196 -95.001c30 -30.667 59.667 -70.667 89 -120s54.333 -99.666 75 -150.999c45.333 -117.333 68 -228.666 68 -333.999s-22.667 -217 -68 -335c-20.667 -52 -45.667 -102.333 -75 -151s-59 -88.334 -89 -119.001
c-61.333 -64 -126.666 -96 -195.999 -96c-68.667 0 -134 32 -196 96c-29.333 30.667 -58.833 70.334 -88.5 119.001s-54.5 99 -74.5 151c-46 118.667 -69 230.334 -69 335.001c0 105.333 23 216.666 69 333.999c20 51.333 44.833 101.666 74.5 150.999
s59.167 89.333 88.5 120c61.333 63.333 126.666 95 195.999 95zM503 1359c-26.667 0 -52.834 -10.165 -78.501 -30.498s-48.5 -48.5 -68.5 -84.5c-15.333 -27.333 -30.666 -64.166 -45.999 -110.499s-28 -92.166 -38 -137.499c-21.333 -104.667 -32 -209 -32 -313
s10.667 -208.333 32 -313c10 -46.667 22.667 -93 38 -139s30.666 -82.333 45.999 -109c20.667 -37.333 43.834 -65.833 69.501 -85.5s52.5 -29.5 80.5 -29.5c24.667 0 50 10.167 76 30.5s49 48.5 69 84.5c14.667 26.667 29.834 63 45.501 109s28.167 92.333 37.5 139
c22 105.333 33 209.666 33 312.999s-11 207.666 -33 312.999c-9.33301 45.333 -21.833 91.166 -37.5 137.499s-30.834 83.166 -45.501 110.499c-20 36 -42.833 64.167 -68.5 84.5s-52.167 30.5 -79.5 30.5z" />
    <glyph glyph-name="one" unicode="1" 
d="M561 1367l23.0029 -0.00195312v-1099c0 -51.333 4.5 -93.166 13.5 -125.499s22.833 -56.5 41.5 -72.5c32 -27.333 83 -44 153 -50v-20h-577v20c44.667 3.33301 78.167 8.83301 100.5 16.5s42.166 20.834 59.499 39.501s29.166 41 35.499 67s9.5 65.667 9.5 119v955
c-35.333 -4 -62.333 -6 -81 -6c-48.667 0 -88.334 4.66699 -119.001 14v18h23c51.333 0 100 8.5 146 25.5s96 44.5 150 82.5z" />
    <glyph glyph-name="two" unicode="2" 
d="M850 0l-777.002 0.00292969v20c82 72.667 164.167 153.667 246.5 243s152.833 174 211.5 254c82.667 112 142.167 208.667 178.5 290s54.5 157.333 54.5 228c0 95.333 -30.667 176 -92 242c-51.333 54.667 -112.666 82 -183.999 82c-62 0 -116.333 -19.333 -163 -58
c-32 -25.333 -56.667 -58 -74 -98s-26 -83.667 -26 -131c0 -77.333 26 -141.333 78 -192c22.667 -22.667 47.834 -40.167 75.501 -52.5s55.167 -18.5 82.5 -18.5c5.33301 0 13.333 0.333008 24 1l6 -17c-48.667 -25.333 -91 -38 -127 -38c-56.667 0 -107.334 21 -152.001 63
c-27.333 25.333 -48.333 56.666 -63 93.999s-22 77.333 -22 120c0 102 36.667 185.667 110 251c76 66.667 171.667 100 287 100c62.667 0 120.834 -10.5 174.501 -31.5s98.5 -51.167 134.5 -90.5c32.667 -34.667 57.667 -75.334 75 -122.001s26 -95.334 26 -146.001
c0 -100 -35 -202.333 -105 -307c-34 -50 -75 -99.5 -123 -148.5s-114.667 -109.167 -200 -180.5c-109.333 -90 -187.666 -156.667 -234.999 -200h361c60.667 0 103.667 3.66699 129 11c34 9.33301 62.333 26.333 85 51c25.333 27.333 45.666 66.333 60.999 117l22 -4z" />
    <glyph glyph-name="three" unicode="3" 
d="M629 733c198 -54 297.003 -166.331 297.003 -336.998c0 -59.333 -12.667 -116 -38 -170c-36 -76.667 -92 -136.5 -168 -179.5s-163.667 -64.5 -263 -64.5c-60 0 -116 8.5 -168 25.5s-94.333 40.5 -127 70.5c-25.333 23.333 -45.166 51 -59.499 83s-21.5 64.333 -21.5 97
c0 56.667 19 104.667 57 144s84.667 59 140 59l4 -18c-31.333 -25.333 -53.5 -51.166 -66.5 -77.499s-19.5 -58.166 -19.5 -95.499c0 -56.667 16.333 -107.667 49 -153c24.667 -35.333 56.667 -62.5 96 -81.5s82 -28.5 128 -28.5c90 0 162 35 216 105
c26 33.333 46.5 73.5 61.5 120.5s22.5 94.167 22.5 141.5c0 53.333 -9.16699 105.166 -27.5 155.499s-42.5 90.166 -72.5 119.499c-36 34.667 -75 52 -117 52c-12 0 -23.333 -2.16699 -34 -6.5s-25 -13.166 -43 -26.499c-34 -24.667 -63.667 -37 -89 -37
c-19.333 0 -35.5 5.66699 -48.5 17s-19.5 25.666 -19.5 42.999c0 20 8.16699 36.5 24.5 49.5s37.166 19.5 62.499 19.5c12.667 0 24 -1.33301 34 -4l38 -10c12.667 -3.33301 25.667 -5 39 -5c46 0 90 20.667 132 62c58 57.333 87 133.666 87 228.999
c0 46 -7.33301 90.5 -22 133.5s-35.334 80.167 -62.001 111.5c-46 54.667 -102.667 82 -170 82c-56 0 -102 -17.333 -138 -52s-54 -79.334 -54 -134.001c0 -40.667 9.83301 -75.334 29.5 -104.001s46.167 -47.334 79.5 -56.001l3 -18
c-24.667 -9.33301 -48.334 -14 -71.001 -14c-48 0 -86.833 14.333 -116.5 43s-44.5 66 -44.5 112c0 68 31.833 126.167 95.5 174.5s140.5 72.5 230.5 72.5c54 0 106.167 -8.5 156.5 -25.5s93.166 -40.833 128.499 -71.5c34 -29.333 60.167 -64.166 78.5 -104.499
s27.5 -83.166 27.5 -128.499c0 -96 -36.667 -175 -110 -237c-34.667 -29.333 -83.667 -57 -147 -83z" />
    <glyph glyph-name="four" unicode="4" 
d="M572 325l-501.002 0.00195312v22l621 1022h44v-1008c44.667 0 76.334 2.66699 95.001 8s35.334 17 50.001 35c10.667 13.333 18.5 28 23.5 44s8.5 37.667 10.5 65l1 23h20v-381h-20c-2.66699 40.667 -6.66699 70.5 -12 89.5s-14 34.5 -26 46.5
c-13.333 13.333 -28.333 22.333 -45 27s-41.667 7 -75 7h-22v-102c0 -36.667 3.33301 -67 10 -91s17 -44 31 -60c14 -16.667 29.667 -28.334 47 -35.001s45.333 -12.334 84 -17.001v-20h-503v20c66 6 109.333 19.667 130 41c13.333 14.667 22.833 34.667 28.5 60
s8.5 61.333 8.5 108v96zM571.998 361.002v735l-452 -735h452z" />
    <glyph glyph-name="five" unicode="5" 
d="M271 633l179.998 736.002c93.333 -23.333 180 -35 260 -35c48.667 0 87.167 2.66699 115.5 8s55.166 14.333 80.499 27c-6 -32.667 -14.333 -59.334 -25 -80.001s-25.667 -39.334 -45 -56.001c-35.333 -30 -89.666 -45 -162.999 -45c-55.333 0 -129.666 9 -222.999 27
l-109 -439c35.333 27.333 67.166 46.166 95.499 56.499s62.5 15.5 102.5 15.5c103.333 0 189.333 -37 258 -111c31.333 -33.333 55.5 -72 72.5 -116s25.5 -88.667 25.5 -134c0 -70 -16 -140.333 -48 -211c-43.333 -94 -103.5 -166.5 -180.5 -217.5
s-165.5 -76.5 -265.5 -76.5c-54 0 -105.5 7.83301 -154.5 23.5s-89.5 36.834 -121.5 63.501c-25.333 22 -45.166 47.5 -59.499 76.5s-21.5 59.167 -21.5 90.5c0 30 8.5 54.833 25.5 74.5s38.5 29.5 64.5 29.5c21.333 0 38.833 -7.66699 52.5 -23s20.5 -35 20.5 -59
c0 -9.33301 -0.666992 -22.666 -2 -39.999c-2 -14.667 -3 -28.334 -3 -41.001c0 -51.333 17.167 -92.5 51.5 -123.5s79.5 -46.5 135.5 -46.5c92.667 0 169.334 41.667 230.001 125c31.333 44 56.333 98 75 162s28 129.333 28 196c0 101.333 -19.667 182.333 -59 243
s-92 91 -158 91c-45.333 0 -85 -16.167 -119 -48.5s-61.667 -79.833 -83 -142.5h-33z" />
    <glyph glyph-name="six" unicode="6" 
d="M264 776c44.667 36.667 87.501 63.3301 128.501 79.9971s84.5 25 130.5 25c51.333 0 102.666 -11.667 153.999 -35c77.333 -35.333 138.166 -88.5 182.499 -159.5s66.5 -151.5 66.5 -241.5c0 -65.333 -11.5 -127.5 -34.5 -186.5s-55.833 -110.5 -98.5 -154.5
c-79.333 -81.333 -175 -122 -287 -122c-133.333 0 -239.333 56 -318 168c-70.667 101.333 -106 233.333 -106 396c0 132 21.5 256.167 64.5 372.5s104.167 216.5 183.5 300.5c53.333 56 108 97.333 164 124s116 40 180 40c69.333 0 127 -13.667 173 -41
s69 -61.666 69 -102.999c0 -22 -6.5 -40.167 -19.5 -54.5s-29.5 -21.5 -49.5 -21.5c-14 0 -26.667 3 -38 9c-12 6.66699 -21.833 15.834 -29.5 27.501s-17.167 32.834 -28.5 63.501c-12.667 33.333 -28.167 57 -46.5 71s-43.166 21 -74.499 21
c-86.667 0 -164.667 -55.667 -234 -167c-70.667 -114 -114.667 -251.333 -132 -412zM246.001 427.996c0 -125.333 23.333 -226.332 70 -302.999c48 -78.667 108.333 -118 181 -118c36.667 0 71.334 10.667 104.001 32s61 52 85 92s43.333 89.5 58 148.5s22 117.5 22 175.5
c0 59.333 -7.5 116.833 -22.5 172.5s-35.5 101.5 -61.5 137.5c-44.667 61.333 -103.334 92 -176.001 92c-62.667 0 -116 -26.333 -160 -79c-32 -38.667 -56.667 -88.334 -74 -149.001s-26 -127.667 -26 -201z" />
    <glyph glyph-name="seven" unicode="7" 
d="M904 1346l-487.003 -1235l-20 -51c-11.333 -27.333 -24.166 -47.166 -38.499 -59.499s-32.166 -18.5 -53.499 -18.5c-23.333 0 -43.333 7.33301 -60 22s-25 32.334 -25 53.001c0 18.667 8.33301 44.334 25 77.001l21 39l533 1013h-436c-36 0 -63.667 -1.83301 -83 -5.5
s-36.333 -10.167 -51 -19.5c-20 -13.333 -36.667 -30.166 -50 -50.499s-30.666 -55.166 -51.999 -104.499l-5 -12h-20l90 399h21c4.66699 -22 12 -35.833 22 -41.5s31.667 -8.5 65 -8.5z" />
    <glyph glyph-name="eight" unicode="8" 
d="M616 753c51.333 -28 91.8359 -53.001 121.503 -75.001s56.167 -46 79.5 -72c64 -70.667 96 -154.667 96 -252c0 -104.667 -35 -191.667 -105 -261c-74 -74 -170.667 -111 -290 -111c-132 0 -239 39.667 -321 119c-68.667 66.667 -103 145.667 -103 237
c0 98 38 179.333 114 244c32.667 28 90.667 63.667 174 107c-77.333 38 -136.333 82.333 -177 133c-53.333 65.333 -80 139.333 -80 222c0 89.333 30 165.333 90 228c34 35.333 75.167 62.666 123.5 81.999s100.166 29 155.499 29c49.333 0 97.166 -7.83301 143.499 -23.5
s86.166 -37.5 119.499 -65.5c66 -56 99 -127.667 99 -215c0 -81.333 -28.667 -151.666 -86 -210.999c-28 -29.333 -79.333 -67.666 -154 -114.999zM571.003 771.999c44.667 35.333 78.168 77.501 100.501 126.501s33.5 104.167 33.5 165.5c0 86 -21.833 156.667 -65.5 212
s-99.5 83 -167.5 83c-64.667 0 -117.834 -23.333 -159.501 -70s-62.5 -106.334 -62.5 -179.001c0 -95.333 40.667 -174.333 122 -237c44 -34 110.333 -67.667 199 -101zM422.004 670c-63.333 -47.333 -110.333 -99.668 -141 -157.001s-46 -122.333 -46 -195
c0 -88.667 24.667 -162 74 -220c52 -60.667 121.333 -91 208 -91c74 0 133 23.667 177 71c24 25.333 42.667 56.333 56 93s20 75 20 115c0 92.667 -34 172 -102 238c-52 50.667 -134 99.334 -246 146.001z" />
    <glyph glyph-name="nine" unicode="9" 
d="M744 589c-44.667 -36.667 -87.667 -63.1641 -129 -79.4971s-85 -24.5 -131 -24.5c-50.667 0 -101.667 11.667 -153 35c-78 35.333 -139 88.5 -183 159.5s-66 151.167 -66 240.5c0 66 11.5 128.5 34.5 187.5s55.833 110.167 98.5 153.5
c78.667 81.333 174.334 122 287.001 122c133.333 0 239 -56 317 -168c71.333 -101.333 107 -233.333 107 -396c0 -132 -21.5 -256.167 -64.5 -372.5s-104.5 -216.5 -184.5 -300.5c-52.667 -56 -107 -97.333 -163 -124s-116.333 -40 -181 -40
c-69.333 0 -126.833 13.667 -172.5 41s-68.5 61.666 -68.5 102.999c0 22 6.5 40.167 19.5 54.5s29.5 21.5 49.5 21.5c13.333 0 25.666 -2.66699 36.999 -8c12.667 -6.66699 22.834 -15.834 30.501 -27.501s17.167 -32.5 28.5 -62.5c12 -32.667 27.167 -56 45.5 -70
s43.166 -21 74.499 -21c87.333 0 165.333 55.667 234 167c70.667 113.333 115 249.666 133 408.999zM762 938.003c0 124.667 -23.333 225.331 -70 301.998c-48 78 -108.667 117 -182 117c-36.667 0 -71.167 -10.5 -103.5 -31.5s-60.5 -51.5 -84.5 -91.5
c-24.667 -40 -44.334 -89.5 -59.001 -148.5s-22 -117.167 -22 -174.5c0 -58.667 7.66699 -115.5 23 -170.5s36 -100.167 62 -135.5c44.667 -60.667 103.334 -91 176.001 -91c62.667 0 116 26 160 78c32 38.667 56.667 87.834 74 147.501s26 125.834 26 198.501z" />
    <glyph glyph-name="colon" unicode=":" horiz-adv-x="500" 
d="M250 865c33.333 0 61.833 -11.833 85.5 -35.5s35.5 -52.167 35.5 -85.5s-11.833 -61.833 -35.5 -85.5s-52.167 -35.5 -85.5 -35.5s-61.833 11.833 -85.5 35.5s-35.5 52.167 -35.5 85.5s11.833 61.833 35.5 85.5s52.167 35.5 85.5 35.5zM250 226
c33.333 0 61.833 -11.833 85.5 -35.5s35.5 -52.5 35.5 -86.5c0 -33.333 -11.833 -61.833 -35.5 -85.5s-52.167 -35.5 -85.5 -35.5s-61.833 11.833 -85.5 35.5s-35.5 52.167 -35.5 85.5c0 34 11.833 62.833 35.5 86.5s52.167 35.5 85.5 35.5z" />
    <glyph glyph-name="semicolon" unicode=";" horiz-adv-x="488" 
d="M100 -298l-9 20.999c43.333 18 77.666 37 102.999 57s47 45.667 65 77c28 48 44 94.667 48 140c-18 -6 -33.667 -9 -47 -9c-36.667 0 -66.667 10.833 -90 32.5s-35 49.834 -35 84.501c0 33.333 11.667 62 35 86s51.333 36 84 36c40 0 72.333 -16 97 -48
s37 -74.333 37 -127c0 -52 -12.5 -103.5 -37.5 -154.5s-58.167 -92.833 -99.5 -125.5c-43.333 -34.667 -93.666 -58 -150.999 -70zM233 864.999c34 0 62.833 -11.833 86.5 -35.5s35.5 -52.167 35.5 -85.5s-11.833 -61.833 -35.5 -85.5s-52.5 -35.5 -86.5 -35.5
c-33.333 0 -61.833 11.667 -85.5 35s-35.5 52 -35.5 86c0 33.333 11.833 61.833 35.5 85.5s52.167 35.5 85.5 35.5z" />
    <glyph glyph-name="less" unicode="&#x3c;" 
d="M927 1257v-79l-634 -413l634 -424v-210l-848 568v13z" />
    <glyph glyph-name="equal" unicode="=" 
d="M66 795h874v-61h-874v61zM66 604h874v-61h-874v61z" />
    <glyph glyph-name="greater" unicode="&#x3e;" 
d="M79 131v79l634 413l-634 424v210l848 -568v-13z" />
    <glyph glyph-name="question" unicode="?" horiz-adv-x="945" 
d="M320 319l-32.999 -0.00195312v503h33c6 -54.667 17.333 -96.667 34 -126c17.333 -30 39.833 -53.667 67.5 -71s57.167 -26 88.5 -26c62 0 110.667 29.167 146 87.5s53 137.833 53 238.5c0 78 -10.5 149 -31.5 213s-50.167 115.333 -87.5 154
c-20.667 20.667 -43.667 36.834 -69 48.501s-50 17.5 -74 17.5c-33.333 0 -61.666 -10 -84.999 -30c-22.667 -18.667 -37.334 -54 -44.001 -106c-2.66699 -19.333 -6 -34 -10 -44s-10 -18.333 -18 -25c-14 -10.667 -29.667 -16 -47 -16c-21.333 0 -38.5 7.16699 -51.5 21.5
s-19.5 33.166 -19.5 56.499c0 37.333 16.667 70 50 98c25.333 20.667 56.5 36.834 93.5 48.501s75.167 17.5 114.5 17.5c104.667 0 198 -36.667 280 -110c49.333 -44 87.666 -96.167 114.999 -156.5s41 -122.833 41 -187.5c0 -57.333 -11 -109.5 -33 -156.5
s-53.333 -86.167 -94 -117.5c-30 -23.333 -64.333 -41.666 -103 -54.999s-75.667 -20 -111 -20c-37.333 0 -73.5 6.16699 -108.5 18.5s-67.167 30.5 -96.5 54.5v-330zM308.001 225.998c34 0 62.833 -11.833 86.5 -35.5s35.5 -52.5 35.5 -86.5
c0 -33.333 -11.833 -61.833 -35.5 -85.5s-52.5 -35.5 -86.5 -35.5c-33.333 0 -61.833 11.833 -85.5 35.5s-35.5 52.167 -35.5 85.5c0 34 11.833 62.833 35.5 86.5s52.167 35.5 85.5 35.5z" />
    <glyph glyph-name="at" unicode="@" horiz-adv-x="1527" 
d="M1229 170l31.002 -46c-36 -31.333 -73.667 -56.666 -113 -75.999c-52.667 -26 -108.834 -46.167 -168.501 -60.5s-117.5 -21.5 -173.5 -21.5c-82.667 0 -163.334 14.667 -242.001 44c-142 52 -255.333 139.167 -340 261.5s-127 259.5 -127 411.5
c0 107.333 22.167 209 66.5 305s107.166 177.667 188.499 245c63.333 53.333 134.333 94.333 213 123s158.334 43 239.001 43c90.667 0 178.5 -18 263.5 -54s156.5 -85.333 214.5 -148c48.667 -54 86 -115 112 -183s39 -139.333 39 -214c0 -84 -16.167 -161.667 -48.5 -233
s-78.5 -130.333 -138.5 -177c-41.333 -32 -86.833 -56.667 -136.5 -74s-99.167 -26 -148.5 -26c-88.667 0 -133 36.333 -133 109c0 23.333 5.33301 56.333 16 99l-8 3c-36.667 -68 -77.334 -119.667 -122.001 -155s-92 -53 -142 -53c-52.667 0 -97 18.667 -133 56
c-37.333 37.333 -56 91.333 -56 162c0 68 17 139 51 213s80.667 142 140 204c44 45.333 89.667 80.666 137 105.999s92 38 134 38c31.333 0 57.833 -7.66699 79.5 -23s37.834 -37.333 48.501 -66l11 -2l27 83l109 -1l-128 -431
c-12.667 -42.667 -23.834 -88.5 -33.501 -137.5s-14.5 -84.5 -14.5 -106.5c0 -16 4.5 -27.333 13.5 -34s24.167 -10 45.5 -10c38 0 78.167 10.667 120.5 32s80.833 50.333 115.5 87c84 89.333 126 198 126 326c0 88 -16 166.167 -48 234.5s-81.333 129.833 -148 184.5
c-105.333 86.667 -226.666 130 -363.999 130c-81.333 0 -160 -15.667 -236 -47c-123.333 -50 -221.5 -129.667 -294.5 -239s-109.5 -231.666 -109.5 -366.999c0 -104 21.333 -200.833 64 -290.5s103.667 -165.834 183 -228.501c57.333 -44.667 120.5 -79 189.5 -103
s139.5 -36 211.5 -36c149.333 0 288.333 47.667 417 143zM943.002 940c0 28.667 -8 52.001 -24 70.001s-37.333 27 -64 27c-64 0 -134.667 -63 -212 -189c-40.667 -66.667 -73.334 -135.834 -98.001 -207.501s-37 -134.167 -37 -187.5c0 -78 29.667 -117 89 -117
c34.667 0 71.334 17.5 110.001 52.5s75 83.5 109 145.5c30.667 57.333 59.667 127.333 87 210c26.667 80 40 145.333 40 196z" />
    <glyph glyph-name="A" unicode="A" horiz-adv-x="1420" 
d="M1441 0l-656.997 -0.000976562v23c59.333 5.33301 100.666 15.333 123.999 30c41.333 26 62 62 62 108c0 27.333 -9.33301 64 -28 110l-17 42l-96 236h-440l-52 -138l-25 -62c-30 -73.333 -45 -131 -45 -173c0 -24.667 5.5 -47.667 16.5 -69s25.833 -38.666 44.5 -51.999
c26 -18 59.333 -28.667 100 -32v-23h-448v23c35.333 2 66.333 10.667 93 26s52.667 40 78 74c21.333 27.333 42.166 62.5 62.499 105.5s47.166 107.5 80.499 193.5l366 943h57l435 -1051c32.667 -79.333 58.667 -136 78 -170s40.333 -59.667 63 -77
c16 -12 34.333 -21.167 55 -27.5s51.667 -11.833 93 -16.5v-23zM813.003 589.999l-210 518l-198 -518h408z" />
    <glyph glyph-name="B" unicode="B" horiz-adv-x="1378" 
d="M49 0l-0.00390625 23.0029c38.667 2 69.834 7.5 93.501 16.5s44.5 22.833 62.5 41.5c21.333 21.333 35.666 48.333 42.999 81s11 83.334 11 152.001v737c0 68.667 -3.66699 119.334 -11 152.001s-21.666 59.667 -42.999 81c-18 19.333 -39 33.333 -63 42s-55 14 -93 16
v23h657c66.667 0 110.334 -0.666992 131.001 -2c76 -6 139 -24 189 -54c43.333 -26.667 76.833 -61.667 100.5 -105s35.5 -92 35.5 -146c0 -87.333 -27 -159 -81 -215c-19.333 -20.667 -41.333 -37.834 -66 -51.501s-60.334 -28.834 -107.001 -45.501
c64 -10.667 113.667 -22.334 149 -35.001s67.333 -30.334 96 -53.001c42.667 -34.667 75.834 -77.834 99.501 -129.501s35.5 -107.5 35.5 -167.5c0 -60.667 -12.167 -116.167 -36.5 -166.5s-58.166 -90.833 -101.499 -121.5c-39.333 -27.333 -86.166 -46.333 -140.499 -57
s-130.833 -16 -229.5 -16h-731zM477.996 1334v-594h81c38 0 77.333 2.66699 118 8c35.333 5.33301 63.833 11.666 85.5 18.999s41.5 17.333 59.5 30c34 25.333 60.167 57.833 78.5 97.5s27.5 83.5 27.5 131.5c0 50.667 -9.5 98.834 -28.5 144.501
s-44.167 81.167 -75.5 106.5c-27.333 22 -58.5 37 -93.5 45s-88.167 12 -159.5 12h-93zM477.996 709.003l0.000976562 -412.001c0 -50 3.5 -90.333 10.5 -121s18.5 -56.667 34.5 -78c34 -44.667 92.333 -67 175 -67c107.333 0 192.166 29.333 254.499 88
s93.5 138.667 93.5 240c0 58 -9.66699 111.833 -29 161.5s-45.333 87.834 -78 114.501c-60 49.333 -154 74 -282 74h-179z" />
    <glyph glyph-name="C" unicode="C" horiz-adv-x="1371" 
d="M1279 1372l11.998 -446.999h-23l-17 44c-23.333 64 -42.333 111.667 -57 143c-26 56 -63.667 107.333 -113 154c-37.333 35.333 -76 61 -116 77s-85 24 -135 24c-75.333 0 -140.666 -16.333 -195.999 -49c-48.667 -28.667 -94 -69.834 -136 -123.501
s-76.333 -114.834 -103 -183.501c-38 -96.667 -57 -206.667 -57 -330c0 -104.667 13 -199 39 -283s64 -154.333 114 -211c92 -105.333 214 -158 366 -158c76 0 144.333 13.167 205 39.5s107.667 63.5 141 111.5c38.667 55.333 66.667 130 84 224l23 -4
c-12.667 -105.333 -41.334 -189 -86.001 -251c-42.667 -59.333 -101.5 -104.666 -176.5 -135.999s-161.833 -47 -260.5 -47c-92 0 -180 13.667 -264 41c-134 44 -238.667 123.5 -314 238.5s-113 252.167 -113 411.5c0 122 22 234.5 66 337.5s105.333 185.833 184 248.5
c60.667 48 133.167 86.167 217.5 114.5s168.833 42.5 253.5 42.5c80.667 0 166 -15.333 256 -46l82 -27c16 -6 30 -9 42 -9c16.667 0 30.334 7 41.001 21c4.66699 6.66699 10.334 17.667 17.001 33h24z" />
    <glyph glyph-name="D" unicode="D" horiz-adv-x="1581" 
d="M49 23c38.667 2 69.667 7.33398 93 16.001s44.333 22.667 63 42c20.667 21.333 34.834 48.5 42.501 81.5s11.5 83.5 11.5 151.5v737c0 73.333 -4.5 127 -13.5 161s-26.5 62 -52.5 84c-32.667 27.333 -80.667 42.666 -144 45.999v23h550c122 0 199.667 -1.33301 233 -4
c140.667 -10.667 260 -50.667 358 -120c93.333 -66 166 -152.5 218 -259.5s78 -223.5 78 -349.5c0 -92 -14.833 -178.833 -44.5 -260.5s-70.834 -149.5 -123.501 -203.5c-74 -76 -166.333 -124.333 -277 -145c-82.667 -15.333 -167 -23 -253 -23h-739v23zM478 1334v-994.002
c0 -65.333 3.66699 -115 11 -149s21 -63 41 -87c42.667 -52 112 -78 208 -78c82 0 152.167 13.5 210.5 40.5s110.5 70.833 156.5 131.5c45.333 58.667 79.833 125.834 103.5 201.501s35.5 156.167 35.5 241.5c0 94.667 -14.333 184.667 -43 270s-69.667 160 -123 224
c-74 88.667 -162.333 147.334 -265 176.001c-56 15.333 -127.333 23 -214 23h-121z" />
    <glyph glyph-name="E" unicode="E" horiz-adv-x="1276" 
d="M1124 1365l17.001 -329.998l-23 -1c-8.66699 56 -23 102.333 -43 139s-49 69 -87 97c-31.333 23.333 -68.333 39.833 -111 49.5s-99.334 14.5 -170.001 14.5h-229v-600h60c60.667 0 106.334 4 137.001 12s55.667 22.333 75 43c18.667 19.333 32.5 42.166 41.5 68.499
s16.5 65.166 22.5 116.499l23 -1l-4 -536h-23c-6 51.333 -14.833 92.666 -26.5 123.999s-27.834 58 -48.501 80c-20 21.333 -46 37 -78 47s-72.667 15 -122 15h-57v-229c0 -91.333 2.33301 -157.833 7 -199.5s13.667 -76.5 27 -104.5
c22.667 -48 57.167 -83.167 103.5 -105.5s107.5 -33.5 183.5 -33.5c80 0 147 10.167 201 30.5s98 51.833 132 94.5c24 28.667 43.5 61.334 58.5 98.001s28.833 85 41.5 145l23 -1l-13 -398h-1193v23c38 2 68.833 7.33301 92.5 16s44.834 22.667 63.501 42
c20.667 21.333 34.834 48.5 42.501 81.5s11.5 83.5 11.5 151.5v737c0 68 -3.83301 118.5 -11.5 151.5s-21.834 60.167 -42.501 81.5c-18 19.333 -38.833 33.333 -62.5 42s-54.834 14 -93.501 16v23h1075z" />
    <glyph glyph-name="F" unicode="F" horiz-adv-x="1115" 
d="M478 713l0.00292969 -399.001c0 -68 3.66699 -118.167 11 -150.5s21.333 -59.5 42 -81.5c18 -19.333 39.167 -33.5 63.5 -42.5s55.5 -14.5 93.5 -16.5v-23h-639v23c32 0 62.333 5.16699 91 15.5s51 24.166 67 41.499c18.667 20.667 32 49 40 85s12 85.667 12 149v737
c0 42.667 -2.33301 87 -7 133c-6.66699 58.667 -35.334 102.334 -86.001 131.001c-28 15.333 -67 24.333 -117 27v23h1045l29 -325l-23 -5c-16.667 50.667 -32 88.667 -46 114c-31.333 58 -75.333 103 -132 135c-32.667 18.667 -70.334 31.667 -113.001 39
s-101.334 11 -176.001 11h-155v-590h40c118 0 203.667 26.333 257 79c23.333 22.667 41 49.5 53 80.5s20 71.5 24 121.5l23 -1l-6 -606h-24c-7.33301 68 -19.833 120.5 -37.5 157.5s-44.5 66.833 -80.5 89.5c-26.667 16.667 -59.5 28.834 -98.5 36.501
s-89.167 11.5 -150.5 11.5z" />
    <glyph glyph-name="G" unicode="G" horiz-adv-x="1539" 
d="M1301 1365l11.999 -435.001l-23 -2c-46 148 -105 258.167 -177 330.5s-159 108.5 -261 108.5c-79.333 0 -147.5 -16.167 -204.5 -48.5s-110.167 -84.833 -159.5 -157.5c-100 -148.667 -150 -318.667 -150 -510c0 -91.333 12 -177.5 36 -258.5s59 -152.5 105 -214.5
c89.333 -120 198.333 -180 327 -180c50.667 0 98.334 10.667 143.001 32s81.334 50.666 110.001 87.999c39.333 52 59 113.667 59 185c0 66 -17.833 113.667 -53.5 143s-94.5 44 -176.5 44v23h638v-23c-58.667 -5.33301 -99.834 -13.5 -123.501 -24.5
s-41.167 -29.833 -52.5 -56.5c-12.667 -29.333 -19 -87.666 -19 -174.999c0 -24 1.33301 -61.333 4 -112l2 -23c-25.333 9.33301 -44 14 -56 14c-14.667 0 -33.334 -7.66699 -56.001 -23c-58 -40 -125.333 -70.667 -202 -92s-157.667 -32 -243 -32
c-117.333 0 -223.166 20 -317.499 60s-170.833 97.333 -229.5 172c-44 56 -77.833 122.667 -101.5 200s-35.5 159.333 -35.5 246c0 119.333 21.333 230.333 64 333s102.667 187.334 180 254.001c63.333 54 136.333 95.667 219 125s170 44 262 44
c53.333 0 102.833 -5 148.5 -15s94.167 -26.333 145.5 -49l59 -27c14.667 -6 28 -9 40 -9c26.667 0 47 21.667 61 65h26z" />
    <glyph glyph-name="H" unicode="H" horiz-adv-x="1666" 
d="M478 730l709.999 -0.00390625v321c0 68.667 -3.83301 119.334 -11.5 152.001s-21.834 59.667 -42.501 81c-18.667 19.333 -39.834 33.333 -63.501 42s-54.834 14 -93.501 16v23h639v-23c-38 -2 -68.833 -7.33301 -92.5 -16s-44.834 -22.667 -63.501 -42
c-20.667 -21.333 -34.834 -48.5 -42.501 -81.5s-11.5 -83.5 -11.5 -151.5v-737c0 -68 3.83301 -118.333 11.5 -151s21.834 -60 42.501 -82c18.667 -18.667 39.834 -32.5 63.501 -41.5s54.5 -14.5 92.5 -16.5v-23h-639v23c38.667 2 69.834 7.5 93.501 16.5
s44.834 22.833 63.501 41.5c20.667 21.333 34.834 48.333 42.501 81s11.5 83.334 11.5 152.001v369h-710v-369c0 -68 3.83301 -118.5 11.5 -151.5s21.834 -60.167 42.501 -81.5c18 -18.667 38.833 -32.5 62.5 -41.5s54.834 -14.5 93.501 -16.5v-23h-639v23
c38.667 2 69.834 7.5 93.501 16.5s44.5 22.833 62.5 41.5c21.333 21.333 35.666 48.333 42.999 81s11 83.334 11 152.001v737c0 68.667 -3.66699 119.334 -11 152.001s-21.666 59.667 -42.999 81c-18 19.333 -39 33.333 -63 42s-55 14 -93 16v23h639v-23
c-38 -2 -68.833 -7.33301 -92.5 -16s-44.834 -22.667 -63.501 -42c-20.667 -21.333 -34.834 -48.5 -42.501 -81.5s-11.5 -83.5 -11.5 -151.5v-321z" />
    <glyph glyph-name="I" unicode="I" horiz-adv-x="737" 
d="M688 1365l0.00195312 -23.002c-38 -2 -68.833 -7.33301 -92.5 -16s-44.834 -22.667 -63.501 -42c-26 -26.667 -42 -63.667 -48 -111c-4 -35.333 -6 -76 -6 -122v-737c0 -55.333 2.66699 -99 8 -131s14 -57.667 26 -77c17.333 -26.667 39.666 -46.5 66.999 -59.5
s63.666 -20.833 108.999 -23.5v-23h-639v23c38.667 2 69.834 7.5 93.501 16.5s44.5 22.833 62.5 41.5c21.333 21.333 35.666 48.333 42.999 81s11 83.334 11 152.001v737c0 68.667 -3.66699 119.334 -11 152.001s-21.666 59.667 -42.999 81c-18 19.333 -39 33.333 -63 42
s-55 14 -93 16v23h639z" />
    <glyph glyph-name="J" unicode="J" horiz-adv-x="689" 
d="M654 1365l-0.00292969 -23c-35.333 -2 -63.666 -6.33301 -84.999 -13s-41 -17.667 -59 -33c-25.333 -21.333 -42.833 -49 -52.5 -83s-14.5 -86.333 -14.5 -157v-893c0 -90.667 -6.66699 -160.167 -20 -208.5s-37.666 -89.833 -72.999 -124.5
c-35.333 -34 -83 -61.5 -143 -82.5s-121.333 -31.5 -184 -31.5c-37.333 0 -73.666 4 -108.999 12s-63.666 18.667 -84.999 32c-39.333 24 -59 56 -59 96c0 24 7.66699 43.667 23 59s35.333 23 60 23c24 0 44.333 -8 61 -24c8 -8 15 -17.833 21 -29.5s15 -33.167 27 -64.5
c11.333 -28.667 24.666 -49.167 39.999 -61.5s35.333 -18.5 60 -18.5c32 0 59.833 10.333 83.5 31s41.834 50.667 54.501 90c16.667 54 25 157.667 25 311v885c0 42 -3 80 -9 114c-7.33301 43.333 -23.333 77.333 -48 102c-38.667 40.667 -91.334 63.667 -158.001 69v23h644
z" />
    <glyph glyph-name="K" unicode="K" horiz-adv-x="1450" 
d="M478 696l422.999 419.997c42 41.333 68.167 69.5 78.5 84.5s15.5 31.5 15.5 49.5c0 32.667 -16 57.334 -48 74.001c-16.667 8 -44.667 14 -84 18v23h431v-23c-29.333 -2.66699 -53.833 -7.5 -73.5 -14.5s-41.167 -18.833 -64.5 -35.5
c-26 -18.667 -70.667 -58.334 -134 -119.001l-324 -311l461 -588l57 -73c42 -52 85.667 -92.667 131 -122c27.333 -18 51.333 -30.833 72 -38.5s46.667 -13.5 78 -17.5v-23h-661v23c50 4 86 12.333 108 25s33 31.334 33 56.001c0 26.667 -13.667 60.667 -41 102
c-13.333 20 -38.333 54.667 -75 104s-67.667 89.333 -93 120l-225 279l-65 -64v-331c0 -68 3.83301 -118.5 11.5 -151.5s21.834 -60.167 42.501 -81.5c18 -18.667 38.833 -32.5 62.5 -41.5s54.834 -14.5 93.501 -16.5v-23h-639v23c38.667 2 69.834 7.5 93.501 16.5
s44.5 22.833 62.5 41.5c21.333 21.333 35.666 48.333 42.999 81s11 83.334 11 152.001v737c0 68.667 -3.66699 119.334 -11 152.001s-21.666 59.667 -42.999 81c-18 19.333 -39 33.333 -63 42s-55 14 -93 16v23h639v-23c-38 -2 -68.833 -7.33301 -92.5 -16
s-44.834 -22.667 -63.501 -42c-20.667 -21.333 -34.834 -48.5 -42.501 -81.5s-11.5 -83.5 -11.5 -151.5v-355z" />
    <glyph glyph-name="L" unicode="L" horiz-adv-x="1249" 
d="M49 0v23.998c67.333 0 119.333 19 156 57c20.667 21.333 34.834 48.5 42.501 81.5s11.5 83.5 11.5 151.5v737c0 70.667 -4.16699 122.834 -12.5 156.501s-23.833 61.167 -46.5 82.5c-18.667 17.333 -39.5 30 -62.5 38s-52.5 12.667 -88.5 14v23h639v-23
c-36.667 -2 -66.667 -7 -90 -15s-44 -20.667 -62 -38c-22.667 -22 -38 -49.667 -46 -83s-12 -85 -12 -155v-577c0 -88.667 2.33301 -154.667 7 -198s13.667 -78.666 27 -105.999c23.333 -48 58 -83.167 104 -105.5s107 -33.5 183 -33.5c79.333 0 146.166 10.5 200.499 31.5
s98.833 53.5 133.5 97.5c23.333 30 42.5 64 57.5 102s28.833 88 41.5 150l24 -2l-13 -410h-1194z" />
    <glyph glyph-name="M" unicode="M" horiz-adv-x="1826" 
d="M1776 1342c-38 -2 -68.5078 -7.16797 -91.5078 -15.501s-44.167 -22.166 -63.5 -41.499c-14.667 -14 -25.667 -29.5 -33 -46.5s-12.333 -38.5 -15 -64.5c-4.66699 -34.667 -7 -75.667 -7 -123v-737c0 -68.667 4 -119.667 12 -153s22.333 -60 43 -80
c36.667 -35.333 88.334 -54.666 155.001 -57.999v-23h-639v23c38.667 2 69.834 7.5 93.501 16.5s44.834 22.833 63.501 41.5c20.667 21.333 34.834 48.5 42.501 81.5s11.5 83.5 11.5 151.5v894l-515 -1208h-21l-512 1190v-876c0 -68.667 3.83301 -119.334 11.5 -152.001
s21.834 -59.667 42.501 -81c18.667 -19.333 39.834 -33.333 63.501 -42s54.5 -14 92.5 -16v-23h-461v23c38 2 68.833 7.33301 92.5 16s44.834 22.667 63.501 42c20.667 21.333 34.834 48.5 42.501 81.5s11.5 83.5 11.5 151.5v737c0 30.667 -1 59.667 -3 87
c-3.33301 49.333 -11 85.333 -23 108c-16.667 31.333 -39.5 54.5 -68.5 69.5s-67.5 23.833 -115.5 26.5v23h434l433 -1069l449 1069h411v-23z" />
    <glyph glyph-name="N" unicode="N" horiz-adv-x="1547" 
d="M300 1184l0.000976562 -870c0 -68.667 3.83301 -119.334 11.5 -152.001s21.834 -59.667 42.501 -81c18.667 -19.333 39.834 -33.333 63.501 -42s54.5 -14 92.5 -16v-23h-461v23c38 2 68.833 7.33301 92.5 16s44.834 22.667 63.501 42
c20.667 21.333 34.834 48.5 42.501 81.5s11.5 83.5 11.5 151.5v738c0 67.333 -3.83301 117.5 -11.5 150.5s-21.834 60.167 -42.501 81.5c-18 19.333 -38.833 33.333 -62.5 42s-54.834 14 -93.501 16v23h385l812 -1036v722c0 68.667 -3.83301 119.334 -11.5 152.001
s-21.834 59.667 -42.501 81c-18.667 19.333 -39.834 33.333 -63.501 42s-54.5 14 -92.5 16v23h461v-23c-66.667 0 -118.667 -19.333 -156 -58c-20.667 -21.333 -34.834 -48.5 -42.501 -81.5s-11.5 -83.167 -11.5 -150.5v-1052h-45z" />
    <glyph glyph-name="O" unicode="O" horiz-adv-x="1661" 
d="M96 673c0 112 24 215.832 72 311.499s118 179.167 210 250.5c68.667 52.667 142.667 93.167 222 121.5s159.333 42.5 240 42.5c102.667 0 202 -22.5 298 -67.5s180 -108.5 252 -190.5c117.333 -133.333 176 -285 176 -455c0 -85.333 -15.333 -167.666 -46 -246.999
s-75.334 -151.666 -134.001 -216.999c-72 -81.333 -157.167 -144.333 -255.5 -189s-201.166 -67 -308.499 -67c-106 0 -207.333 21.667 -304 65s-180 104.666 -250 183.999c-55.333 62 -97.833 132.5 -127.5 211.5s-44.5 161.167 -44.5 246.5zM338 657.999
c0 -193.333 52.668 -356.333 158.001 -489c47.333 -59.333 97.5 -102.5 150.5 -129.5s114.167 -40.5 183.5 -40.5c70 0 131.5 13.333 184.5 40s103.5 70 151.5 130c105.333 133.333 158 297.666 158 492.999c0 107.333 -14.5 208.833 -43.5 304.5
s-69.833 176.834 -122.5 243.501c-42.667 54.667 -90.167 94.5 -142.5 119.5s-114.166 37.5 -185.499 37.5c-70.667 0 -131.834 -12.333 -183.501 -37s-99.5 -64.667 -143.5 -120c-52.667 -66 -93.334 -147 -122.001 -243s-43 -199 -43 -309z" />
    <glyph glyph-name="P" unicode="P" horiz-adv-x="1184" 
d="M478 673v-359.001c0 -68 3.83301 -118.5 11.5 -151.5s21.834 -60.167 42.501 -81.5c18 -18.667 38.833 -32.5 62.5 -41.5s54.834 -14.5 93.501 -16.5v-23h-639v23c38.667 2 69.834 7.5 93.501 16.5s44.5 22.833 62.5 41.5c21.333 21.333 35.666 48.333 42.999 81
s11 83.334 11 152.001v737c0 57.333 -2.5 101.5 -7.5 132.5s-13.5 56.167 -25.5 75.5c-17.333 26.667 -39.333 46.5 -66 59.5s-61.334 20.833 -104.001 23.5h-7v23h603c105.333 0 183 -5.33301 233 -16s95.667 -32 137 -64c94.667 -72 142 -168 142 -288
c0 -122 -48 -211.333 -144 -268c-50 -29.333 -110.667 -47 -182 -53c-22.667 -2 -77.334 -3 -164.001 -3h-196zM478 704.999l98 -0.00195312c66 0 116.833 4.83301 152.5 14.5s67.5 27.5 95.5 53.5c65.333 59.333 98 138.333 98 237c0 54.667 -9.5 104.834 -28.5 150.501
s-46.167 82.834 -81.5 111.501c-40.667 34 -89 54 -145 60c-15.333 1.33301 -50.333 2 -105 2h-84v-629z" />
    <glyph glyph-name="Q" unicode="Q" horiz-adv-x="1659" 
d="M1047 -2c39.333 -25.333 83.4971 -45.1689 132.497 -59.502s98.167 -21.5 147.5 -21.5c42 0 81.833 4.83301 119.5 14.5s67.834 22.834 90.501 39.501c20 14.667 35.833 31.834 47.5 51.501s22.167 46.834 31.5 81.501l16 -2
c-2.66699 -48.667 -10.834 -89.834 -24.501 -123.501s-35.5 -66.167 -65.5 -97.5c-79.333 -82.667 -194 -124 -344 -124c-87.333 0 -160.666 15.667 -219.999 47c-53.333 28.667 -110.333 80.334 -171 155.001l-6 7c-58.667 0 -119.5 9.16699 -182.5 27.5
s-122.167 44.166 -177.5 77.499c-109.333 65.333 -194.166 151 -254.499 257s-90.5 221.333 -90.5 346c0 111.333 24 214.833 72 310.5s118 179.167 210 250.5c67.333 52.667 141 93.167 221 121.5s160.333 42.5 241 42.5c94.667 0 186.667 -19 276 -57
c68 -30 131.5 -70.167 190.5 -120.5s108.833 -107.166 149.5 -170.499c72 -112 108 -234 108 -366c0 -84.667 -15.167 -166.5 -45.5 -245.5s-74.166 -151.5 -131.499 -217.5c-47.333 -54.667 -97.333 -99.334 -150 -134.001s-116 -64.667 -190 -90zM488.997 171.997
c48.667 14 97 21.002 145 21.002c59.333 0 116.333 -11.667 171 -35c23.333 -10 47.333 -23 72 -39s64.667 -44 120 -84l9 -7c43.333 23.333 80.833 50.666 112.5 81.999s62.5 72.333 92.5 123c74 122 111 264.667 111 428c0 106.667 -14.5 208.334 -43.5 305.001
s-69.833 178 -122.5 244c-42.667 54 -90.167 93.667 -142.5 119s-113.5 38 -183.5 38c-70.667 0 -132.167 -12.5 -184.5 -37.5s-99.833 -64.833 -142.5 -119.5c-52 -66 -92.5 -147.167 -121.5 -243.5s-43.5 -197.833 -43.5 -304.5c0 -98.667 12 -186.834 36 -264.501
s62.333 -152.834 115 -225.501zM777.997 -6.00098l-6.99902 8.00098c-46.667 56 -86.334 95.333 -119.001 118s-66 34 -100 34c-12.667 0 -26.667 -2.66699 -42 -8c42 -48.667 83.167 -84.334 123.5 -107.001s88.5 -37.667 144.5 -45z" />
    <glyph glyph-name="R" unicode="R" horiz-adv-x="1326" 
d="M478 668l-0.00292969 -354.003c0 -68 3.83301 -118.5 11.5 -151.5s21.834 -60.167 42.501 -81.5c18 -18.667 38.833 -32.5 62.5 -41.5s54.834 -14.5 93.501 -16.5v-23h-639v23c38.667 2 69.834 7.5 93.501 16.5s44.5 22.833 62.5 41.5
c21.333 21.333 35.666 48.333 42.999 81s11 83.334 11 152.001v737c0 68.667 -3.66699 119.334 -11 152.001s-21.666 59.667 -42.999 81c-18 19.333 -39 33.333 -63 42s-55 14 -93 16v23h482c80.667 0 133.667 -0.333008 159 -1c103.333 -4.66699 184.333 -18.667 243 -42
c66 -26.667 117.167 -66.5 153.5 -119.5s54.5 -114.5 54.5 -184.5c0 -104 -39.333 -187.333 -118 -250c-24 -18.667 -50.5 -34 -79.5 -46s-67.833 -23.333 -116.5 -34c40 -16.667 69.667 -34 89 -52c15.333 -14 29.333 -31.5 42 -52.5s31.667 -58.167 57 -111.5
c59.333 -122 104.166 -211.167 134.499 -267.5s55.833 -97.166 76.5 -122.499c16.667 -20.667 32.834 -35 48.501 -43s37.167 -13.333 64.5 -16v-23h-332l-32 70l-70 159c-42 95.333 -84.333 179.666 -127 252.999c-42.667 72.667 -81.667 122.334 -117 149.001
c-18 13.333 -37.333 22.833 -58 28.5s-46 8.5 -76 8.5h-49zM477.997 689.997h37.999c82.667 0 141.834 4.66699 177.501 14s69.167 28.666 100.5 57.999c70 66.667 105 149.334 105 248.001c0 52.667 -10.167 102.167 -30.5 148.5s-48.5 84.5 -84.5 114.5
c-28 22.667 -61.333 38.5 -100 47.5s-93.667 13.5 -165 13.5h-41v-644z" />
    <glyph glyph-name="S" unicode="S" horiz-adv-x="1059" 
d="M98 3l2.99805 413.001h23c28 -105.333 61.333 -188.333 100 -249c72.667 -112 164 -168 274 -168c76.667 0 140 25.667 190 77s75 116.333 75 195c0 34 -5.5 68.667 -16.5 104s-25.833 65.666 -44.5 90.999c-19.333 26 -46.5 51 -81.5 75s-88.5 54.333 -160.5 91
c-63.333 32 -111.833 59 -145.5 81s-60.834 44.333 -81.501 67c-57.333 62.667 -86 139 -86 229c0 55.333 11.167 108.666 33.5 159.999s53.5 95.333 93.5 132c70.667 65.333 154.334 98 251.001 98c31.333 0 60.333 -3.16699 87 -9.5s62.334 -18.833 107.001 -37.5
c33.333 -13.333 56 -21.833 68 -25.5s22.667 -5.5 32 -5.5c23.333 0 39 17 47 51h23l7 -397h-23c-18 63.333 -33.5 111.833 -46.5 145.5s-28.5 64.834 -46.5 93.501c-32.667 52 -68.667 90.5 -108 115.5s-84.666 37.5 -135.999 37.5c-74.667 0 -133.667 -25.333 -177 -76
c-18 -20.667 -32.167 -45 -42.5 -73s-15.5 -56 -15.5 -84c0 -111.333 71.667 -201 215 -269l141 -68c108.667 -51.333 187 -108 235 -170c54.667 -69.333 82 -150 82 -242c0 -61.333 -12.333 -120 -37 -176c-34.667 -78 -86.667 -138.167 -156 -180.5s-151 -63.5 -245 -63.5
c-86 0 -168.667 17 -248 51c-41.333 18 -66 28.333 -74 31s-17 4 -27 4c-32 0 -54 -16 -66 -48h-23z" />
    <glyph glyph-name="T" unicode="T" horiz-adv-x="1406" 
d="M589 1334c-42 0 -87.0059 -1.33496 -135.006 -4.00195c-102.667 -5.33301 -179.167 -18.333 -229.5 -39s-91.833 -56.334 -124.5 -107.001c-30 -46.667 -53 -110 -69 -190l-23 2l18 369h1353l18 -369l-23 -2c-18 92.667 -46.167 162.834 -84.5 210.501
s-94.166 81.834 -167.499 102.501c-62 18 -167 27 -315 27v-1020c0 -68 3.83301 -118.5 11.5 -151.5s21.834 -60.167 42.501 -81.5c18.667 -19.333 39.834 -33.333 63.501 -42s54.5 -14 92.5 -16v-23h-639v23c38.667 2 69.834 7.33301 93.501 16s44.834 22.667 63.501 42
c20.667 21.333 34.834 48.333 42.501 81s11.5 83.334 11.5 152.001v1020z" />
    <glyph glyph-name="U" unicode="U" horiz-adv-x="1542" 
d="M674 1365l0.00390625 -23.0029c-38 -2 -69 -7.33301 -93 -16s-45 -22.667 -63 -42c-22 -22.667 -36.5 -50.667 -43.5 -84s-10.5 -90.666 -10.5 -171.999v-566c0 -92 3.5 -158.5 10.5 -199.5s21.167 -78.833 42.5 -113.5c32 -52.667 71.5 -90.834 118.5 -114.501
s106.167 -35.5 177.5 -35.5c69.333 0 135.5 10.5 198.5 31.5s115.5 50.167 157.5 87.5c26 23.333 45.167 48.666 57.5 75.999s20.5 62 24.5 104c2.66699 27.333 4 92 4 194v559c0 68.667 -3.83301 119.334 -11.5 152.001s-21.834 59.667 -42.501 81
c-18.667 19.333 -39.834 33.333 -63.501 42s-54.5 14 -92.5 16v23h461v-23c-38 -2 -68.833 -7.33301 -92.5 -16s-44.834 -22.667 -63.501 -42c-20.667 -21.333 -34.834 -48.5 -42.501 -81.5s-11.5 -83.5 -11.5 -151.5v-631c0 -93.333 -7.16699 -162.166 -21.5 -206.499
s-42.833 -84.833 -85.5 -121.5c-97.333 -84 -236.333 -126 -417 -126c-188.667 0 -327.667 39.667 -417 119c-58 50.667 -92.667 117.334 -104 200.001c-4 29.333 -6 82.333 -6 159v607c0 68.667 -3.66699 119.334 -11 152.001s-21.666 59.667 -42.999 81
c-18 19.333 -38.833 33.333 -62.5 42s-54.834 14 -93.501 16v23h639z" />
    <glyph glyph-name="V" unicode="V" horiz-adv-x="1388" 
d="M-34 1365l660.001 0.000976562v-23c-50 -4.66699 -86 -12.334 -108 -23.001c-20.667 -10 -37.334 -25.5 -50.001 -46.5s-19 -43.833 -19 -68.5c0 -17.333 1.66699 -32.666 5 -45.999s13.333 -42.333 30 -87l296 -805l287 706c40 99.333 60 171.666 60 216.999
c0 25.333 -4 49 -12 71s-18.667 39 -32 51c-13.333 11.333 -28 19.333 -44 24s-36.667 7 -62 7v23h445v-23c-36.667 -3.33301 -68.5 -12.333 -95.5 -27s-52.833 -37 -77.5 -67c-16.667 -21.333 -34.167 -50.5 -52.5 -87.5s-43.5 -94.167 -75.5 -171.5l-410 -989h-42
l-398 1022c-52 134 -93.667 219 -125 255c-20 22.667 -44.5 39.167 -73.5 49.5s-64.5 15.5 -106.5 15.5v23z" />
    <glyph glyph-name="W" unicode="W" horiz-adv-x="2152" 
d="M-34 1365h628.999v-23c-58.667 0 -98.667 -4.33301 -120 -13c-18 -8 -32.667 -21 -44 -39s-17 -38.333 -17 -61c0 -28 10.667 -66.667 32 -116l26 -62l311 -760l217 655c28 84 42 146.667 42 188c0 30.667 -5.5 60.5 -16.5 89.5s-25.5 52.5 -43.5 70.5
c-17.333 17.333 -37.166 29.666 -59.499 36.999s-50.833 11 -85.5 11v23h643v-23c-39.333 0 -67.833 -1.33301 -85.5 -4s-34.167 -8.33398 -49.5 -17.001c-20 -12 -36.167 -29.167 -48.5 -51.5s-18.5 -46.5 -18.5 -72.5c0 -24 9.33301 -65.667 28 -125l246 -793l275 675
c42.667 103.333 64 183.333 64 240c0 59.333 -19.667 101.333 -59 126c-24 14.667 -60.333 22 -109 22v23h463v-23c-44.667 -4.66699 -78.5 -13.167 -101.5 -25.5s-45.833 -34.833 -68.5 -67.5c-33.333 -46.667 -75 -131 -125 -253l-411 -996h-41l-356 1065l-361 -1065h-45
l-447 1076l-30 73c-20.667 49.333 -38 85 -52 107s-31 39.333 -51 52c-16 10.667 -33.333 18.334 -52 23.001s-45 8.33398 -79 11.001v23z" />
    <glyph glyph-name="X" unicode="X" horiz-adv-x="1483" 
d="M27 1365l659.002 0.000976562v-23c-46 0 -81.333 -4 -106 -12c-40 -12.667 -60 -36.667 -60 -72c0 -36.667 27.333 -94.667 82 -174l175 -256l153 189c60 74 99 125.833 117 155.5s27 57.167 27 82.5c0 35.333 -18.667 59.666 -56 72.999
c-17.333 6.66699 -47.666 11.334 -90.999 14.001v23h459v-23c-50.667 0 -90 -6.66699 -118 -20c-43.333 -20 -101 -75.333 -173 -166l-76 -96l-217 -269l344 -511c60.667 -90.667 115.667 -156.334 165 -197.001c25.333 -20.667 50.166 -35.334 74.499 -44.001
s56.833 -14 97.5 -16v-23h-694v23c54 6 93.333 15.333 118 28c40 20 60 48 60 84c0 12.667 -4 27.334 -12 44.001s-23 41.667 -45 75l-245 370l-238 -290c-36.667 -44.667 -62.834 -81.834 -78.501 -111.501s-23.5 -57.167 -23.5 -82.5c0 -36 13.5 -63.833 40.5 -83.5
s67.167 -30.834 120.5 -33.501v-23h-486v23c36.667 6.66699 67.167 16.167 91.5 28.5s52.833 33.833 85.5 64.5c48 44 115.667 119 203 225l260 318l-310 465l-53 77c-38.667 56.667 -71.334 93.334 -98.001 110.001c-24 14.667 -64.667 24.334 -122 29.001
c-6.66699 0 -16.667 0.666992 -30 2v23z" />
    <glyph glyph-name="Y" unicode="Y" horiz-adv-x="1345" 
d="M375 0l-0.000976562 22.9971c38 2 69 7.33301 93 16s45.333 22.667 64 42c20.667 21.333 34.667 48.333 42 81s11 83.334 11 152.001l1 195c0 28 -5.66699 59 -17 93c-12.667 39.333 -38.667 88.666 -78 147.999l-259 389l-46 70c-34 50.667 -67.333 85.334 -100 104.001
c-16.667 10 -33.334 17 -50.001 21s-40 6.66699 -70 8v23h652v-23c-55.333 -3.33301 -90.666 -8.33301 -105.999 -15c-37.333 -16 -56 -45 -56 -87c0 -15.333 4.16699 -32.666 12.5 -51.999s21.833 -43.666 40.5 -72.999l271 -424l232 362l26 41
c24.667 38.667 37 76.667 37 114c0 42.667 -13.667 75.667 -41 99s-65.666 35 -114.999 35v23h460v-23c-34.667 -4 -61.334 -9.83301 -80.001 -17.5s-37.667 -20.167 -57 -37.5c-45.333 -42.667 -95.666 -106.334 -150.999 -191.001l-228 -348
c-27.333 -41.333 -44 -71.666 -50 -90.999s-9 -52 -9 -98v-245c0 -71.333 3.5 -122.5 10.5 -153.5s21.167 -57.5 42.5 -79.5c36.667 -38.667 89 -58 157 -58v-23h-639z" />
    <glyph glyph-name="Z" unicode="Z" horiz-adv-x="1255" 
d="M73 1365h1071v-23l-865 -1311h320c186.667 0 322.667 26.667 408 80c68.667 42 123.667 106.333 165 193c17.333 36.667 30.333 79 39 127l23 -1l-31 -430h-1183v23l873 1311h-286c-103.333 0 -184.833 -7.5 -244.5 -22.5s-113.167 -41.167 -160.5 -78.5
c-38.667 -30.667 -68.167 -64.5 -88.5 -101.5s-33.833 -81.5 -40.5 -133.5l-23 2z" />
    <glyph glyph-name="bracketleft" unicode="[" horiz-adv-x="601" 
d="M235 1427l300 -0.00195312v-27c-56.667 -3.33301 -105.334 -13.666 -146.001 -30.999v-1557c40.667 -17.333 89.334 -27.666 146.001 -30.999v-27h-300v1673z" />
    <glyph glyph-name="backslash" unicode="\" horiz-adv-x="601" 
d="M667 -246h-64l-615 1673h63z" />
    <glyph glyph-name="bracketright" unicode="]" horiz-adv-x="601" 
d="M366 -246l-300 0.00195312v27c56.667 3.33301 105.334 13.666 146.001 30.999v1557c-40.667 17.333 -89.334 27.666 -146.001 30.999v27h300v-1673z" />
    <glyph glyph-name="asciicircum" unicode="^" horiz-adv-x="1024" 
d="M1075 585h-79l-413 635l-424 -635h-210l568 849h13z" />
    <glyph glyph-name="underscore" unicode="_" horiz-adv-x="1024" 
d="M45 -180h933v-90h-933v90z" />
    <glyph glyph-name="grave" unicode="`" horiz-adv-x="1024" 
d="M628 1000h-49l-320 273h186z" />
    <glyph glyph-name="a" unicode="a" horiz-adv-x="874" 
d="M882 97l16.9971 -9.99805c-24 -70 -79 -105 -165 -105c-47.333 0 -86.666 11.667 -117.999 35c-20.667 15.333 -42 42 -64 80c-44.667 -40 -78.334 -66.333 -101.001 -79c-43.333 -24 -93.666 -36 -150.999 -36c-73.333 0 -131.5 17.667 -174.5 53s-64.5 83 -64.5 143
c0 55.333 17.667 101.666 53 138.999c20 20.667 43 37.167 69 49.5s63.667 24.833 113 37.5c58 14.667 100.833 27 128.5 37s50.834 22 69.501 36c21.333 15.333 36 33.333 44 54s12 49.334 12 86.001c0 78 -14.667 135 -44 171c-13.333 16.667 -30.5 30 -51.5 40
s-42.833 15 -65.5 15c-27.333 0 -51.666 -7 -72.999 -21s-37.333 -33.333 -48 -58l-25 -58c-13.333 -31.333 -37.333 -47 -72 -47c-22.667 0 -41.667 7.5 -57 22.5s-23 33.833 -23 56.5c0 34 24 62.667 72 86c26 12 58.167 21.833 96.5 29.5s75.833 11.5 112.5 11.5
c41.333 0 84.333 -5.33301 129 -16s82 -24.334 112 -41.001c43.333 -24.667 70.333 -56.667 81 -96c5.33301 -20 8 -53.667 8 -101v-370c0 -62.667 2.66699 -105.334 8 -128.001c11.333 -47.333 38.666 -71 81.999 -71c20.667 0 36.834 3.66699 48.501 11s25.5 22 41.5 44z
M551.997 491.002c-36 -30 -75.665 -56.334 -118.998 -79.001c-48.667 -26 -82.334 -45.667 -101.001 -59s-35.667 -29.333 -51 -48c-31.333 -38.667 -47 -83.667 -47 -135c0 -44 12.167 -80.333 36.5 -109s55.166 -43 92.499 -43c32.667 0 63.5 10.167 92.5 30.5
s50.833 47.5 65.5 81.5c20.667 44.667 31 109.334 31 194.001v167z" />
    <glyph glyph-name="b" unicode="b" horiz-adv-x="1049" 
d="M319 740c28 34.667 54.6689 60.333 80.002 77c51.333 32.667 112.666 49 183.999 49c101.333 0 189.666 -32.333 264.999 -97c93.333 -79.333 140 -191.333 140 -336s-44.667 -258.667 -134 -342c-77.333 -72.667 -176.333 -109 -297 -109
c-63.333 0 -117 8.66699 -161 26l-56 23c-15.333 6 -29 9 -41 9c-34 0 -64 -27.667 -90 -83h-40v1173c0 74.667 -11.833 128.167 -35.5 160.5s-63.5 48.5 -119.5 48.5v24l305 42v-665zM319.002 436.999c0 -71.333 4.00098 -136.997 12.001 -196.997s18.333 -103.667 31 -131
c15.333 -32.667 38.166 -58.334 68.499 -77.001s64.833 -28 103.5 -28c81.333 0 148.5 38.667 201.5 116s79.5 175.666 79.5 294.999c0 62.667 -8.66699 122.167 -26 178.5s-42 104.166 -74 143.499c-25.333 32.667 -53.333 57.5 -84 74.5s-62 25.5 -94 25.5
c-38.667 0 -74.667 -11.833 -108 -35.5s-58 -54.5 -74 -92.5c-24 -56 -36 -146.667 -36 -272z" />
    <glyph glyph-name="c" unicode="c" horiz-adv-x="852" 
d="M775 189l20 -7.00195c-23.333 -70.667 -59 -121.667 -107 -153s-114 -47 -198 -47c-134.667 0 -240.334 40 -317.001 120c-74.667 78.667 -112 178 -112 298c0 58.667 10.333 116.667 31 174s49 106.333 85 147c40.667 46.667 90.5 82.334 149.5 107.001
s123.5 37 193.5 37c96.667 0 172.334 -21.667 227.001 -65c33.333 -26.667 50 -56 50 -88c0 -21.333 -7 -39.166 -21 -53.499s-31 -21.5 -51 -21.5c-43.333 0 -75.333 31.667 -96 95c-9.33301 29.333 -16.833 49.333 -22.5 60s-13.834 20 -24.501 28
c-20.667 15.333 -46 23 -76 23c-39.333 0 -75.666 -11 -108.999 -33c-29.333 -19.333 -54.166 -43.5 -74.499 -72.5s-38.166 -65.5 -53.499 -109.5c-23.333 -67.333 -35 -133.333 -35 -198c0 -59.333 10.667 -117.333 32 -174s50.333 -104 87 -142
c57.333 -60 124.666 -90 201.999 -90c64 0 117 20.333 159 61c21.333 21.333 41.666 56 60.999 104z" />
    <glyph glyph-name="d" unicode="d" horiz-adv-x="1073" 
d="M754 -32c-6.66699 32.667 -10 67.3369 -10 104.004c-49.333 -32 -95.833 -55 -139.5 -69s-90.5 -21 -140.5 -21c-101.333 0 -188 30.333 -260 91c-46 38.667 -81.333 87.167 -106 145.5s-37 122.166 -37 191.499c0 73.333 13.333 141.166 40 203.499
s64 114.166 112 155.499c76 64 166.333 96 271 96c50.667 0 94 -7.33301 130 -22s78 -41.334 126 -80.001v371c0 72.667 -12 125 -36 157s-63.667 48 -119 48v24l305 39v-1159c0 -75.333 12 -129 36 -161s63.667 -48 119 -48v-25zM740 432.003
c0 92.667 -4 162.169 -12 208.502s-22.333 84.166 -43 113.499c-18 25.333 -42.167 45.666 -72.5 60.999s-61.5 23 -93.5 23c-71.333 0 -133 -33.333 -185 -100c-31.333 -40 -55.833 -87.667 -73.5 -143s-26.5 -112.333 -26.5 -171c0 -57.333 8.33301 -113.5 25 -168.5
s39.334 -102.167 68.001 -141.5c50 -68 111.333 -102 184 -102c34.667 0 67.667 8.66699 99 26s56.666 41.333 75.999 72c20 32 34 71.5 42 118.5s12 114.833 12 203.5z" />
    <glyph glyph-name="e" unicode="e" horiz-adv-x="923" 
d="M238 544c-2.66699 -32.667 -3.99609 -56.333 -3.99609 -71c0 -58 8.5 -114.667 25.5 -170s40.167 -101.333 69.5 -138c30 -37.333 67.167 -66.666 111.5 -87.999s90.833 -32 139.5 -32c36 0 70.167 6 102.5 18s59.166 28.667 80.499 50
c24 23.333 44.667 60.666 62 111.999l20 -7c-17.333 -78 -54.5 -136.833 -111.5 -176.5s-132.833 -59.5 -227.5 -59.5c-82 0 -152.333 13 -211 39s-108.334 66 -149.001 120c-56.667 75.333 -85 168 -85 278c0 150 53.667 267.667 161 353c78 62 167 93 267 93
c53.333 0 102.666 -9.5 147.999 -28.5s83.666 -46.5 114.999 -82.5c48.667 -56 73 -126 73 -210h-587zM676.004 583.001c-4.66699 66.667 -17 118 -37 154c-18 32.667 -42 58.5 -72 77.5s-62 28.5 -96 28.5c-57.333 0 -107.5 -24.667 -150.5 -74s-68.5 -111.333 -76.5 -186
h432z" />
    <glyph glyph-name="f" unicode="f" horiz-adv-x="573" 
d="M325 812l0.000976562 -523.001l1 -76c0 -45.333 2.66699 -78.5 8 -99.5s15.666 -38.5 30.999 -52.5c18.667 -18 53 -31.667 103 -41v-20h-441v20c40 5.33301 68.667 12.833 86 22.5s31.333 26.167 42 49.5c7.33301 15.333 12.5 38.5 15.5 69.5s4.5 75.833 4.5 134.5v516
h-145v38h145v244c0 58.667 7.5 105 22.5 139s41.833 65.333 80.5 94c34.667 25.333 77.167 45.166 127.5 59.499s103.5 21.5 159.5 21.5c52 0 93.667 -9 125 -27s47 -42 47 -72c0 -20 -6.5 -36.667 -19.5 -50s-28.833 -20 -47.5 -20c-18 0 -33.667 4.83301 -47 14.5
s-26.666 25.5 -39.999 47.5c-18.667 30.667 -34 50.834 -46 60.501s-28.333 14.5 -49 14.5c-25.333 0 -49.333 -5.16699 -72 -15.5s-40.334 -23.833 -53.001 -40.5c-14 -18.667 -23.667 -43.167 -29 -73.5s-8 -74.166 -8 -131.499v-265h197v-38h-198z" />
    <glyph glyph-name="g" unicode="g" horiz-adv-x="843" 
d="M277 -85l-18.002 -4.99805c-11.333 18.667 -22.666 31.667 -33.999 39s-25.333 11 -42 11c-28 0 -50.833 -10.667 -68.5 -32s-26.5 -49 -26.5 -83c0 -54 27 -98.333 81 -133s123 -52 207 -52c89.333 0 161.5 19.167 216.5 57.5s82.5 88.166 82.5 149.499
c0 49.333 -18.333 87.166 -55 113.499s-89 39.5 -157 39.5h-159c-65.333 0 -118 15.333 -158 46c-41.333 32 -62 70.333 -62 115c0 47.333 22 84.666 66 111.999c22.667 13.333 64 27.666 124 42.999c-58 26.667 -103 61.834 -135 105.501s-48 91.834 -48 144.501
c0 67.333 25 127.333 75 180c29.333 31.333 64 55.666 104 72.999s81 26 123 26c64 0 129.333 -22.667 196 -68c31.333 24.667 59.5 42.167 84.5 52.5s52.167 15.5 81.5 15.5c32.667 0 59 -7 79 -21c24 -17.333 36 -38.666 36 -63.999
c0 -15.333 -4.66699 -28.166 -14 -38.499s-21 -15.5 -35 -15.5c-21.333 0 -40.666 11.333 -57.999 34l-23 30c-12.667 16 -30.667 24 -54 24c-24.667 0 -50.667 -12.333 -78 -37c54 -66 81 -134 81 -204c0 -87.333 -38.667 -156.333 -116 -207
c-38.667 -25.333 -80.334 -42.333 -125.001 -51c-13.333 -2 -55.666 -5.33301 -126.999 -10c-98 -6 -147 -33.333 -147 -82c0 -42.667 41.667 -64 125 -64h165c58 0 107 -5.16699 147 -15.5s75 -26.5 105 -48.5c58.667 -43.333 88 -104.333 88 -183
c0 -86.667 -34 -154.334 -102 -203.001c-70 -50 -172.667 -75 -308 -75c-145.333 0 -248.333 29.333 -309 88c-38.667 38 -58 85.333 -58 142c0 44.667 14.333 82.5 43 113.5s63.667 46.5 105 46.5c30 0 54.5 -9 73.5 -27s28.5 -41.667 28.5 -71v-11zM232.998 579.002
c0 -72 15.1689 -130.666 45.502 -175.999s69.166 -68 116.499 -68c48 0 85.333 22.5 112 67.5s40 107.5 40 187.5c0 82.667 -17.333 148.667 -52 198c-25.333 36.667 -58 55 -98 55c-48 0 -86.667 -24 -116 -72c-14.667 -24 -26.334 -53.333 -35.001 -88
s-13 -69.334 -13 -104.001z" />
    <glyph glyph-name="h" unicode="h" horiz-adv-x="1073" 
d="M325 1405l-0.000976562 -685.002c23.333 28.667 44 51 62 67s39.667 30 65 42c48.667 24 104 36 166 36c78.667 0 143.667 -15.667 195 -47c36.667 -23.333 61.834 -51.833 75.501 -85.5s20.5 -84.167 20.5 -151.5v-292l1 -76c0 -45.333 2.66699 -78.5 8 -99.5
s15.666 -38.5 30.999 -52.5c18.667 -18 53 -31.667 103 -41v-20h-441v20c35.333 4.66699 60.5 10.334 75.5 17.001s28.5 18 40.5 34c12 16.667 20.333 39.334 25 68.001s7 71 7 127v317c0 48 -3.66699 86 -11 114s-19.666 52.333 -36.999 73c-34 39.333 -82 59 -144 59
c-161.333 0 -242 -127.333 -242 -382v-160l1 -74c0 -45.333 2.66699 -78.5 8 -99.5s15.666 -38.5 30.999 -52.5c18.667 -18 53 -31.667 103 -41v-20h-441v20c40 5.33301 68.667 12.833 86 22.5s31.333 26.167 42 49.5c7.33301 15.333 12.5 38.5 15.5 69.5
s4.5 75.833 4.5 134.5v785c0 68 -1.66699 116 -5 144s-10.666 50.667 -21.999 68c-11.333 18.667 -25 32 -41 40s-39 13 -69 15v21z" />
    <glyph glyph-name="i" unicode="i" horiz-adv-x="496" 
d="M38 831l287 35.999v-578l1 -76c0 -45.333 2.66699 -78.5 8 -99.5s15.666 -38.5 30.999 -52.5c18.667 -18 53 -31.667 103 -41v-20h-441v20c40 5.33301 68.667 12.833 86 22.5s31.333 26.167 42 49.5c7.33301 15.333 12.5 38.5 15.5 69.5s4.5 75.833 4.5 134.5v247
c0 68.667 -1.66699 116.834 -5 144.501s-10.666 50.167 -21.999 67.5c-11.333 18.667 -25 32.167 -41 40.5s-39 13.5 -69 15.5v20zM246 1224c-26 0 -47.498 8.33301 -64.498 25s-25.5 37.667 -25.5 63c0 24.667 8.66699 45.5 26 62.5s38.666 25.5 63.999 25.5
s46.666 -8.5 63.999 -25.5s26 -37.833 26 -62.5c0 -25.333 -8.5 -46.333 -25.5 -63s-38.5 -25 -64.5 -25z" />
    <glyph glyph-name="j" unicode="j" horiz-adv-x="433" 
d="M313 867l0.00292969 -759.998c0 -88 -0.333008 -141.333 -1 -160c-4 -69.333 -17 -125.333 -39 -168c-46.667 -89.333 -130.667 -134 -252 -134c-64.667 0 -116.167 11.333 -154.5 34s-57.5 53 -57.5 91c0 20.667 5.66699 37.667 17 51s26 20 44 20
c32 0 53.667 -19.333 65 -58l14 -48c14 -45.333 43.667 -68 89 -68c23.333 0 44.166 6.16699 62.499 18.5s32.166 30.166 41.499 53.499c7.33301 17.333 12.666 44.333 15.999 81s5 85.667 5 147v624c0 75.333 -11.833 129.166 -35.5 161.499s-63.5 48.5 -119.5 48.5v25z
M234.003 1224c-26 0 -47.666 8.33301 -64.999 25s-26 37.667 -26 63c0 24.667 8.83301 45.5 26.5 62.5s39.167 25.5 64.5 25.5s46.666 -8.5 63.999 -25.5s26 -37.833 26 -62.5c0 -25.333 -8.5 -46.333 -25.5 -63s-38.5 -25 -64.5 -25z" />
    <glyph glyph-name="k" unicode="k" horiz-adv-x="1023" 
d="M325 404l182.001 199c37.333 42 62.333 73.167 75 93.5s19 40.833 19 61.5c0 28.667 -14.667 48.667 -44 60c-12.667 5.33301 -36.334 9 -71.001 11v21h385v-21c-48.667 0 -88 -8.33301 -118 -25s-69.333 -51.334 -118 -104.001l-40 -45l-109 -117l258 -290
c21.333 -23.333 35.333 -38.333 42 -45l45 -46c36 -36 62 -60.667 78 -74s35 -26 57 -38c25.333 -13.333 58 -21.666 98 -24.999v-20h-469v20c28 2.66699 47.667 7.33398 59 14.001c16 10 24 24 24 42c0 19.333 -9.66699 39.666 -29 60.999l-21 24l-242 268l-61 -67v-73
l1 -76c0 -45.333 2.66699 -78.5 8 -99.5s15.666 -38.5 30.999 -52.5c18.667 -18 53 -31.667 103 -41v-20h-441v20c40 5.33301 68.667 12.833 86 22.5s31.333 26.167 42 49.5c7.33301 15.333 12.5 38.5 15.5 69.5s4.5 75.833 4.5 134.5v785c0 68 -1.66699 116 -5 144
s-10.666 50.667 -21.999 68c-11.333 18.667 -25 32 -41 40s-39 13 -69 15v21l287 36v-1001z" />
    <glyph glyph-name="l" unicode="l" horiz-adv-x="496" 
d="M38 1369l287 36v-1116l1 -76c0 -45.333 2.66699 -78.5 8 -99.5s15.666 -38.5 30.999 -52.5c18.667 -18 53 -31.667 103 -41v-20h-441v20c40 5.33301 68.667 12.833 86 22.5s31.333 26.167 42 49.5c7.33301 15.333 12.5 38.5 15.5 69.5s4.5 75.833 4.5 134.5v785
c0 68 -1.66699 116 -5 144s-10.666 50.667 -21.999 68c-11.333 18.667 -25 32 -41 40s-39 13 -69 15v21z" />
    <glyph glyph-name="m" unicode="m" horiz-adv-x="1638" 
d="M312 865c12 -46.667 19.667 -93.001 23 -139.001c42 44.667 89.167 79 141.5 103s106.833 36 163.5 36c62.667 0 115 -16 157 -48c25.333 -19.333 54.333 -53 87 -101c50.667 51.333 101.667 89 153 113s106.666 36 165.999 36c80 0 145.167 -21.833 195.5 -65.5
s75.5 -100.834 75.5 -171.501v-339l1 -76c0 -45.333 2.66699 -78.5 8 -99.5s15.333 -38.5 30 -52.5c19.333 -18 54 -31.667 104 -41v-20h-441v20c40 5.33301 68.5 12.833 85.5 22.5s31.167 26.167 42.5 49.5c7.33301 15.333 12.5 38.5 15.5 69.5s4.5 75.5 4.5 133.5v191
c0 74 -2.33301 128 -7 162s-13.667 63 -27 87c-31.333 56.667 -85.333 85 -162 85c-82.667 0 -142.667 -30.667 -180 -92c-32.667 -52.667 -49 -134.667 -49 -246v-193l1 -76c0 -45.333 2.66699 -78.5 8 -99.5s15.333 -38.5 30 -52.5c18.667 -18 53.334 -31.667 104.001 -41
v-20h-441v20c40 5.33301 68.5 12.833 85.5 22.5s31.167 26.167 42.5 49.5c7.33301 15.333 12.5 38.5 15.5 69.5s4.5 75.5 4.5 133.5v185c0 78 -2.5 135.167 -7.5 171.5s-14.5 65.833 -28.5 88.5c-14.667 24 -35.334 42.833 -62.001 56.5s-56.667 20.5 -90 20.5
c-38 0 -73.667 -9 -107 -27s-59.666 -42.333 -78.999 -73c-18 -27.333 -30.833 -60.166 -38.5 -98.499s-11.5 -87.833 -11.5 -148.5v-183l1 -74c0 -45.333 2.66699 -78.5 8 -99.5s15.666 -38.5 30.999 -52.5c18.667 -18 53 -31.667 103 -41v-20h-441v20
c40 5.33301 68.667 12.833 86 22.5s31.333 26.167 42 49.5c7.33301 15.333 12.5 38.5 15.5 69.5s4.5 75.833 4.5 134.5v247c0 68.667 -1.66699 116.834 -5 144.501s-10.666 50.167 -21.999 67.5c-11.333 18.667 -25 32.167 -41 40.5s-39 13.5 -69 15.5v20z" />
    <glyph glyph-name="n" unicode="n" horiz-adv-x="1066" 
d="M311 867c9.33301 -38.667 14.001 -74.667 14.001 -108v-16c82.667 81.333 181 122 295 122c85.333 0 154 -20 206 -60c51.333 -39.333 77 -95.333 77 -168v-424c0 -45.333 2.66699 -78.5 8 -99.5s15.666 -38.5 30.999 -52.5c18.667 -18 53 -31.667 103 -41v-20h-441v20
c40 5.33301 68.667 12.833 86 22.5s31.333 26.167 42 49.5c7.33301 15.333 12.5 38.5 15.5 69.5s4.5 75.5 4.5 133.5v212c0 72.667 -2.5 126 -7.5 160s-14.5 61.333 -28.5 82c-15.333 23.333 -37.333 41.5 -66 54.5s-60.334 19.5 -95.001 19.5
c-37.333 0 -72.166 -7.33301 -104.499 -22s-57.833 -34.667 -76.5 -60c-20 -26.667 -33.167 -56.834 -39.5 -90.501s-9.5 -89.5 -9.5 -167.5v-196l1 -74c0 -45.333 2.66699 -78.5 8 -99.5s15.666 -38.5 30.999 -52.5c18.667 -18 53 -31.667 103 -41v-20h-441v20
c40 5.33301 68.667 12.833 86 22.5s31.333 26.167 42 49.5c7.33301 15.333 12.5 38.5 15.5 69.5s4.5 75.833 4.5 134.5v247c0 68.667 -1.66699 116.834 -5 144.501s-10.666 50.167 -21.999 67.5c-11.333 18.667 -25 32.167 -41 40.5s-39 13.5 -69 15.5v20z" />
    <glyph glyph-name="o" unicode="o" horiz-adv-x="1060" 
d="M61 422c0 108 40.002 204.333 120.002 289c97.333 102.667 213.666 154 348.999 154s251.333 -51.333 348 -154c80 -85.333 120 -182 120 -290c0 -106.667 -38 -201.667 -114 -285c-93.333 -102.667 -211.333 -154 -354 -154s-261 51.333 -355 154
c-36.667 40 -64.834 84.667 -84.501 134s-29.5 100 -29.5 152zM243.002 433c0 -116 25.999 -214.333 77.999 -295c58.667 -90 130.334 -135 215.001 -135c36 0 71 10 105 30s63.333 48 88 84c26 37.333 47 84.166 63 140.499s24 110.833 24 163.5
c0 54.667 -8.5 109.834 -25.5 165.501s-39.833 103.5 -68.5 143.5c-54.667 75.333 -121.667 113 -201 113c-75.333 0 -140.333 -39.667 -195 -119c-55.333 -79.333 -83 -176.333 -83 -291z" />
    <glyph glyph-name="p" unicode="p" horiz-adv-x="1073" 
d="M332 84l1.00195 -183.995v-69c0 -45.333 2.66699 -78.5 8 -99.5s15.666 -38.833 30.999 -53.5c18.667 -18 53 -31.333 103 -40v-20h-441v20c40 5.33301 68.667 12.666 86 21.999s31.333 25.666 42 48.999c7.33301 15.333 12.5 38.666 15.5 69.999s4.5 76 4.5 134v691
c0 75.333 -11.833 129 -35.5 161s-63.5 48 -119.5 48v25l291 41c7.33301 -32 11 -61.333 11 -88v-19c49.333 33.333 95.666 57.166 138.999 71.499s90.333 21.5 141 21.5c101.333 0 188 -30.333 260 -91c45.333 -38.667 80.333 -87 105 -145s37 -122 37 -192
c0 -72.667 -13.167 -140.334 -39.5 -203.001s-63.833 -114.334 -112.5 -155.001c-76 -64.667 -166.333 -97 -271 -97c-50 0 -93.167 7.33301 -129.5 22s-78.5 41.334 -126.5 80.001zM332.002 416.005c0 -92 3.99805 -161.333 11.998 -208s22.333 -84.334 43 -113.001
c18.667 -25.333 43.167 -45.666 73.5 -60.999s61.166 -23 92.499 -23c70.667 0 132.334 33.333 185.001 100c32 40 56.667 87.333 74 142s26 111.667 26 171c0 57.333 -8.16699 113.5 -24.5 168.5s-39.166 102.167 -68.499 141.5c-50 68 -111 102 -183 102
c-35.333 0 -68.666 -8.66699 -99.999 -26s-56.333 -41 -75 -71c-20.667 -32 -35 -71.833 -43 -119.5s-12 -115.5 -12 -203.5z" />
    <glyph glyph-name="q" unicode="q" horiz-adv-x="1036" 
d="M879 890v-1059c0 -45.333 2.66699 -78.5 8 -99.5s15.666 -38.833 30.999 -53.5c18.667 -18 53.334 -31.333 104.001 -40v-20h-442v20c40 5.33301 68.667 12.666 86 21.999s31.333 25.666 42 48.999c7.33301 15.333 12.666 38.666 15.999 69.999s5 76 5 134v194
c-28 -34.667 -55 -60 -81 -76c-50.667 -32.667 -111.667 -49 -183 -49c-101.333 0 -189.666 32 -264.999 96c-92.667 80 -139 192 -139 336c0 136.667 39.5 246 118.5 328s184.833 123 317.5 123c54.667 0 102 -8.66699 142 -26l52 -23c12.667 -5.33301 24.667 -8 36 -8
c34.667 0 65 27.333 91 82h61zM729 410.003c0 72 -4 137.833 -12 197.5s-18.333 103.167 -31 130.5c-16 33.333 -39 59.166 -69 77.499s-64.667 27.5 -104 27.5c-77.333 0 -141.333 -34.667 -192 -104c-27.333 -37.333 -48.666 -82.833 -63.999 -136.5
s-23 -110.5 -23 -170.5c0 -62.667 8.66699 -122.167 26 -178.5s42 -104.5 74 -144.5c25.333 -32.667 53.166 -57.5 83.499 -74.5s61.5 -25.5 93.5 -25.5c38.667 0 74.5 11.833 107.5 35.5s57.833 54.834 74.5 93.501c24 55.333 36 146 36 272z" />
    <glyph glyph-name="r" unicode="r" horiz-adv-x="712" 
d="M312 711c24 42 50.999 73.666 80.999 94.999c55.333 39.333 118.333 59 189 59c43.333 0 76.333 -9.66699 99 -29c20.667 -17.333 31 -38.666 31 -63.999c0 -18.667 -6.16699 -34 -18.5 -46s-28.166 -18 -47.499 -18c-22.667 0 -42.334 9.33301 -59.001 28l-31 34
c-24.667 26 -53.667 39 -87 39c-45.333 0 -80.666 -29.333 -105.999 -88s-38 -140.334 -38 -245.001v-187l1 -76c0 -45.333 2.66699 -78.5 8 -99.5s15.666 -38.5 30.999 -52.5c18.667 -18 53 -31.667 103 -41v-20h-441v20c40 5.33301 68.667 12.833 86 22.5
s31.333 26.167 42 49.5c7.33301 15.333 12.5 38.5 15.5 69.5s4.5 75.833 4.5 134.5v247c0 68.667 -1.66699 116.834 -5 144.501s-10.666 50.167 -21.999 67.5c-11.333 18.667 -25 32.167 -41 40.5s-39 13.5 -69 15.5v20l257 36c11.333 -60.667 17 -112.667 17 -156z" />
    <glyph glyph-name="s" unicode="s" horiz-adv-x="724" 
d="M96 0l-0.00292969 283.001h16c18.667 -69.333 42 -124.666 70 -165.999c51.333 -75.333 111.333 -113 180 -113c42 0 78.333 12.667 109 38c33.333 28 50 67.667 50 119c0 42 -12 78.667 -36 110c-13.333 16.667 -30.166 32 -50.499 46s-54.5 33.667 -102.5 59
c-84 44.667 -140 82 -168 112c-40 42.667 -60 92 -60 148c0 60 20 111.667 60 155c46 49.333 107 74 183 74c34 0 65.667 -6 95 -18l34 -15c10.667 -4 20 -6 28 -6c12.667 0 24.667 10 36 30h20l11 -227h-21c-7.33301 32 -15.166 57.667 -23.499 77s-20.166 38 -35.499 56
c-20.667 25.333 -44.667 45.166 -72 59.499s-54.333 21.5 -81 21.5c-37.333 0 -69.166 -13.5 -95.499 -40.5s-39.5 -60.167 -39.5 -99.5c0 -32.667 11.833 -62.167 35.5 -88.5s60.167 -50.5 109.5 -72.5l106 -48c63.333 -28.667 110.666 -64.334 141.999 -107.001
s47 -93 47 -151c0 -70 -22.667 -128 -68 -174c-52 -53.333 -118.667 -80 -200 -80c-44 0 -88.667 8.66699 -134 26c-29.333 11.333 -47 17.833 -53 19.5s-13.667 2.5 -23 2.5c-23.333 0 -41 -10 -53 -30h-16z" />
    <glyph glyph-name="t" unicode="t" horiz-adv-x="531" 
d="M285 850h254.999v-38h-255v-582c0 -70 12 -120 36 -150c12.667 -16.667 29.334 -29.667 50.001 -39s43 -14 67 -14c30 0 55 6.16699 75 18.5s42 34.833 66 67.5l15 -13c-22 -40 -52.833 -69.667 -92.5 -89s-89.167 -29 -148.5 -29c-78.667 0 -136 15.333 -172 46
c-19.333 16 -32 35.167 -38 57.5s-9 62.5 -9 120.5v606h-107v16c43.333 14 83.333 41 120 81c22 24.667 39.667 49.167 53 73.5s26 55.833 38 94.5l10 33h37v-260z" />
    <glyph glyph-name="u" unicode="u" horiz-adv-x="1048" 
d="M747 -17c-8.66699 40 -13 80.998 -13 122.998c-83.333 -82.667 -182 -124 -296 -124c-83.333 0 -150.333 20.333 -201 61c-49.333 40 -74 96.667 -74 170v348l-1 76c0 45.333 -2.66699 78.333 -8 99s-15.333 38.334 -30 53.001c-19.333 18 -54 31.333 -104 40v21h293
v-507c0 -71.333 2.5 -124.166 7.5 -158.499s14.167 -62.5 27.5 -84.5c14.667 -22.667 35.667 -40.5 63 -53.5s58 -19.5 92 -19.5c37.333 0 72.333 7.33301 105 22s58.334 34.667 77.001 60c19.333 26 32.166 56 38.499 90s9.5 90 9.5 168v196l-1 74
c0 45.333 -2.5 78.333 -7.5 99s-15.167 38.334 -30.5 53.001c-18.667 18 -53.334 31.333 -104.001 40v21h293v-543c0 -68.667 1.83301 -116.834 5.5 -144.501s10.834 -50.167 21.501 -67.5c12 -18.667 26 -32.167 42 -40.5s39 -13.5 69 -15.5v-20z" />
    <glyph glyph-name="v" unicode="v" horiz-adv-x="848" 
d="M-14 850h387.001v-21c-29.333 -6 -49.333 -12.667 -60 -20c-21.333 -13.333 -32 -34.666 -32 -63.999c0 -18 3.33301 -39 10 -63s19 -59 37 -105l162 -411l163 428c24 63.333 36 110.333 36 141c0 33.333 -10.333 57.666 -31 72.999c-10.667 8 -30.334 15 -59.001 21v21
h276v-21c-37.333 -9.33301 -67.333 -26 -90 -50c-28.667 -30 -61.667 -93 -99 -189l-231 -590h-54l-251 620c-38.667 95.333 -66.334 153 -83.001 173c-9.33301 10.667 -19.666 18.5 -30.999 23.5s-28 9.16699 -50 12.5v21z" />
    <glyph glyph-name="w" unicode="w" horiz-adv-x="1257" 
d="M-18 850l388.001 0.000976562v-21c-74.667 -4 -112 -33 -112 -87c0 -26.667 13.333 -82 40 -166l122 -373l170 451c13.333 34.667 20 62.667 20 84c0 57.333 -34.667 87.666 -104 90.999v21h382v-21c-32.667 -4.66699 -55.667 -11.667 -69 -21
c-21.333 -14.667 -32 -36.667 -32 -66c0 -23.333 6.33301 -56.333 19 -99l132 -440l156 396c20 51.333 30 90.333 30 117c0 36 -12.667 63.667 -38 83c-12.667 10.667 -35.667 20.667 -69 30v21h294v-21c-28.667 0 -54.334 -9.33301 -77.001 -28
c-14.667 -11.333 -28.5 -28.5 -41.5 -51.5s-28.5 -57.5 -46.5 -103.5l-21 -51l-237 -595h-35l-219 668l-264 -668h-34l-199 606l-24 73c-22 66 -44.667 107.667 -68 125c-13.333 10.667 -34.333 19 -63 25v21z" />
    <glyph glyph-name="x" unicode="x" horiz-adv-x="913" 
d="M40 850l388.996 0.000976562v-21c-23.333 -3.33301 -41.5 -10.5 -54.5 -21.5s-19.5 -25.167 -19.5 -42.5c0 -12 3.16699 -25.167 9.5 -39.5s19.5 -37.833 39.5 -70.5l25 -41l61 -100l120 153c22.667 28 37.834 49 45.501 63s11.5 27.667 11.5 41c0 32.667 -19 52 -57 58
v21h264v-21c-40.667 -8.66699 -78.167 -26 -112.5 -52s-72.166 -65 -113.499 -117l-137 -174l202 -316c31.333 -48.667 60.333 -84.667 87 -108c16 -13.333 30.5 -22.833 43.5 -28.5s29.833 -10.167 50.5 -13.5v-20h-401v20c24 4 41 8.33301 51 13c20 10.667 30 26 30 46
s-12.333 48.667 -37 86l-22 34l-103 161l-132 -163c-23.333 -28.667 -39 -50.167 -47 -64.5s-12 -28.166 -12 -41.499c0 -36.667 27.667 -60.334 83 -71.001v-20h-281v20c18.667 3.33301 34.167 7.66602 46.5 12.999s26.5 14 42.5 26c27.333 21.333 62 58.333 104 111
l178 221l-187 283c-37.333 56 -66.166 93.5 -86.499 112.5s-47.166 33.167 -80.499 42.5v21z" />
    <glyph glyph-name="y" unicode="y" horiz-adv-x="856" 
d="M-3 850l387.001 0.00292969v-21c-27.333 -4 -47 -9.33301 -59 -16c-26 -14.667 -39 -37.334 -39 -68.001c0 -26.667 13.667 -74.334 41 -143.001l168 -429l146 361c36 90 54 153.667 54 191c0 30 -8.33301 53.833 -25 71.5s-41 28.5 -73 32.5v21h286v-21
c-28.667 -8 -49.834 -16.333 -63.501 -25s-26.834 -22.334 -39.501 -41.001c-19.333 -29.333 -50 -95 -92 -197l-290 -704c-34.667 -84 -62.667 -138.667 -84 -164c-36 -42 -81.667 -63 -137 -63c-35.333 0 -63.833 6.83301 -85.5 20.5s-32.5 31.5 -32.5 53.5
c0 17.333 6.33301 31.166 19 41.499s29.334 15.5 50.001 15.5c17.333 0 37.333 -4.66699 60 -14c22 -8.66699 36.167 -14 42.5 -16s13.833 -3 22.5 -3c41.333 0 75 31 101 93l31 76c13.333 32 20 56.667 20 74c0 24.667 -12.667 67.667 -38 129l-208 499l-30 72
c-18 42.667 -32 73 -42 91s-20 31 -30 39c-16.667 12.667 -36.667 20.334 -60 23.001v21z" />
    <glyph glyph-name="z" unicode="z" horiz-adv-x="822" 
d="M106 850l667.999 0.000976562v-21l-558 -802h135c76.667 0 139.667 3.66699 189 11s88 18.666 116 33.999c54 30 93.667 83.667 119 161l20 -3l-21 -230h-747v20l558 803h-219c-53.333 0 -94.5 -5 -123.5 -15s-54.833 -27.667 -77.5 -53
c-21.333 -24.667 -41.666 -63.667 -60.999 -117l-19 2z" />
    <glyph glyph-name="braceleft" unicode="{" horiz-adv-x="601" 
d="M78 608l-0.00195312 20.998c36 5.33301 66 15.333 90 30c20.667 12.667 35.334 29.334 44.001 50.001s13 49.667 13 87l-1 101l-3 162c0 104 7 177.667 21 221c12.667 38.667 31.834 69.334 57.501 92.001s58.167 37.334 97.5 44.001c31.333 6 61 9 89 9l41 1l15 1v-28
c-28.667 -2 -50.5 -5.66699 -65.5 -11s-29.833 -14.333 -44.5 -27c-18 -15.333 -31.5 -32.666 -40.5 -51.999s-14.833 -44 -17.5 -74c-2 -21.333 -3 -66.333 -3 -135l1 -185c0 -77.333 -3.16699 -130.333 -9.5 -159s-20.5 -55 -42.5 -79c-26 -28 -61.333 -46 -106 -54v-8
c38.667 -5.33301 71.334 -21.333 98.001 -48c20.667 -20 35.5 -44.167 44.5 -72.5s13.5 -64.5 13.5 -108.5l1 -104v-211c0 -74 3.16699 -126.667 9.5 -158s19.166 -57.666 38.499 -78.999c14.667 -16.667 33 -29.667 55 -39s44.667 -14 68 -14v-27l-22 1
c-72 0 -128.667 7.66699 -170 23c-44.667 17.333 -77.667 48.166 -99 92.499s-32 104.166 -32 179.499l1 108l3 166l3 118c0 53.333 -11.167 92.666 -33.5 117.999s-60.5 41.333 -114.5 48z" />
    <glyph glyph-name="bar" unicode="|" horiz-adv-x="1024" 
d="M456 1524h113v-2024h-113v2024z" />
    <glyph glyph-name="braceright" unicode="}" horiz-adv-x="601" 
d="M523 608c-53.333 -6.66699 -91.3369 -22.667 -114.004 -48s-34 -64.333 -34 -117l3 -119l3 -166l1 -110c0 -74.667 -10.667 -134 -32 -178s-54.333 -74.667 -99 -92c-41.333 -15.333 -97.666 -23 -168.999 -23l-23 -1v27c24 0 46.833 4.66699 68.5 14
s39.834 22.333 54.501 39c24 26.667 38.667 67.334 44 122.001c2.66699 20.667 4 82.334 4 185.001v141l1 104c0 44 4.5 80.167 13.5 108.5s23.833 52.5 44.5 72.5c27.333 26.667 60 42.667 98 48v8c-44.667 8 -80 26 -106 54c-22 24 -36.167 50.333 -42.5 79
s-9.5 82.334 -9.5 161.001l1 151v43c0 61.333 -1 102.666 -3 123.999c-2.66699 30 -8.5 54.667 -17.5 74s-22.5 36.666 -40.5 51.999c-14.667 12.667 -29.5 21.667 -44.5 27s-36.833 9 -65.5 11v28l15 -1l41 -1c28 0 57.667 -3 89 -9
c39.333 -6.66699 71.833 -21.334 97.5 -44.001s44.834 -53.334 57.501 -92.001c14 -43.333 21 -116.333 21 -219l-3 -164l-1 -102c0 -37.333 4.33301 -66.166 13 -86.499s23.334 -36.833 44.001 -49.5c24 -14.667 54 -24.667 90 -30v-21z" />
    <glyph glyph-name="asciitilde" unicode="~" horiz-adv-x="1365" 
d="M1082 1502l30.002 -19.001c-32.667 -58 -74.834 -105.333 -126.501 -142s-102.5 -55 -152.5 -55l-64 9c32 -3.33301 53.333 -6.33301 64 -9l-89 16l-37 12l-63 20c-46.667 15.333 -81.667 25.5 -105 30.5s-47.333 7.5 -72 7.5c-32.667 0 -60.5 -6.66699 -83.5 -20
s-50.833 -39 -83.5 -77l-17 -20l-30 19c27.333 44.667 60.333 85.334 99 122.001c26 24.667 55 43.667 87 57s64.333 20 97 20c37.333 0 98.666 -14.667 183.999 -44c73.333 -25.333 127 -38 161 -38c74.667 0 141.667 37 201 111z" />
    <glyph glyph-name="nonbreakingspace" unicode="&#xa0;" 
 />
    <glyph glyph-name="exclamdown" unicode="&#xa1;" horiz-adv-x="525" 
d="M257 498l17.999 0.000976562l94 -747c8 -60.667 12 -108 12 -142c0 -43.333 -11 -77.5 -33 -102.5s-52.333 -37.5 -91 -37.5c-37.333 0 -66.666 12.167 -87.999 36.5s-32 57.166 -32 98.499c0 29.333 4 72 12 128zM267.999 865.001c33.333 0 61.833 -11.833 85.5 -35.5
s35.5 -52.167 35.5 -85.5s-11.833 -61.833 -35.5 -85.5s-52.167 -35.5 -85.5 -35.5s-61.833 11.833 -85.5 35.5s-35.5 52.167 -35.5 85.5s11.667 61.833 35 85.5s52 35.5 86 35.5z" />
    <glyph glyph-name="cent" unicode="&#xa2;" 
d="M581 1042h14.001c96 0 171.333 -21.667 226 -65c33.333 -26.667 50 -56 50 -88c0 -20.667 -7 -38.334 -21 -53.001s-31 -22 -51 -22c-43.333 0 -75.333 31.667 -96 95c-12 36.667 -22.667 61.334 -32 74.001s-24.666 22.667 -45.999 30c-13.333 5.33301 -28 8 -44 8v-815
c18.667 -3.33301 35 -5 49 -5c63.333 0 116 20.333 158 61c21.333 21.333 41.666 56 60.999 104l20 -7c-23.333 -70 -60 -121.333 -110 -154c-20.667 -14 -47.334 -25.167 -80.001 -33.5s-65.334 -12.5 -98.001 -12.5v-171h-44v172c-71.333 0 -137.333 16.333 -198 49
c-64 34.667 -114 84.5 -150 149.5s-54 137.833 -54 218.5c0 81.333 18 157.5 54 228.5s84.333 125.833 145 164.5c60.667 39.333 128.334 62.333 203.001 69v187h44v-184zM537.001 218v798c-48.667 -12 -90.667 -39.333 -126 -82
c-29.333 -34.667 -53.833 -83.167 -73.5 -145.5s-29.5 -122.833 -29.5 -181.5c0 -64 12.667 -126.167 38 -186.5s59.333 -109.5 102 -147.5c25.333 -22.667 55 -41 89 -55z" />
    <glyph glyph-name="sterling" unicode="&#xa3;" 
d="M329 546l-254.002 -0.00195312v34h254v79c0 128.667 10.5 237.5 31.5 326.5s54.833 167.167 101.5 234.5c40 57.333 87.5 101.5 142.5 132.5s113.167 46.5 174.5 46.5c85.333 0 154.666 -28 207.999 -84c24 -24.667 42.5 -53.5 55.5 -86.5s19.5 -66.833 19.5 -101.5
c0 -67.333 -21.667 -123 -65 -167s-98.666 -66 -165.999 -66c-58.667 0 -104.167 18.833 -136.5 56.5s-48.5 90.834 -48.5 159.501l20 1c12.667 -50 26.334 -86 41.001 -108c26.667 -38.667 62.667 -58 108 -58c44 0 79.833 19 107.5 57s41.5 87.333 41.5 148
c0 34 -5 65.667 -15 95s-24 53.333 -42 72c-35.333 36.667 -80.333 55 -135 55c-44 0 -83.667 -12.667 -119 -38s-65.333 -62.333 -90 -111c-23.333 -47.333 -41.666 -108.666 -54.999 -183.999s-20 -155.666 -20 -240.999c0 -36.667 -2.66699 -102.334 -8 -197.001l-1 -21
h292v-34h-295c-8 -96.667 -20 -172.834 -36 -228.501s-41.667 -112.167 -77 -169.5c64.667 -24 125.5 -42.167 182.5 -54.5s108.167 -18.5 153.5 -18.5c100 0 176.667 24 230 72c20 17.333 36.333 37.666 49 60.999s24.667 55 36 95l19 -2c0 -100 -15.333 -174.333 -46 -223
c-48 -74.667 -130.667 -112 -248 -112c-72 0 -156 16 -252 48c-70.667 24 -129.334 49 -176.001 75c-36.667 -41.333 -71 -70.333 -103 -87c-46.667 -24 -97.667 -36 -153 -36c-54.667 0 -97.334 12.333 -128.001 37c-28.667 24 -43 52.333 -43 85
c0 34.667 16.333 62.834 49 84.501s75.334 32.5 128.001 32.5c31.333 0 68.333 -3.5 111 -10.5s81.667 -15.833 117 -26.5c12.667 34.667 21.334 66.334 26.001 95.001c9.33301 57.333 14 145 14 263v20zM260.998 112.998c-68 44.667 -129.669 66.998 -185.002 66.998
c-27.333 0 -50.333 -9 -69 -27s-28 -40.333 -28 -67c0 -27.333 8.83301 -49.666 26.5 -66.999s40.5 -26 68.5 -26c32.667 0 64.834 10.333 96.501 31s61.834 50.334 90.501 89.001z" />
    <glyph glyph-name="currency" unicode="&#xa4;" 
d="M773 956l135.999 135.001l26 -26l-136 -136c69.333 -81.333 104 -171 104 -269c0 -78.667 -21.667 -151.334 -65 -218.001c-8.66699 -14 -21.667 -31.333 -39 -52l136 -135l-26 -26l-135 135c-84.667 -68.667 -174.667 -103 -270 -103
c-96.667 0 -186.667 34.333 -270 103l-136 -135l-26 26l136 136c-69.333 81.333 -104 171.333 -104 270c0 97.333 34.667 187 104 269l-136 135l26 26l136 -135c80 69.333 170 104 270 104c98.667 0 188.334 -34.667 269.001 -104zM503.999 368.001
c35.333 0 70.333 6.5 105 19.5s65 31.167 91 54.5c30 27.333 53.5 60.166 70.5 98.499s25.5 78.166 25.5 119.499c0 80.667 -28.5 149.667 -85.5 207s-125.833 86 -206.5 86c-81.333 0 -150.5 -28.667 -207.5 -86s-85.5 -126.333 -85.5 -207
c0 -41.333 8.5 -81.166 25.5 -119.499s40.5 -71.166 70.5 -98.499c26 -23.333 56.5 -41.5 91.5 -54.5s70.167 -19.5 105.5 -19.5z" />
    <glyph glyph-name="yen" unicode="&#xa5;" 
d="M433 553l-339.002 -0.000976562v34h329c-6 28.667 -14 58.334 -24 89.001l-16 44l-11 34h-278v34h264l-137 351c-16.667 44 -33 78 -49 102s-36.333 45.333 -61 64c-18 14 -35.333 23.667 -52 29s-39.334 9 -68.001 11v20h496v-20
c-45.333 -4.66699 -74.666 -10.334 -87.999 -17.001c-12.667 -6 -23 -15.833 -31 -29.5s-12 -28.167 -12 -43.5c0 -16.667 4.33301 -36.334 13 -59.001l18 -43c3.33301 -8 8.33301 -21.333 15 -40l159 -425l135 366c32.667 87.333 49 143.333 49 168c0 20.667 -4 40 -12 58
s-18.667 31.667 -32 41c-20 14 -48 22 -84 24v20h385v-20c-32.667 -6 -57.834 -12.667 -75.501 -20s-34.834 -17.666 -51.501 -30.999c-41.333 -34 -80.333 -99.333 -117 -196l-117 -310h279v-34h-292c-14 -39.333 -22.5 -67.5 -25.5 -84.5s-4.5 -44.5 -4.5 -82.5h322v-34
h-322v-239c0 -73.333 3 -125.166 9 -155.499s18.667 -56.833 38 -79.5c16.667 -19.333 35.834 -33.5 57.501 -42.5s49.834 -14.5 84.501 -16.5v-20h-544v20c34.667 2 62.834 7.5 84.501 16.5s40.834 23.167 57.501 42.5c18 21.333 30.5 48.833 37.5 82.5
s10.5 84.5 10.5 152.5v195l-2 31z" />
    <glyph glyph-name="brokenbar" unicode="&#xa6;" horiz-adv-x="106" 
d="M0 1365h106v-686h-106v686zM0 314h106v-655h-106v655z" />
    <glyph glyph-name="section" unicode="&#xa7;" 
d="M774 244c40.667 -56.667 61.0039 -114.331 61.0039 -172.998c0 -45.333 -12.333 -91.333 -37 -138c-32.667 -60.667 -78.334 -108 -137.001 -142s-124.334 -51 -197.001 -51c-52.667 0 -103.667 8.66699 -153 26s-90 40.666 -122 69.999
c-24.667 23.333 -44.167 50.5 -58.5 81.5s-21.5 61.833 -21.5 92.5c0 29.333 8.16699 52.833 24.5 70.5s37.833 26.5 64.5 26.5c24.667 0 45 -8.33301 61 -25s24 -37.334 24 -62.001c0 -16.667 -3.66699 -31.667 -11 -45l-19 -32c-8 -14 -12 -28.667 -12 -44
c0 -35.333 23.167 -66.166 69.5 -92.499s100.833 -39.5 163.5 -39.5c71.333 0 127.833 19 169.5 57s62.5 89.667 62.5 155c0 52 -16 100.333 -48 145s-86 94 -162 148l-223 159c-58 42 -99.833 82.167 -125.5 120.5s-38.5 80.5 -38.5 126.5c0 53.333 18.333 101 55 143
c15.333 17.333 42.666 42.333 81.999 75c-40.667 60 -61 122 -61 186c0 88 32 160.167 96 216.5s145.667 84.5 245 84.5c50.667 0 99.5 -7.83301 146.5 -23.5s85.167 -37.167 114.5 -64.5c39.333 -35.333 59 -74.333 59 -117c0 -24 -8 -44.333 -24 -61s-35.667 -25 -59 -25
c-22 0 -40.333 7.16699 -55 21.5s-22 32.5 -22 54.5c0 10.667 1.33301 20.667 4 30l10 32c1.33301 6.66699 2 14.667 2 24c0 31.333 -15.667 56.166 -47 74.499s-74.333 27.5 -129 27.5c-68.667 0 -123.334 -17.167 -164.001 -51.5s-61 -80.166 -61 -137.499
c0 -41.333 12.167 -82.5 36.5 -123.5s59.166 -78.833 104.499 -113.5l67 -51l202 -152l58 -42c40.667 -30.667 72.167 -66.334 94.5 -107.001s33.5 -82.667 33.5 -126c0 -40 -7.16699 -72.167 -21.5 -96.5s-48.166 -61.5 -101.499 -111.5zM757.004 268.003
c13.333 30.667 20 61.667 20 93c0 76 -32 138 -96 186l-46 33l-214 161l-51 38c-46 34 -83.333 67.333 -112 100c-12 -24 -20.333 -44 -25 -60s-7 -33.667 -7 -53c0 -36.667 8.83301 -68 26.5 -94s50.167 -56.667 97.5 -92l222 -162l54 -39
c40 -29.333 83.667 -66.333 131 -111z" />
    <glyph glyph-name="dieresis" unicode="&#xa8;" horiz-adv-x="1024" 
d="M342 1240c24.667 0 45.667 -8.66699 63 -26s26 -38.333 26 -63c0 -24 -8.66699 -44.667 -26 -62s-38.333 -26 -63 -26s-45.667 8.5 -63 25.5s-26 37.833 -26 62.5s8.66699 45.667 26 63s38.333 26 63 26zM683 1240c24 0 44.667 -8.66699 62 -26s26 -38 26 -62
c0 -24.667 -8.66699 -45.5 -26 -62.5s-38 -25.5 -62 -25.5c-24.667 0 -45.5 8.5 -62.5 25.5s-25.5 37.833 -25.5 62.5c0 24 8.5 44.667 25.5 62s37.833 26 62.5 26z" />
    <glyph glyph-name="copyright" unicode="&#xa9;" horiz-adv-x="1638" 
d="M1140 1075l8 -261h-22c-4.66699 12.667 -8.33398 22 -11.001 28c-18 48 -33.333 82.5 -46 103.5s-30.334 41.833 -53.001 62.5c-40.667 36.667 -88.334 55 -143.001 55c-42.667 0 -80 -9 -112 -27c-28 -15.333 -54.167 -38 -78.5 -68s-44.166 -64 -59.499 -102
c-22 -54 -33 -115.333 -33 -184c0 -112 26.667 -200.5 80 -265.5s126.333 -97.5 219 -97.5c43.333 0 82.5 7.33301 117.5 22s62.167 35 81.5 61c22.667 31.333 39 74.333 49 129l22 -3c-7.33301 -63.333 -24.666 -113 -51.999 -149c-52 -70 -138.333 -105 -259 -105
c-124.667 0 -224 35.833 -298 107.5s-111 167.5 -111 287.5c0 68.667 13 132.5 39 191.5s62.333 106.167 109 141.5c36 27.333 79 49 129 65s99.667 24 149 24c48 0 98.667 -8.66699 152 -26l48 -15c8.66699 -3.33301 16.334 -5 23.001 -5c7.33301 0 13 2 17 6
s8.66699 12 14 24h21zM820 -34c-102 0 -200.672 21 -296.005 63s-176 99.667 -242 173c-59.333 66 -105.166 140.667 -137.499 224s-48.5 169 -48.5 257s16 173.5 48 256.5s78 157.167 138 222.5c68.667 76 149.834 134.5 243.501 175.5s191.834 61.5 294.501 61.5
c102 0 199.833 -20.5 293.5 -61.5s174.834 -99.5 243.501 -175.5c60 -65.333 106 -139.5 138 -222.5s48 -168.5 48 -256.5s-16 -173.667 -48 -257s-77.667 -158 -137 -224c-66.667 -73.333 -147.667 -131 -243 -173s-193.666 -63 -294.999 -63zM819.995 41
c76.667 0 152.668 14.5 228.001 43.5s141 69.167 197 120.5c66 60 117.5 132 154.5 216s55.5 171.333 55.5 262s-18.333 177.5 -55 260.5s-88.334 154.833 -155.001 215.5c-58.667 53.333 -124.667 94.166 -198 122.499s-149 42.5 -227 42.5
c-78.667 0 -154.667 -14.167 -228 -42.5s-139 -69.166 -197 -122.499c-67.333 -60.667 -119.166 -132.5 -155.499 -215.5s-54.5 -169.833 -54.5 -260.5s18.333 -178 55 -262s88 -156 154 -216c56 -51.333 121.667 -91.5 197 -120.5s151.666 -43.5 228.999 -43.5z" />
    <glyph glyph-name="ordfeminine" unicode="&#xaa;" horiz-adv-x="752" 
d="M635 927l16.9971 -9.00391c-15.333 -45.333 -50.666 -68 -105.999 -68c-26.667 0 -48.667 5 -66 15s-33 26.667 -47 50l-10 -8c-26 -21.333 -49.333 -36.166 -70 -44.499s-45.667 -12.5 -75 -12.5c-46 0 -82.5 10.833 -109.5 32.5s-40.5 50.834 -40.5 87.501
c0 34 11.333 62.333 34 85c12 12.667 26.167 22.834 42.5 30.501s39.833 15.167 70.5 22.5c65.333 16 107.166 31.333 125.499 46s27.5 40.334 27.5 77.001c0 45.333 -8.66699 78.333 -26 99s-40 31 -68 31c-34 0 -57.667 -15 -71 -45l-16 -34
c-8.66699 -20 -24.334 -30 -47.001 -30c-15.333 0 -28.166 4.83301 -38.499 14.5s-15.5 21.5 -15.5 35.5c0 22.667 17 41.667 51 57s76 23 126 23c26 0 52.833 -3.16699 80.5 -9.5s50.834 -14.5 69.501 -24.5c22.667 -12.667 37.834 -27 45.501 -43s11.5 -42 11.5 -78v-219
c0 -45.333 3.5 -75.833 10.5 -91.5s20.5 -23.5 40.5 -23.5c12.667 0 22.334 2.16699 29.001 6.5s15 13.5 25 27.5zM428.997 1147c-19.333 -15.333 -41.333 -29.333 -66 -42c-29.333 -14.667 -49.833 -26 -61.5 -34s-22.167 -17.333 -31.5 -28
c-18.667 -22.667 -28 -48.667 -28 -78c0 -24.667 7.16699 -45.167 21.5 -61.5s32.5 -24.5 54.5 -24.5c18.667 0 36.5 5.83301 53.5 17.5s30.167 27.167 39.5 46.5c12 26 18 64 18 114v90zM676.997 733.996v-55h-602v55h602z" />
    <glyph glyph-name="guillemotleft" unicode="&#xab;" horiz-adv-x="812" 
d="M268 436l123.001 -256.001c6 -13.333 9 -22.666 9 -27.999l-15 -13c-7.33301 0 -17 6 -29 18l-253 250c-17.333 17.333 -26 28.333 -26 33c0 5.33301 8 15 24 29l262 235l12 11c4.66699 4 9.66699 6 15 6c3.33301 0 6.66602 -1.66699 9.99902 -5s5 -7 5 -11
c0 -7.33301 -3 -16.333 -9 -27zM596.001 435.999l121.999 -256.001c6.66699 -13.333 10 -22.666 10 -27.999l-15 -13c-7.33301 0 -17 6 -29 18l-253 250c-17.333 17.333 -26 28.333 -26 33c0 5.33301 7.66699 15 23 29l263 235l12 11c4.66699 4 9.33398 6 14.001 6
c4 0 7.5 -1.66699 10.5 -5s4.5 -7 4.5 -11c0 -7.33301 -2.66699 -16.333 -8 -27z" />
    <glyph glyph-name="logicalnot" unicode="&#xac;" horiz-adv-x="1024" 
d="M754 0v460h-682v86h879v-546h-197z" />
    <glyph glyph-name="registered" unicode="&#xae;" horiz-adv-x="1638" 
d="M718 670l0.00195312 -194.999c0 -37.333 2.16699 -65 6.5 -83s12.166 -33 23.499 -45c19.333 -18.667 50.333 -29 93 -31v-22h-383v22c42.667 2 73.667 12.333 93 31c11.333 12 19.166 27 23.499 45s6.5 45.667 6.5 83v415c0 38 -2.16699 66 -6.5 84
s-12.166 32.667 -23.499 44c-21.333 20.667 -52.333 31 -93 31v23h287c70 0 120.333 -1.66699 151 -5s59 -10 85 -20c40 -15.333 70.833 -38.333 92.5 -69s32.5 -66.334 32.5 -107.001c0 -47.333 -15 -87.333 -45 -120s-72.333 -55 -127 -67
c22 -9.33301 38.5 -20.666 49.5 -33.999s27.167 -41.333 48.5 -84c60.667 -120.667 101.667 -193.334 123 -218.001c9.33301 -12 18.5 -20 27.5 -24s22.167 -6.66699 39.5 -8v-22h-202c-10.667 22 -17.334 36 -20.001 42l-41 89c-56 122 -103 197 -141 225
c-18.667 13.333 -44 20 -76 20h-24zM718.002 692.001l18 0.000976562c48 0 82.167 2.5 102.5 7.5s39.166 15.5 56.499 31.5c40 36.667 60 82 60 136c0 29.333 -5.66699 56.666 -17 81.999s-27.333 46 -48 62c-16 12.667 -35.167 21.5 -57.5 26.5s-54.166 7.5 -95.499 7.5
h-19v-353zM820.002 -33.998c-102 0 -200.672 21 -296.005 63s-176 99.667 -242 173c-59.333 66 -105.166 140.667 -137.499 224s-48.5 169 -48.5 257s16 173.5 48 256.5s78 157.167 138 222.5c68.667 76 149.834 134.5 243.501 175.5s191.834 61.5 294.501 61.5
c102 0 199.833 -20.5 293.5 -61.5s174.834 -99.5 243.501 -175.5c60 -65.333 106 -139.5 138 -222.5s48 -168.5 48 -256.5s-16 -173.667 -48 -257s-77.667 -158 -137 -224c-66.667 -73.333 -147.667 -131 -243 -173s-193.666 -63 -294.999 -63zM819.997 41.002
c76.667 0 152.668 14.5 228.001 43.5s141 69.167 197 120.5c66 60 117.5 132 154.5 216s55.5 171.333 55.5 262s-18.333 177.5 -55 260.5s-88.334 154.833 -155.001 215.5c-58.667 53.333 -124.667 94.166 -198 122.499s-149 42.5 -227 42.5
c-78.667 0 -154.667 -14.167 -228 -42.5s-139 -69.166 -197 -122.499c-67.333 -60.667 -119.166 -132.5 -155.499 -215.5s-54.5 -169.833 -54.5 -260.5s18.333 -178 55 -262s88 -156 154 -216c56 -51.333 121.667 -91.5 197 -120.5s151.666 -43.5 228.999 -43.5z" />
    <glyph glyph-name="degree" unicode="&#xb0;" horiz-adv-x="560" 
d="M485 1181c0 -57.333 -19.8311 -106.001 -59.498 -146.001s-87.834 -60 -144.501 -60c-24.667 0 -49.5 4.83301 -74.5 14.5s-46.833 22.834 -65.5 39.501c-20.667 18.667 -36.834 41.334 -48.501 68.001s-17.5 54.667 -17.5 84c0 67.333 26.667 120.666 80 159.999
c38 28 80.333 42 127 42c55.333 0 103 -19.833 143 -59.5s60 -87.167 60 -142.5zM431.002 1178c0 43.333 -14.666 79.666 -43.999 108.999s-65.666 44 -108.999 44c-40.667 0 -75.834 -14.667 -105.501 -44s-44.5 -64.666 -44.5 -105.999c0 -42 15 -77.833 45 -107.5
s66 -44.5 108 -44.5c41.333 0 76.666 14.667 105.999 44s44 64.333 44 105z" />
    <glyph glyph-name="plusminus" unicode="&#xb1;" 
d="M472 638h-406v62h406v385h62v-385h406v-62h-406v-385h-62v385zM66 154h874v-62h-874v62z" />
    <glyph glyph-name="twosuperior" unicode="&#xb2;" horiz-adv-x="653" 
d="M543 546h-484.998v18c51.333 44 102.166 92.667 152.499 146s93.5 103.666 129.5 150.999c52 68 88.833 125.667 110.5 173s32.5 93.333 32.5 138c0 49.333 -16.333 92.333 -49 129s-71.334 55 -116.001 55c-47.333 0 -86.166 -16 -116.499 -48s-45.5 -73 -45.5 -123
c0 -46 16 -84 48 -114c15.333 -14 32 -25 50 -33s33.333 -11 46 -9c3.33301 0.666992 9.33301 3 18 7l6 -17c-32 -16 -59.667 -24 -83 -24c-42 0 -77.5 16.333 -106.5 49s-43.5 72.334 -43.5 119.001c0 61.333 23.167 112.166 69.5 152.499s104.833 60.5 175.5 60.5
c84 0 149.667 -24.667 197 -74c19.333 -20.667 34.666 -45 45.999 -73s17 -56.667 17 -86c0 -62 -22 -124.333 -66 -187c-20.667 -30.667 -45.5 -60.167 -74.5 -88.5s-70.5 -64.166 -124.5 -107.499l-123 -100l-13 -12h211c38 0 65.5 2.33301 82.5 7s32.167 14 45.5 28
c15.333 16 28 40 38 72l21 -4z" />
    <glyph glyph-name="threesuperior" unicode="&#xb3;" horiz-adv-x="653" 
d="M417 986c57.333 -15.333 100.666 -40.501 129.999 -75.501s44 -78.5 44 -130.5c0 -28.667 -6.16699 -57.334 -18.5 -86.001s-29.166 -54 -50.499 -76c-26 -26 -58.5 -46.333 -97.5 -61s-80.833 -22 -125.5 -22c-37.333 0 -72.333 5.16699 -105 15.5
s-59.334 24.5 -80.001 42.5c-16 14 -28.5 30.833 -37.5 50.5s-13.5 39.5 -13.5 59.5c0 35.333 12.333 65 37 89s55.334 36 92.001 36l4 -17c-18 -15.333 -30.5 -30.666 -37.5 -45.999s-10.5 -34 -10.5 -56c0 -42.667 15.5 -79 46.5 -109s68.5 -45 112.5 -45
c57.333 0 102 20.333 134 61c34 42.667 51 95.667 51 159c0 29.333 -5.83301 58.666 -17.5 87.999s-26.5 52.333 -44.5 69c-21.333 20 -45.666 30 -72.999 30c-10 0 -24.333 -6.33301 -43 -19c-22 -14.667 -42.333 -22 -61 -22c-12 0 -22.333 3.83301 -31 11.5
s-13 17.167 -13 28.5c0 12.667 5.33301 23.167 16 31.5s24 12.5 40 12.5c10 0 18 -0.666992 24 -2l24 -7c6.66699 -2 14.667 -3 24 -3c26.667 0 52.667 12 78 36c16.667 16 29.667 35.5 39 58.5s14 46.833 14 71.5c0 56.667 -14.5 103.667 -43.5 141s-65.167 56 -108.5 56
c-34 0 -61.5 -10.167 -82.5 -30.5s-31.5 -47.166 -31.5 -80.499c0 -22.667 5.83301 -42.167 17.5 -58.5s27.167 -26.833 46.5 -31.5l2 -17c-16.667 -6 -32.334 -9 -47.001 -9c-31.333 0 -56.5 8.83301 -75.5 26.5s-28.5 40.834 -28.5 69.501
c0 42.667 20.167 78.5 60.5 107.5s89.5 43.5 147.5 43.5c32 0 63.667 -5.33301 95 -16s58 -24.667 80 -42c44.667 -37.333 67 -86.333 67 -147c0 -40.667 -12.5 -76.5 -37.5 -107.5s-62.5 -56.833 -112.5 -77.5z" />
    <glyph glyph-name="acute" unicode="&#xb4;" horiz-adv-x="1024" 
d="M396 1000l183 273h186l-320 -273h-49z" />
    <glyph glyph-name="mu" unicode="&#xb5;" horiz-adv-x="913" 
d="M936 106l-0.000976562 -32.999l-170 -93c-2.66699 -1.33301 -5.66699 -2 -9 -2c-12.667 0 -27.334 5.33301 -44.001 16c-14.667 10 -26 23.667 -34 41s-14.667 42.666 -20 75.999c-1.33301 8 -3.66602 20.333 -6.99902 37c-58.667 -56.667 -102 -95 -130 -115
c-58.667 -42 -119 -63 -181 -63c-72.667 0 -129.667 23.667 -171 71c-21.333 24.667 -40 61 -56 109v-52c0 -43.333 0.833008 -75.333 2.5 -96s5.83398 -53 12.501 -97l14 -93c6.66699 -45.333 10 -78.666 10 -99.999c0 -28.667 -7.33301 -52.5 -22 -71.5
s-33 -28.5 -55 -28.5c-23.333 0 -42.666 9 -57.999 27s-23 40.667 -23 68c0 26 5 67 15 123c12 71.333 24.667 177 38 317c12.667 130 19 270.333 19 421v369h150v-587c0 -69.333 4.5 -121.333 13.5 -156s24.833 -63 47.5 -85c31.333 -28.667 71.333 -43 120 -43
s96.334 16 143.001 48c31.333 21.333 65.666 59 102.999 113v710h149v-696c0 -58.667 4.66699 -98.334 14 -119.001c11.333 -25.333 33.666 -38 66.999 -38c18 0 38.667 7.33301 62 22z" />
    <glyph glyph-name="paragraph" unicode="&#xb6;" 
d="M966 1365l-0.00195312 -22.998c-60 -6 -104.333 -25.333 -133 -58c-18.667 -21.333 -31.667 -48.833 -39 -82.5s-11 -83.834 -11 -150.501v-1016c0 -41.333 2.16699 -75.666 6.5 -102.999s11.5 -50 21.5 -68c15.333 -26.667 33.833 -45.834 55.5 -57.501
s54.834 -20.167 99.501 -25.5v-23h-704v23c60 6.66699 104.333 26 133 58c19.333 21.333 32.5 48.5 39.5 81.5s10.5 83.5 10.5 151.5v553h-43c-74 0 -137.333 18.333 -190 55c-45.333 32 -80.833 75.667 -106.5 131s-38.5 115.666 -38.5 180.999
c0 61.333 11.667 119.5 35 174.5s55 98.5 95 130.5c56.667 45.333 135.334 68 236.001 68h533zM536.998 -207.998h155v1539h-155v-1539z" />
    <glyph glyph-name="cedilla" unicode="&#xb8;" horiz-adv-x="1024" 
d="M538 0l-41.001 -120c42.667 -6.66699 75.334 -17 98.001 -31c40.667 -24 61 -56.333 61 -97c0 -40 -17.333 -73 -52 -99s-78.667 -39 -132 -39c-52.667 0 -108.667 13.667 -168 41l11 18c45.333 -17.333 83.333 -26 114 -26c34 0 62.167 9.83301 84.5 29.5
s33.5 44.5 33.5 74.5c0 48 -37.333 83.333 -112 106l51 143h52z" />
    <glyph glyph-name="onesuperior" unicode="&#xb9;" horiz-adv-x="650" 
d="M358 1366h19v-657c0 -58.667 11 -96.667 33 -114c19.333 -16 51 -25.667 95 -29v-20h-360v20c29.333 2 50.666 5.16699 63.999 9.5s25 11.833 35 22.5c10.667 10.667 17.834 23.667 21.501 39s5.5 38.333 5.5 69v562c-18.667 -2 -32 -3 -40 -3
c-36 0 -63.667 3.33301 -83 10v18c6 -4.66699 10 -7.33398 12 -8.00098c10 -3.33301 28.5 -1.66602 55.5 5.00098s50.5 15 70.5 25c16 8.66699 40 25.667 72 51z" />
    <glyph glyph-name="ordmasculine" unicode="&#xba;" horiz-adv-x="752" 
d="M677 734v-55h-602v55h602zM84 1115c0 71.333 29.168 133.667 87.501 187s126.5 80 204.5 80c78.667 0 147 -26.667 205 -80s87 -116 87 -188c0 -64 -23.667 -121.333 -71 -172c-58 -61.333 -131.667 -92 -221 -92c-88.667 0 -162.334 30.667 -221.001 92
c-47.333 50 -71 107.667 -71 173zM204.001 1121c0 -70 16.832 -129.164 50.499 -177.497s75.167 -72.5 124.5 -72.5c46.667 0 85.667 21.667 117 65c15.333 21.333 27.833 48.666 37.5 81.999s14.5 65.666 14.5 96.999s-5.16699 63.5 -15.5 96.5
s-24.166 60.833 -41.499 83.5c-32.667 44 -72.667 66 -120 66c-46 0 -85.333 -23.333 -118 -70s-49 -103.334 -49 -170.001z" />
    <glyph glyph-name="guillemotright" unicode="&#xbb;" horiz-adv-x="812" 
d="M216 423l-121.999 257.001c-6.66699 13.333 -10 22.666 -10 27.999l15 13c7.33301 0 17 -6 29 -18l253 -250c17.333 -17.333 26 -28.333 26 -33c0 -5.33301 -7.66699 -15 -23 -29l-263 -235l-12 -11c-4.66699 -4 -9.33398 -6 -14.001 -6c-4 0 -7.5 1.66699 -10.5 5
s-4.5 7 -4.5 11c0 7.33301 2.66699 16.333 8 27zM544.001 423.001l-123 257.001c-6 13.333 -9 22.666 -9 27.999l15 13c7.33301 0 17 -6 29 -18l253 -250c17.333 -17.333 26 -28.333 26 -33c0 -5.33301 -8 -15 -24 -29l-262 -235l-12 -11c-4.66699 -4 -9.66699 -6 -15 -6
c-3.33301 0 -6.5 1.66699 -9.5 5s-4.5 7 -4.5 11c0 7.33301 2.66699 16.333 8 27z" />
    <glyph glyph-name="onequarter" unicode="&#xbc;" horiz-adv-x="1443" 
d="M358 1366h19v-657c0 -58.667 11 -96.667 33 -114c19.333 -16 51 -25.667 95 -29v-20h-360v20c29.333 2 50.666 5.16699 63.999 9.5s25 11.833 35 22.5c10.667 10.667 17.834 23.667 21.501 39s5.5 38.333 5.5 69v562c-18.667 -2 -32 -3 -40 -3
c-36 0 -63.667 3.33301 -83 10v18c6 -4.66699 10 -7.33398 12 -8.00098c10 -3.33301 28.5 -1.66602 55.5 5.00098s50.5 15 70.5 25c16 8.66699 40 25.667 72 51zM1073 1365h60l-695 -1365h-60zM1157 193h-308.003v19l382 609h32v-597c24.667 0 42.334 1.5 53.001 4.5
s20.334 9.5 29.001 19.5c11.333 13.333 18 34 20 62v18h21v-236h-21c-2.66699 40.667 -9 67 -19 79c-8 9.33301 -17.167 15.333 -27.5 18s-28.833 4 -55.5 4v-57c0 -33.333 5 -58 15 -74c7.33301 -12.667 15.833 -21.667 25.5 -27s25.5 -9.66602 47.5 -12.999
c2.66699 -0.666992 6.33398 -1.33398 11.001 -2.00098v-20h-304v20c25.333 3.33301 43.5 6.83301 54.5 10.5s19.833 9.16699 26.5 16.5c12 16 18 47 18 93v53zM1157 224v417l-267 -417h267z" />
    <glyph glyph-name="onehalf" unicode="&#xbd;" horiz-adv-x="1443" 
d="M358 1366l19.001 -0.000976562v-657c0 -58.667 11 -96.667 33 -114c19.333 -16 51 -25.667 95 -29v-20h-360v20c29.333 2 50.666 5.16699 63.999 9.5s25 11.833 35 22.5c10.667 10.667 17.834 23.667 21.501 39s5.5 38.333 5.5 69v562c-18.667 -2 -32 -3 -40 -3
c-36 0 -63.667 3.33301 -83 10v18c11.333 -4.66699 19.666 -7.33398 24.999 -8.00098c10.667 -1.33301 28 1.33398 52 8.00098s44.333 14.334 61 23.001c16.667 9.33301 40.667 26 72 50zM1039 1365h60l-695 -1365h-60zM1333 -0.000976562l-485.997 -0.000976562v18
c51.333 44 102.333 92.667 153 146s94 103.666 130 150.999c51.333 68 87.833 125.667 109.5 173s32.5 93.333 32.5 138c0 49.333 -16.333 92.333 -49 129s-71.334 55 -116.001 55c-46.667 0 -85.167 -16 -115.5 -48s-45.5 -73 -45.5 -123c0 -46.667 16 -84.667 48 -114
c14.667 -14 31.167 -25 49.5 -33s33.833 -11 46.5 -9c2.66699 0.666992 8.66699 3 18 7l6 -17c-32 -16 -59.667 -24 -83 -24c-42 0 -77.5 16.333 -106.5 49s-43.5 72.334 -43.5 119.001c0 61.333 23.167 112.166 69.5 152.499s104.833 60.5 175.5 60.5
c84 0 149.333 -24.667 196 -74c19.333 -20 34.666 -44.167 45.999 -72.5s17 -57.166 17 -86.499c0 -62 -22 -124.333 -66 -187c-20.667 -30.667 -45.5 -60.167 -74.5 -88.5s-70.5 -64.166 -124.5 -107.499l-122 -100l-14 -12h211c38 0 65.667 2.33301 83 7
s32.666 14 45.999 28c15.333 16.667 28 40.667 38 72l21 -4z" />
    <glyph glyph-name="threequarters" unicode="&#xbe;" horiz-adv-x="1443" 
d="M417 986c57.333 -15.333 100.666 -40.501 129.999 -75.501s44 -78.5 44 -130.5c0 -28.667 -6.16699 -57.334 -18.5 -86.001s-29.166 -54 -50.499 -76c-26 -26 -58.5 -46.333 -97.5 -61s-80.833 -22 -125.5 -22c-37.333 0 -72.333 5.16699 -105 15.5
s-59.334 24.5 -80.001 42.5c-16 14 -28.5 30.833 -37.5 50.5s-13.5 39.5 -13.5 59.5c0 35.333 12.333 65 37 89s55.334 36 92.001 36l4 -17c-18 -15.333 -30.5 -30.666 -37.5 -45.999s-10.5 -34 -10.5 -56c0 -42.667 15.5 -79 46.5 -109s68.5 -45 112.5 -45
c57.333 0 102 20.333 134 61c34 42.667 51 95.667 51 159c0 29.333 -5.83301 58.666 -17.5 87.999s-26.5 52.333 -44.5 69c-21.333 20 -45.666 30 -72.999 30c-10 0 -24.333 -6.33301 -43 -19c-22 -14.667 -42.333 -22 -61 -22c-12 0 -22.333 3.83301 -31 11.5
s-13 17.167 -13 28.5c0 12.667 5.33301 23.167 16 31.5s24 12.5 40 12.5c10 0 18 -0.666992 24 -2l24 -7c6.66699 -2 14.667 -3 24 -3c26.667 0 52.667 12 78 36c16.667 16 29.667 35.5 39 58.5s14 46.833 14 71.5c0 56.667 -14.5 103.667 -43.5 141s-65.167 56 -108.5 56
c-34 0 -61.5 -10.167 -82.5 -30.5s-31.5 -47.166 -31.5 -80.499c0 -22.667 5.83301 -42.167 17.5 -58.5s27.167 -26.833 46.5 -31.5l2 -17c-16.667 -6 -32.334 -9 -47.001 -9c-31.333 0 -56.5 8.83301 -75.5 26.5s-28.5 40.834 -28.5 69.501
c0 42.667 20.167 78.5 60.5 107.5s89.5 43.5 147.5 43.5c32 0 63.667 -5.33301 95 -16s58 -24.667 80 -42c44.667 -37.333 67 -86.333 67 -147c0 -40.667 -12.5 -76.5 -37.5 -107.5s-62.5 -56.833 -112.5 -77.5zM1074 1365h60l-696 -1365h-59zM1158 192.999h-308.003v19
l382 609h32v-597c24.667 0 42.334 1.5 53.001 4.5s20.334 9.5 29.001 19.5c11.333 13.333 18 34 20 62v18h21v-236h-21c-2.66699 40.667 -9 67 -19 79c-8 9.33301 -17.167 15.333 -27.5 18s-28.833 4 -55.5 4v-57c0 -33.333 5 -58 15 -74
c7.33301 -12.667 15.833 -21.667 25.5 -27s25.5 -9.66602 47.5 -12.999c2.66699 -0.666992 6.33398 -1.33398 11.001 -2.00098v-20h-304v20c25.333 3.33301 43.5 6.83301 54.5 10.5s19.833 9.16699 26.5 16.5c12 16 18 47 18 93v53zM1158 223.999v417l-267 -417h267z" />
    <glyph glyph-name="questiondown" unicode="&#xbf;" horiz-adv-x="945" 
d="M718 530l32.999 -0.00195312v-503h-33c-6 54 -17.333 96.333 -34 127c-17.333 30 -39.833 53.5 -67.5 70.5s-57.167 25.5 -88.5 25.5c-62 0 -110.667 -29.167 -146 -87.5s-53 -138.166 -53 -239.499c0 -78 10.5 -149 31.5 -213s50.167 -115.333 87.5 -154
c20.667 -20.667 43.667 -36.834 69 -48.501s50 -17.5 74 -17.5c33.333 0 61.666 10 84.999 30c22.667 18.667 37.334 54.334 44.001 107.001c2.66699 18.667 6 33 10 43s10 18.333 18 25c14 11.333 29.667 17 47 17c21.333 0 38.5 -7.16699 51.5 -21.5
s19.5 -33.5 19.5 -57.5c0 -37.333 -16.667 -70 -50 -98c-25.333 -20 -56.5 -36 -93.5 -48s-75.167 -18 -114.5 -18c-104.667 0 -198 36.667 -280 110c-49.333 44 -87.666 96.333 -114.999 157s-41 123 -41 187c0 57.333 11 109.5 33 156.5s53.333 86.5 94 118.5
c30 22.667 64.333 40.667 103 54s75.667 20 111 20c37.333 0 73.5 -6.16699 108.5 -18.5s67.167 -30.166 96.5 -53.499v330zM729.999 864.998c33.333 0 61.833 -11.833 85.5 -35.5s35.5 -52.167 35.5 -85.5s-11.833 -61.833 -35.5 -85.5s-52.167 -35.5 -85.5 -35.5
c-34 0 -62.833 11.833 -86.5 35.5s-35.5 52.167 -35.5 85.5s11.833 61.833 35.5 85.5s52.5 35.5 86.5 35.5z" />
    <glyph glyph-name="Agrave" unicode="&#xc0;" horiz-adv-x="1420" 
d="M1441 0l-656.997 -0.000976562v23c59.333 5.33301 100.666 15.333 123.999 30c41.333 26 62 62 62 108c0 27.333 -9.33301 64 -28 110l-17 42l-96 236h-440l-52 -138l-25 -62c-30 -73.333 -45 -131 -45 -173c0 -24.667 5.5 -47.667 16.5 -69s25.833 -38.666 44.5 -51.999
c26 -18 59.333 -28.667 100 -32v-23h-448v23c35.333 2 66.333 10.667 93 26s52.667 40 78 74c21.333 27.333 42.166 62.5 62.499 105.5s47.166 107.5 80.499 193.5l366 943h57l435 -1051c32.667 -79.333 58.667 -136 78 -170s40.333 -59.667 63 -77
c16 -12 34.333 -21.167 55 -27.5s51.667 -11.833 93 -16.5v-23zM813.003 589.999l-210 518l-198 -518h408zM730.003 1526h-49l-347 246h199z" />
    <glyph glyph-name="Aacute" unicode="&#xc1;" horiz-adv-x="1420" 
d="M1441 0l-656.997 -0.000976562v23c59.333 5.33301 100.666 15.333 123.999 30c41.333 26 62 62 62 108c0 27.333 -9.33301 64 -28 110l-17 42l-96 236h-440l-52 -138l-25 -62c-30 -73.333 -45 -131 -45 -173c0 -24.667 5.5 -47.667 16.5 -69s25.833 -38.666 44.5 -51.999
c26 -18 59.333 -28.667 100 -32v-23h-448v23c35.333 2 66.333 10.667 93 26s52.667 40 78 74c21.333 27.333 42.166 62.5 62.499 105.5s47.166 107.5 80.499 193.5l366 943h57l435 -1051c32.667 -79.333 58.667 -136 78 -170s40.333 -59.667 63 -77
c16 -12 34.333 -21.167 55 -27.5s51.667 -11.833 93 -16.5v-23zM813.003 589.999l-210 518l-198 -518h408zM662.003 1526l197 246h200l-348 -246h-49z" />
    <glyph glyph-name="Acircumflex" unicode="&#xc2;" horiz-adv-x="1420" 
d="M1441 0l-656.997 -0.000976562v23c59.333 5.33301 100.666 15.333 123.999 30c41.333 26 62 62 62 108c0 27.333 -9.33301 64 -28 110l-17 42l-96 236h-440l-52 -138l-25 -62c-30 -73.333 -45 -131 -45 -173c0 -24.667 5.5 -47.667 16.5 -69s25.833 -38.666 44.5 -51.999
c26 -18 59.333 -28.667 100 -32v-23h-448v23c35.333 2 66.333 10.667 93 26s52.667 40 78 74c21.333 27.333 42.166 62.5 62.499 105.5s47.166 107.5 80.499 193.5l366 943h57l435 -1051c32.667 -79.333 58.667 -136 78 -170s40.333 -59.667 63 -77
c16 -12 34.333 -21.167 55 -27.5s51.667 -11.833 93 -16.5v-23zM813.003 589.999l-210 518l-198 -518h408zM690.003 1659l-238 -145h-55l271 254h43l271 -254h-54z" />
    <glyph glyph-name="Atilde" unicode="&#xc3;" horiz-adv-x="1420" 
d="M1441 0l-656.997 -0.000976562v23c59.333 5.33301 100.666 15.333 123.999 30c41.333 26 62 62 62 108c0 27.333 -9.33301 64 -28 110l-17 42l-96 236h-440l-52 -138l-25 -62c-30 -73.333 -45 -131 -45 -173c0 -24.667 5.5 -47.667 16.5 -69s25.833 -38.666 44.5 -51.999
c26 -18 59.333 -28.667 100 -32v-23h-448v23c35.333 2 66.333 10.667 93 26s52.667 40 78 74c21.333 27.333 42.166 62.5 62.499 105.5s47.166 107.5 80.499 193.5l366 943h57l435 -1051c32.667 -79.333 58.667 -136 78 -170s40.333 -59.667 63 -77
c16 -12 34.333 -21.167 55 -27.5s51.667 -11.833 93 -16.5v-23zM813.003 589.999l-210 518l-198 -518h408zM901.003 1722l22.998 0.00195312c2 -14.667 3 -25.334 3 -32.001c0 -41.333 -11.833 -75.166 -35.5 -101.499s-54.5 -39.5 -92.5 -39.5
c-26.667 0 -51.667 4.16699 -75 12.5s-60.666 26.166 -111.999 53.499c-26.667 14.667 -49 22 -67 22c-43.333 0 -67.666 -22 -72.999 -66h-23c-0.666992 9.33301 -1 16.666 -1 21.999c0 45.333 11 81.333 33 108s52 40 90 40c36 0 74.667 -10.667 116 -32l45 -24
c40 -20.667 73 -31 99 -31c20.667 0 36 4.83301 46 14.5s18 27.5 24 53.5z" />
    <glyph glyph-name="Adieresis" unicode="&#xc4;" horiz-adv-x="1420" 
d="M1441 0l-656.997 -0.000976562v23c59.333 5.33301 100.666 15.333 123.999 30c41.333 26 62 62 62 108c0 27.333 -9.33301 64 -28 110l-17 42l-96 236h-440l-52 -138l-25 -62c-30 -73.333 -45 -131 -45 -173c0 -24.667 5.5 -47.667 16.5 -69s25.833 -38.666 44.5 -51.999
c26 -18 59.333 -28.667 100 -32v-23h-448v23c35.333 2 66.333 10.667 93 26s52.667 40 78 74c21.333 27.333 42.166 62.5 62.499 105.5s47.166 107.5 80.499 193.5l366 943h57l435 -1051c32.667 -79.333 58.667 -136 78 -170s40.333 -59.667 63 -77
c16 -12 34.333 -21.167 55 -27.5s51.667 -11.833 93 -16.5v-23zM813.003 589.999l-210 518l-198 -518h408zM496.003 1748c27.333 0 50.5 -9.5 69.5 -28.5s28.5 -42.167 28.5 -69.5c0 -26.667 -9.5 -49.667 -28.5 -69s-42.167 -29 -69.5 -29
c-26.667 0 -49.667 9.66699 -69 29s-29 42.333 -29 69c0 27.333 9.66699 50.5 29 69.5s42.333 28.5 69 28.5zM871.003 1747c26.667 0 49.5 -9.33301 68.5 -28s28.5 -41.334 28.5 -68.001s-9.5 -49.5 -28.5 -68.5s-41.833 -28.5 -68.5 -28.5s-49.5 9.5 -68.5 28.5
s-28.5 41.833 -28.5 68.5s9.5 49.334 28.5 68.001s41.833 28 68.5 28z" />
    <glyph glyph-name="Aring" unicode="&#xc5;" horiz-adv-x="1420" 
d="M1441 0l-656.997 -0.000976562v23c59.333 5.33301 100.666 15.333 123.999 30c41.333 26 62 62 62 108c0 27.333 -9.33301 64 -28 110l-17 42l-96 236h-440l-52 -138l-25 -62c-30 -73.333 -45 -131 -45 -173c0 -24.667 5.5 -47.667 16.5 -69s25.833 -38.666 44.5 -51.999
c26 -18 59.333 -28.667 100 -32v-23h-448v23c35.333 2 66.333 10.667 93 26s52.667 40 78 74c21.333 27.333 42.166 62.5 62.499 105.5s47.166 107.5 80.499 193.5l366 943h57l435 -1051c32.667 -79.333 58.667 -136 78 -170s40.333 -59.667 63 -77
c16 -12 34.333 -21.167 55 -27.5s51.667 -11.833 93 -16.5v-23zM813.003 589.999l-210 518l-198 -518h408zM683.003 1805c45.333 0 84 -16 116 -48s48 -70.333 48 -115c0 -45.333 -16 -84 -48 -116s-70.667 -48 -116 -48s-84 16 -116 48s-48 70.667 -48 116
c0 44.667 16 83 48 115s70.667 48 116 48zM683.003 1754c-31.333 0 -57.833 -11 -79.5 -33s-32.5 -48.333 -32.5 -79c0 -31.333 10.833 -57.833 32.5 -79.5s48.167 -32.5 79.5 -32.5c30.667 0 57 10.833 79 32.5s33 48.167 33 79.5c0 30.667 -11 57 -33 79
s-48.333 33 -79 33z" />
    <glyph glyph-name="AE" unicode="&#xc6;" horiz-adv-x="2052" 
d="M825 23c38 2 69.001 7.33301 93.001 16s45 22.667 63 42c20.667 21.333 34.834 48.166 42.501 80.499s11.5 81.5 11.5 147.5v233h-514l-164 -234c-56.667 -80.667 -85 -138 -85 -172c0 -34.667 17.667 -62.334 53 -83.001c26.667 -15.333 64.667 -25.333 114 -30v-23
h-446v23c56.667 18 102.667 42.833 138 74.5s86.666 95.5 153.999 191.5l642 909c28 39.333 42 66.666 42 81.999c0 22 -14 38.333 -42 49c-17.333 6.66699 -46.333 10.667 -87 12l-15 1v23h1075l17 -330l-23 -2c-11.333 60.667 -26.833 109 -46.5 145s-47.5 67 -83.5 93
c-31.333 22.667 -68.833 38.834 -112.5 48.501s-99.834 14.5 -168.501 14.5h-229v-600h60c60.667 0 106.334 4 137.001 12s55.667 22.333 75 43c18.667 19.333 32.5 42.333 41.5 69s16.5 65.667 22.5 117l23 -1l-8 -537h-23c-11.333 95.333 -36 163.333 -74 204
c-19.333 21.333 -44.833 37 -76.5 47s-71.834 15 -120.501 15h-57v-229c0 -35.333 1 -75.666 3 -120.999c2.66699 -47.333 6.16699 -84.5 10.5 -111.5s10.833 -50.833 19.5 -71.5c20 -46.667 53.833 -81.5 101.5 -104.5s110.5 -34.5 188.5 -34.5
c78.667 0 145 10.167 199 30.5s98 51.833 132 94.5c24 28.667 43.5 61.334 58.5 98.001s28.833 85 41.5 145l23 -3l-13 -396h-1193v23zM1035 583v688l-488 -688h488z" />
    <glyph glyph-name="Ccedilla" unicode="&#xc7;" horiz-adv-x="1371" 
d="M759 -34l-37.001 -102.997c61.333 -10.667 106.666 -28.167 135.999 -52.5s44 -56.166 44 -95.499c0 -43.333 -19.667 -80 -59 -110s-87.666 -45 -144.999 -45c-60.667 0 -122.334 17.667 -185.001 53l14 23c52 -19.333 96.667 -29 134 -29
c31.333 0 57.833 10.667 79.5 32s32.5 47.333 32.5 78c0 25.333 -7.33301 46.166 -22 62.499s-40.667 32.833 -78 49.5l-20 9l47 132c-132.667 14.667 -245 53.667 -337 117c-86 59.333 -152 138.333 -198 237s-69 209.667 -69 333c0 122 22 234.5 66 337.5
s105.333 185.833 184 248.5c60.667 48 133.167 86.167 217.5 114.5s168.833 42.5 253.5 42.5c80.667 0 166 -15.333 256 -46l82 -27c16 -6 30 -9 42 -9c16.667 0 30.334 7 41.001 21c4.66699 6.66699 10.334 17.667 17.001 33h24l12 -447h-23l-17 44
c-23.333 64 -42.333 111.667 -57 143c-26 56 -63.667 107.333 -113 154c-37.333 35.333 -76 61 -116 77s-85 24 -135 24c-75.333 0 -140.666 -16.333 -195.999 -49c-48.667 -28.667 -94 -69.834 -136 -123.501s-76.333 -114.834 -103 -183.501
c-38 -96.667 -57 -206.667 -57 -330c0 -104.667 13 -199 39 -283s64 -154.333 114 -211c92 -105.333 214 -158 366 -158c76 0 144.333 13.167 205 39.5s107.667 63.5 141 111.5c38.667 55.333 66.667 130 84 224l23 -4c-12.667 -105.333 -41.334 -189 -86.001 -251
c-42.667 -58.667 -101.167 -103.834 -175.5 -135.501s-159.5 -47.5 -255.5 -47.5h-34z" />
    <glyph glyph-name="Egrave" unicode="&#xc8;" horiz-adv-x="1276" 
d="M1124 1365l17.001 -329.998l-23 -1c-8.66699 56 -23 102.333 -43 139s-49 69 -87 97c-31.333 23.333 -68.333 39.833 -111 49.5s-99.334 14.5 -170.001 14.5h-229v-600h60c60.667 0 106.334 4 137.001 12s55.667 22.333 75 43c18.667 19.333 32.5 42.166 41.5 68.499
s16.5 65.166 22.5 116.499l23 -1l-4 -536h-23c-6 51.333 -14.833 92.666 -26.5 123.999s-27.834 58 -48.501 80c-20 21.333 -46 37 -78 47s-72.667 15 -122 15h-57v-229c0 -91.333 2.33301 -157.833 7 -199.5s13.667 -76.5 27 -104.5
c22.667 -48 57.167 -83.167 103.5 -105.5s107.5 -33.5 183.5 -33.5c80 0 147 10.167 201 30.5s98 51.833 132 94.5c24 28.667 43.5 61.334 58.5 98.001s28.833 85 41.5 145l23 -1l-13 -398h-1193v23c38 2 68.833 7.33301 92.5 16s44.834 22.667 63.501 42
c20.667 21.333 34.834 48.5 42.501 81.5s11.5 83.5 11.5 151.5v737c0 68 -3.83301 118.5 -11.5 151.5s-21.834 60.167 -42.501 81.5c-18 19.333 -38.833 33.333 -62.5 42s-54.834 14 -93.501 16v23h1075zM728.001 1526h-49l-348 246h200z" />
    <glyph glyph-name="Eacute" unicode="&#xc9;" horiz-adv-x="1276" 
d="M1124 1365l17.001 -329.998l-23 -1c-8.66699 56 -23 102.333 -43 139s-49 69 -87 97c-31.333 23.333 -68.333 39.833 -111 49.5s-99.334 14.5 -170.001 14.5h-229v-600h60c60.667 0 106.334 4 137.001 12s55.667 22.333 75 43c18.667 19.333 32.5 42.166 41.5 68.499
s16.5 65.166 22.5 116.499l23 -1l-4 -536h-23c-6 51.333 -14.833 92.666 -26.5 123.999s-27.834 58 -48.501 80c-20 21.333 -46 37 -78 47s-72.667 15 -122 15h-57v-229c0 -91.333 2.33301 -157.833 7 -199.5s13.667 -76.5 27 -104.5
c22.667 -48 57.167 -83.167 103.5 -105.5s107.5 -33.5 183.5 -33.5c80 0 147 10.167 201 30.5s98 51.833 132 94.5c24 28.667 43.5 61.334 58.5 98.001s28.833 85 41.5 145l23 -1l-13 -398h-1193v23c38 2 68.833 7.33301 92.5 16s44.834 22.667 63.501 42
c20.667 21.333 34.834 48.5 42.501 81.5s11.5 83.5 11.5 151.5v737c0 68 -3.83301 118.5 -11.5 151.5s-21.834 60.167 -42.501 81.5c-18 19.333 -38.833 33.333 -62.5 42s-54.834 14 -93.501 16v23h1075zM590.001 1526l196 246h200l-348 -246h-48z" />
    <glyph glyph-name="Ecircumflex" unicode="&#xca;" horiz-adv-x="1276" 
d="M1124 1365l17.001 -329.998l-23 -1c-8.66699 56 -23 102.333 -43 139s-49 69 -87 97c-31.333 23.333 -68.333 39.833 -111 49.5s-99.334 14.5 -170.001 14.5h-229v-600h60c60.667 0 106.334 4 137.001 12s55.667 22.333 75 43c18.667 19.333 32.5 42.166 41.5 68.499
s16.5 65.166 22.5 116.499l23 -1l-4 -536h-23c-6 51.333 -14.833 92.666 -26.5 123.999s-27.834 58 -48.501 80c-20 21.333 -46 37 -78 47s-72.667 15 -122 15h-57v-229c0 -91.333 2.33301 -157.833 7 -199.5s13.667 -76.5 27 -104.5
c22.667 -48 57.167 -83.167 103.5 -105.5s107.5 -33.5 183.5 -33.5c80 0 147 10.167 201 30.5s98 51.833 132 94.5c24 28.667 43.5 61.334 58.5 98.001s28.833 85 41.5 145l23 -1l-13 -398h-1193v23c38 2 68.833 7.33301 92.5 16s44.834 22.667 63.501 42
c20.667 21.333 34.834 48.5 42.501 81.5s11.5 83.5 11.5 151.5v737c0 68 -3.83301 118.5 -11.5 151.5s-21.834 60.167 -42.501 81.5c-18 19.333 -38.833 33.333 -62.5 42s-54.834 14 -93.501 16v23h1075zM639.001 1659l-238 -145h-55l271 254h43l271 -254h-54z" />
    <glyph glyph-name="Edieresis" unicode="&#xcb;" horiz-adv-x="1276" 
d="M1124 1365l17.001 -329.998l-23 -1c-8.66699 56 -23 102.333 -43 139s-49 69 -87 97c-31.333 23.333 -68.333 39.833 -111 49.5s-99.334 14.5 -170.001 14.5h-229v-600h60c60.667 0 106.334 4 137.001 12s55.667 22.333 75 43c18.667 19.333 32.5 42.166 41.5 68.499
s16.5 65.166 22.5 116.499l23 -1l-4 -536h-23c-6 51.333 -14.833 92.666 -26.5 123.999s-27.834 58 -48.501 80c-20 21.333 -46 37 -78 47s-72.667 15 -122 15h-57v-229c0 -91.333 2.33301 -157.833 7 -199.5s13.667 -76.5 27 -104.5
c22.667 -48 57.167 -83.167 103.5 -105.5s107.5 -33.5 183.5 -33.5c80 0 147 10.167 201 30.5s98 51.833 132 94.5c24 28.667 43.5 61.334 58.5 98.001s28.833 85 41.5 145l23 -1l-13 -398h-1193v23c38 2 68.833 7.33301 92.5 16s44.834 22.667 63.501 42
c20.667 21.333 34.834 48.5 42.501 81.5s11.5 83.5 11.5 151.5v737c0 68 -3.83301 118.5 -11.5 151.5s-21.834 60.167 -42.501 81.5c-18 19.333 -38.833 33.333 -62.5 42s-54.834 14 -93.501 16v23h1075zM451.001 1748c27.333 0 50.5 -9.5 69.5 -28.5
s28.5 -42.167 28.5 -69.5c0 -26.667 -9.5 -49.667 -28.5 -69s-42.167 -29 -69.5 -29c-26.667 0 -49.667 9.66699 -69 29s-29 42.333 -29 69c0 27.333 9.5 50.5 28.5 69.5s42.167 28.5 69.5 28.5zM826.001 1747c26.667 0 49.5 -9.33301 68.5 -28s28.5 -41.334 28.5 -68.001
s-9.5 -49.5 -28.5 -68.5s-41.833 -28.5 -68.5 -28.5s-49.5 9.5 -68.5 28.5s-28.5 41.833 -28.5 68.5s9.5 49.334 28.5 68.001s41.833 28 68.5 28z" />
    <glyph glyph-name="Igrave" unicode="&#xcc;" horiz-adv-x="737" 
d="M688 1365l0.00195312 -23.002c-38 -2 -68.833 -7.33301 -92.5 -16s-44.834 -22.667 -63.501 -42c-26 -26.667 -42 -63.667 -48 -111c-4 -35.333 -6 -76 -6 -122v-737c0 -55.333 2.66699 -99 8 -131s14 -57.667 26 -77c17.333 -26.667 39.666 -46.5 66.999 -59.5
s63.666 -20.833 108.999 -23.5v-23h-639v23c38.667 2 69.834 7.5 93.501 16.5s44.5 22.833 62.5 41.5c21.333 21.333 35.666 48.333 42.999 81s11 83.334 11 152.001v737c0 68.667 -3.66699 119.334 -11 152.001s-21.666 59.667 -42.999 81c-18 19.333 -39 33.333 -63 42
s-55 14 -93 16v23h639zM430.002 1526h-48l-348 246h200z" />
    <glyph glyph-name="Iacute" unicode="&#xcd;" horiz-adv-x="737" 
d="M688 1365l0.00195312 -23.002c-38 -2 -68.833 -7.33301 -92.5 -16s-44.834 -22.667 -63.501 -42c-26 -26.667 -42 -63.667 -48 -111c-4 -35.333 -6 -76 -6 -122v-737c0 -55.333 2.66699 -99 8 -131s14 -57.667 26 -77c17.333 -26.667 39.666 -46.5 66.999 -59.5
s63.666 -20.833 108.999 -23.5v-23h-639v23c38.667 2 69.834 7.5 93.501 16.5s44.5 22.833 62.5 41.5c21.333 21.333 35.666 48.333 42.999 81s11 83.334 11 152.001v737c0 68.667 -3.66699 119.334 -11 152.001s-21.666 59.667 -42.999 81c-18 19.333 -39 33.333 -63 42
s-55 14 -93 16v23h639zM293.002 1526l197 246h199l-347 -246h-49z" />
    <glyph glyph-name="Icircumflex" unicode="&#xce;" horiz-adv-x="737" 
d="M688 1365l0.00195312 -23.002c-38 -2 -68.833 -7.33301 -92.5 -16s-44.834 -22.667 -63.501 -42c-26 -26.667 -42 -63.667 -48 -111c-4 -35.333 -6 -76 -6 -122v-737c0 -55.333 2.66699 -99 8 -131s14 -57.667 26 -77c17.333 -26.667 39.666 -46.5 66.999 -59.5
s63.666 -20.833 108.999 -23.5v-23h-639v23c38.667 2 69.834 7.5 93.501 16.5s44.5 22.833 62.5 41.5c21.333 21.333 35.666 48.333 42.999 81s11 83.334 11 152.001v737c0 68.667 -3.66699 119.334 -11 152.001s-21.666 59.667 -42.999 81c-18 19.333 -39 33.333 -63 42
s-55 14 -93 16v23h639zM369.002 1659l-238 -145h-55l271 254h43l271 -254h-55z" />
    <glyph glyph-name="Idieresis" unicode="&#xcf;" horiz-adv-x="737" 
d="M688 1365l0.00195312 -23.002c-38 -2 -68.833 -7.33301 -92.5 -16s-44.834 -22.667 -63.501 -42c-26 -26.667 -42 -63.667 -48 -111c-4 -35.333 -6 -76 -6 -122v-737c0 -55.333 2.66699 -99 8 -131s14 -57.667 26 -77c17.333 -26.667 39.666 -46.5 66.999 -59.5
s63.666 -20.833 108.999 -23.5v-23h-639v23c38.667 2 69.834 7.5 93.501 16.5s44.5 22.833 62.5 41.5c21.333 21.333 35.666 48.333 42.999 81s11 83.334 11 152.001v737c0 68.667 -3.66699 119.334 -11 152.001s-21.666 59.667 -42.999 81c-18 19.333 -39 33.333 -63 42
s-55 14 -93 16v23h639zM244.002 1748c27.333 0 50.5 -9.5 69.5 -28.5s28.5 -42.167 28.5 -69.5c0 -26.667 -9.5 -49.667 -28.5 -69s-42.167 -29 -69.5 -29c-26.667 0 -49.5 9.66699 -68.5 29s-28.5 42.333 -28.5 69c0 27.333 9.5 50.5 28.5 69.5s41.833 28.5 68.5 28.5z
M494.002 1747c26.667 0 49.334 -9.33301 68.001 -28s28 -41.334 28 -68.001s-9.33301 -49.5 -28 -68.5s-41.334 -28.5 -68.001 -28.5s-49.5 9.5 -68.5 28.5s-28.5 41.833 -28.5 68.5s9.5 49.334 28.5 68.001s41.833 28 68.5 28z" />
    <glyph glyph-name="Eth" unicode="&#xd0;" horiz-adv-x="1580" 
d="M257 662l-183 0.00292969v68h183v321c0 72.667 -4.66699 126.167 -14 160.5s-26.666 62.166 -51.999 83.499c-32 27.333 -79.333 43 -142 47v23h547c122 0 200 -1.33301 234 -4c140.667 -11.333 260 -51.333 358 -120c93.333 -66.667 166 -153.334 218 -260.001
s78 -223 78 -349c0 -92 -14.833 -178.833 -44.5 -260.5s-70.834 -149.5 -123.501 -203.5c-74 -76 -166.333 -124.333 -277 -145c-82.667 -15.333 -167.334 -23 -254.001 -23h-165h-571v23c38 2.66699 68.5 8.16699 91.5 16.5s43.833 22.166 62.5 41.499
c20.667 21.333 34.834 48.5 42.501 81.5s11.5 83.5 11.5 151.5v348zM475 662.003l-0.000976562 -322.002c0 -65.333 3.83301 -115 11.5 -149s21.5 -63 41.5 -87c42.667 -52 111.667 -78 207 -78c83.333 0 154.333 13.667 213 41s111.334 71 158.001 131
c45.333 58.667 79.833 125.834 103.5 201.501s35.5 156.167 35.5 241.5c0 94.667 -14.333 184.667 -43 270s-70 160 -124 224c-74.667 88.667 -163.667 147.334 -267 176.001c-56 15.333 -127.667 23 -215 23h-121v-604h295v-68h-295z" />
    <glyph glyph-name="Ntilde" unicode="&#xd1;" horiz-adv-x="1547" 
d="M300 1184l0.000976562 -870c0 -68.667 3.83301 -119.334 11.5 -152.001s21.834 -59.667 42.501 -81c18.667 -19.333 39.834 -33.333 63.501 -42s54.5 -14 92.5 -16v-23h-461v23c38 2 68.833 7.33301 92.5 16s44.834 22.667 63.501 42
c20.667 21.333 34.834 48.5 42.501 81.5s11.5 83.5 11.5 151.5v738c0 67.333 -3.83301 117.5 -11.5 150.5s-21.834 60.167 -42.501 81.5c-18 19.333 -38.833 33.333 -62.5 42s-54.834 14 -93.501 16v23h385l812 -1036v722c0 68.667 -3.83301 119.334 -11.5 152.001
s-21.834 59.667 -42.501 81c-18.667 19.333 -39.834 33.333 -63.501 42s-54.5 14 -92.5 16v23h461v-23c-66.667 0 -118.667 -19.333 -156 -58c-20.667 -21.333 -34.834 -48.5 -42.501 -81.5s-11.5 -83.167 -11.5 -150.5v-1052h-45zM978.001 1722l22.9971 0.00195312
c2 -14.667 3 -25.334 3 -32.001c0 -41.333 -12 -75.166 -36 -101.499s-54.667 -39.5 -92 -39.5c-27.333 0 -52.666 4.16699 -75.999 12.5s-60.333 26.166 -111 53.499c-27.333 14.667 -49.666 22 -66.999 22c-43.333 0 -67.666 -22 -72.999 -66h-23
c-0.666992 9.33301 -1 16.666 -1 21.999c0 45.333 11 81.333 33 108s51.667 40 89 40c36 0 74.667 -10.667 116 -32l46 -24c39.333 -20.667 72.333 -31 99 -31c20 0 35.167 4.83301 45.5 14.5s18.5 27.5 24.5 53.5z" />
    <glyph glyph-name="Ograve" unicode="&#xd2;" horiz-adv-x="1661" 
d="M96 673c0 112 24 215.832 72 311.499s118 179.167 210 250.5c68.667 52.667 142.667 93.167 222 121.5s159.333 42.5 240 42.5c102.667 0 202 -22.5 298 -67.5s180 -108.5 252 -190.5c117.333 -133.333 176 -285 176 -455c0 -85.333 -15.333 -167.666 -46 -246.999
s-75.334 -151.666 -134.001 -216.999c-72 -81.333 -157.167 -144.333 -255.5 -189s-201.166 -67 -308.499 -67c-106 0 -207.333 21.667 -304 65s-180 104.666 -250 183.999c-55.333 62 -97.833 132.5 -127.5 211.5s-44.5 161.167 -44.5 246.5zM338 657.999
c0 -193.333 52.668 -356.333 158.001 -489c47.333 -59.333 97.5 -102.5 150.5 -129.5s114.167 -40.5 183.5 -40.5c70 0 131.5 13.333 184.5 40s103.5 70 151.5 130c105.333 133.333 158 297.666 158 492.999c0 107.333 -14.5 208.833 -43.5 304.5
s-69.833 176.834 -122.5 243.501c-42.667 54.667 -90.167 94.5 -142.5 119.5s-114.166 37.5 -185.499 37.5c-70.667 0 -131.834 -12.333 -183.501 -37s-99.5 -64.667 -143.5 -120c-52.667 -66 -93.334 -147 -122.001 -243s-43 -199 -43 -309zM893.001 1526h-49l-348 246h200
z" />
    <glyph glyph-name="Oacute" unicode="&#xd3;" horiz-adv-x="1661" 
d="M96 673c0 112 24 215.832 72 311.499s118 179.167 210 250.5c68.667 52.667 142.667 93.167 222 121.5s159.333 42.5 240 42.5c102.667 0 202 -22.5 298 -67.5s180 -108.5 252 -190.5c117.333 -133.333 176 -285 176 -455c0 -85.333 -15.333 -167.666 -46 -246.999
s-75.334 -151.666 -134.001 -216.999c-72 -81.333 -157.167 -144.333 -255.5 -189s-201.166 -67 -308.499 -67c-106 0 -207.333 21.667 -304 65s-180 104.666 -250 183.999c-55.333 62 -97.833 132.5 -127.5 211.5s-44.5 161.167 -44.5 246.5zM338 657.999
c0 -193.333 52.668 -356.333 158.001 -489c47.333 -59.333 97.5 -102.5 150.5 -129.5s114.167 -40.5 183.5 -40.5c70 0 131.5 13.333 184.5 40s103.5 70 151.5 130c105.333 133.333 158 297.666 158 492.999c0 107.333 -14.5 208.833 -43.5 304.5
s-69.833 176.834 -122.5 243.501c-42.667 54.667 -90.167 94.5 -142.5 119.5s-114.166 37.5 -185.499 37.5c-70.667 0 -131.834 -12.333 -183.501 -37s-99.5 -64.667 -143.5 -120c-52.667 -66 -93.334 -147 -122.001 -243s-43 -199 -43 -309zM755.001 1526l196 246h200
l-348 -246h-48z" />
    <glyph glyph-name="Ocircumflex" unicode="&#xd4;" horiz-adv-x="1661" 
d="M96 673c0 112 24 215.832 72 311.499s118 179.167 210 250.5c68.667 52.667 142.667 93.167 222 121.5s159.333 42.5 240 42.5c102.667 0 202 -22.5 298 -67.5s180 -108.5 252 -190.5c117.333 -133.333 176 -285 176 -455c0 -85.333 -15.333 -167.666 -46 -246.999
s-75.334 -151.666 -134.001 -216.999c-72 -81.333 -157.167 -144.333 -255.5 -189s-201.166 -67 -308.499 -67c-106 0 -207.333 21.667 -304 65s-180 104.666 -250 183.999c-55.333 62 -97.833 132.5 -127.5 211.5s-44.5 161.167 -44.5 246.5zM338 657.999
c0 -193.333 52.668 -356.333 158.001 -489c47.333 -59.333 97.5 -102.5 150.5 -129.5s114.167 -40.5 183.5 -40.5c70 0 131.5 13.333 184.5 40s103.5 70 151.5 130c105.333 133.333 158 297.666 158 492.999c0 107.333 -14.5 208.833 -43.5 304.5
s-69.833 176.834 -122.5 243.501c-42.667 54.667 -90.167 94.5 -142.5 119.5s-114.166 37.5 -185.499 37.5c-70.667 0 -131.834 -12.333 -183.501 -37s-99.5 -64.667 -143.5 -120c-52.667 -66 -93.334 -147 -122.001 -243s-43 -199 -43 -309zM830.001 1659l-238 -145h-54
l270 254h44l270 -254h-54z" />
    <glyph glyph-name="Otilde" unicode="&#xd5;" horiz-adv-x="1661" 
d="M96 673c0 112 24 215.832 72 311.499s118 179.167 210 250.5c68.667 52.667 142.667 93.167 222 121.5s159.333 42.5 240 42.5c102.667 0 202 -22.5 298 -67.5s180 -108.5 252 -190.5c117.333 -133.333 176 -285 176 -455c0 -85.333 -15.333 -167.666 -46 -246.999
s-75.334 -151.666 -134.001 -216.999c-72 -81.333 -157.167 -144.333 -255.5 -189s-201.166 -67 -308.499 -67c-106 0 -207.333 21.667 -304 65s-180 104.666 -250 183.999c-55.333 62 -97.833 132.5 -127.5 211.5s-44.5 161.167 -44.5 246.5zM338 657.999
c0 -193.333 52.668 -356.333 158.001 -489c47.333 -59.333 97.5 -102.5 150.5 -129.5s114.167 -40.5 183.5 -40.5c70 0 131.5 13.333 184.5 40s103.5 70 151.5 130c105.333 133.333 158 297.666 158 492.999c0 107.333 -14.5 208.833 -43.5 304.5
s-69.833 176.834 -122.5 243.501c-42.667 54.667 -90.167 94.5 -142.5 119.5s-114.166 37.5 -185.499 37.5c-70.667 0 -131.834 -12.333 -183.501 -37s-99.5 -64.667 -143.5 -120c-52.667 -66 -93.334 -147 -122.001 -243s-43 -199 -43 -309zM1035 1722l22.9971 0.000976562
c1.33301 -14.667 2 -25.334 2 -32.001c0 -41.333 -11.833 -75.166 -35.5 -101.499s-54.167 -39.5 -91.5 -39.5c-27.333 0 -52.666 4.16699 -75.999 12.5s-60.333 26.166 -111 53.499c-27.333 14.667 -49.666 22 -66.999 22c-43.333 0 -67.666 -22 -72.999 -66h-24v22
c0 45.333 11 81.333 33 108s51.667 40 89 40c36 0 74.667 -10.667 116 -32l46 -24c39.333 -20.667 72.333 -31 99 -31c20 0 35.167 4.83301 45.5 14.5s18.5 27.5 24.5 53.5z" />
    <glyph glyph-name="Odieresis" unicode="&#xd6;" horiz-adv-x="1661" 
d="M96 673c0 112 24 215.832 72 311.499s118 179.167 210 250.5c68.667 52.667 142.667 93.167 222 121.5s159.333 42.5 240 42.5c102.667 0 202 -22.5 298 -67.5s180 -108.5 252 -190.5c117.333 -133.333 176 -285 176 -455c0 -85.333 -15.333 -167.666 -46 -246.999
s-75.334 -151.666 -134.001 -216.999c-72 -81.333 -157.167 -144.333 -255.5 -189s-201.166 -67 -308.499 -67c-106 0 -207.333 21.667 -304 65s-180 104.666 -250 183.999c-55.333 62 -97.833 132.5 -127.5 211.5s-44.5 161.167 -44.5 246.5zM338 657.999
c0 -193.333 52.668 -356.333 158.001 -489c47.333 -59.333 97.5 -102.5 150.5 -129.5s114.167 -40.5 183.5 -40.5c70 0 131.5 13.333 184.5 40s103.5 70 151.5 130c105.333 133.333 158 297.666 158 492.999c0 107.333 -14.5 208.833 -43.5 304.5
s-69.833 176.834 -122.5 243.501c-42.667 54.667 -90.167 94.5 -142.5 119.5s-114.166 37.5 -185.499 37.5c-70.667 0 -131.834 -12.333 -183.501 -37s-99.5 -64.667 -143.5 -120c-52.667 -66 -93.334 -147 -122.001 -243s-43 -199 -43 -309zM644.001 1748
c27.333 0 50.5 -9.5 69.5 -28.5s28.5 -42.167 28.5 -69.5c0 -26.667 -9.5 -49.667 -28.5 -69s-42.167 -29 -69.5 -29c-26.667 0 -49.667 9.66699 -69 29s-29 42.333 -29 69c0 27.333 9.66699 50.5 29 69.5s42.333 28.5 69 28.5zM1019 1747c26.667 0 49.5 -9.33301 68.5 -28
s28.5 -41.334 28.5 -68.001s-9.5 -49.5 -28.5 -68.5s-41.833 -28.5 -68.5 -28.5s-49.5 9.5 -68.5 28.5s-28.5 41.833 -28.5 68.5s9.5 49.334 28.5 68.001s41.833 28 68.5 28z" />
    <glyph glyph-name="multiply" unicode="&#xd7;" 
d="M504 626l-336 -336l-43 44l335 335l-335 335l43 44l336 -336l335 336l44 -44l-336 -335l336 -335l-44 -44z" />
    <glyph glyph-name="Oslash" unicode="&#xd8;" horiz-adv-x="1661" 
d="M1198 1300l136 201.998h82l-160 -239c100 -73.333 176.667 -159.666 230 -258.999s80 -205.333 80 -318c0 -96 -19.667 -188.333 -59 -277c-30 -68.667 -71 -132 -123 -190s-111.667 -107 -179 -147c-118.667 -70.667 -246.334 -106 -383.001 -106
c-129.333 0 -251.333 32 -366 96l-132 -199h-82l157 236c-97.333 67.333 -172.166 150.833 -224.499 250.5s-78.5 207.834 -78.5 324.501c0 111.333 24 214.833 72 310.5s118 179.167 210 250.5c68 52.667 141.833 93.167 221.5 121.5s159.834 42.5 240.501 42.5
c125.333 0 244.666 -33 357.999 -99zM1140 1233c-41.333 46.667 -86.668 80.666 -136.001 101.999s-107 32 -173 32c-73.333 0 -136.333 -13.333 -189 -40c-90.667 -44.667 -164 -128.5 -220 -251.5s-84 -260.833 -84 -413.5c0 -92.667 10.833 -175.667 32.5 -249
s56.834 -145.666 105.501 -216.999zM1185 1174l-665 -1033c46 -50.667 93.167 -87 141.5 -109s104.166 -33 167.499 -33c84.667 0 157.334 19.667 218.001 59c40 25.333 78.333 60.833 115 106.5s67.667 95.5 93 149.5c46 100.667 69 217.334 69 350.001
c0 195.333 -46.333 365.333 -139 510z" />
    <glyph glyph-name="Ugrave" unicode="&#xd9;" horiz-adv-x="1542" 
d="M674 1365l0.00390625 -23.0029c-38 -2 -69 -7.33301 -93 -16s-45 -22.667 -63 -42c-22 -22.667 -36.5 -50.667 -43.5 -84s-10.5 -90.666 -10.5 -171.999v-566c0 -92 3.5 -158.5 10.5 -199.5s21.167 -78.833 42.5 -113.5c32 -52.667 71.5 -90.834 118.5 -114.501
s106.167 -35.5 177.5 -35.5c69.333 0 135.5 10.5 198.5 31.5s115.5 50.167 157.5 87.5c26 23.333 45.167 48.666 57.5 75.999s20.5 62 24.5 104c2.66699 27.333 4 92 4 194v559c0 68.667 -3.83301 119.334 -11.5 152.001s-21.834 59.667 -42.501 81
c-18.667 19.333 -39.834 33.333 -63.501 42s-54.5 14 -92.5 16v23h461v-23c-38 -2 -68.833 -7.33301 -92.5 -16s-44.834 -22.667 -63.501 -42c-20.667 -21.333 -34.834 -48.5 -42.501 -81.5s-11.5 -83.5 -11.5 -151.5v-631c0 -93.333 -7.16699 -162.166 -21.5 -206.499
s-42.833 -84.833 -85.5 -121.5c-97.333 -84 -236.333 -126 -417 -126c-188.667 0 -327.667 39.667 -417 119c-58 50.667 -92.667 117.334 -104 200.001c-4 29.333 -6 82.333 -6 159v607c0 68.667 -3.66699 119.334 -11 152.001s-21.666 59.667 -42.999 81
c-18 19.333 -38.833 33.333 -62.5 42s-54.834 14 -93.501 16v23h639zM873.004 1526h-48l-348 246h200z" />
    <glyph glyph-name="Uacute" unicode="&#xda;" horiz-adv-x="1542" 
d="M674 1365l0.00390625 -23.0029c-38 -2 -69 -7.33301 -93 -16s-45 -22.667 -63 -42c-22 -22.667 -36.5 -50.667 -43.5 -84s-10.5 -90.666 -10.5 -171.999v-566c0 -92 3.5 -158.5 10.5 -199.5s21.167 -78.833 42.5 -113.5c32 -52.667 71.5 -90.834 118.5 -114.501
s106.167 -35.5 177.5 -35.5c69.333 0 135.5 10.5 198.5 31.5s115.5 50.167 157.5 87.5c26 23.333 45.167 48.666 57.5 75.999s20.5 62 24.5 104c2.66699 27.333 4 92 4 194v559c0 68.667 -3.83301 119.334 -11.5 152.001s-21.834 59.667 -42.501 81
c-18.667 19.333 -39.834 33.333 -63.501 42s-54.5 14 -92.5 16v23h461v-23c-38 -2 -68.833 -7.33301 -92.5 -16s-44.834 -22.667 -63.501 -42c-20.667 -21.333 -34.834 -48.5 -42.501 -81.5s-11.5 -83.5 -11.5 -151.5v-631c0 -93.333 -7.16699 -162.166 -21.5 -206.499
s-42.833 -84.833 -85.5 -121.5c-97.333 -84 -236.333 -126 -417 -126c-188.667 0 -327.667 39.667 -417 119c-58 50.667 -92.667 117.334 -104 200.001c-4 29.333 -6 82.333 -6 159v607c0 68.667 -3.66699 119.334 -11 152.001s-21.666 59.667 -42.999 81
c-18 19.333 -38.833 33.333 -62.5 42s-54.834 14 -93.501 16v23h639zM737.004 1526l197 246h200l-348 -246h-49z" />
    <glyph glyph-name="Ucircumflex" unicode="&#xdb;" horiz-adv-x="1542" 
d="M674 1365l0.00390625 -23.0029c-38 -2 -69 -7.33301 -93 -16s-45 -22.667 -63 -42c-22 -22.667 -36.5 -50.667 -43.5 -84s-10.5 -90.666 -10.5 -171.999v-566c0 -92 3.5 -158.5 10.5 -199.5s21.167 -78.833 42.5 -113.5c32 -52.667 71.5 -90.834 118.5 -114.501
s106.167 -35.5 177.5 -35.5c69.333 0 135.5 10.5 198.5 31.5s115.5 50.167 157.5 87.5c26 23.333 45.167 48.666 57.5 75.999s20.5 62 24.5 104c2.66699 27.333 4 92 4 194v559c0 68.667 -3.83301 119.334 -11.5 152.001s-21.834 59.667 -42.501 81
c-18.667 19.333 -39.834 33.333 -63.501 42s-54.5 14 -92.5 16v23h461v-23c-38 -2 -68.833 -7.33301 -92.5 -16s-44.834 -22.667 -63.501 -42c-20.667 -21.333 -34.834 -48.5 -42.501 -81.5s-11.5 -83.5 -11.5 -151.5v-631c0 -93.333 -7.16699 -162.166 -21.5 -206.499
s-42.833 -84.833 -85.5 -121.5c-97.333 -84 -236.333 -126 -417 -126c-188.667 0 -327.667 39.667 -417 119c-58 50.667 -92.667 117.334 -104 200.001c-4 29.333 -6 82.333 -6 159v607c0 68.667 -3.66699 119.334 -11 152.001s-21.666 59.667 -42.999 81
c-18 19.333 -38.833 33.333 -62.5 42s-54.834 14 -93.501 16v23h639zM825.004 1659l-238 -145h-54l271 254h43l271 -254h-55z" />
    <glyph glyph-name="Udieresis" unicode="&#xdc;" horiz-adv-x="1542" 
d="M674 1365l0.00390625 -23.0029c-38 -2 -69 -7.33301 -93 -16s-45 -22.667 -63 -42c-22 -22.667 -36.5 -50.667 -43.5 -84s-10.5 -90.666 -10.5 -171.999v-566c0 -92 3.5 -158.5 10.5 -199.5s21.167 -78.833 42.5 -113.5c32 -52.667 71.5 -90.834 118.5 -114.501
s106.167 -35.5 177.5 -35.5c69.333 0 135.5 10.5 198.5 31.5s115.5 50.167 157.5 87.5c26 23.333 45.167 48.666 57.5 75.999s20.5 62 24.5 104c2.66699 27.333 4 92 4 194v559c0 68.667 -3.83301 119.334 -11.5 152.001s-21.834 59.667 -42.501 81
c-18.667 19.333 -39.834 33.333 -63.501 42s-54.5 14 -92.5 16v23h461v-23c-38 -2 -68.833 -7.33301 -92.5 -16s-44.834 -22.667 -63.501 -42c-20.667 -21.333 -34.834 -48.5 -42.501 -81.5s-11.5 -83.5 -11.5 -151.5v-631c0 -93.333 -7.16699 -162.166 -21.5 -206.499
s-42.833 -84.833 -85.5 -121.5c-97.333 -84 -236.333 -126 -417 -126c-188.667 0 -327.667 39.667 -417 119c-58 50.667 -92.667 117.334 -104 200.001c-4 29.333 -6 82.333 -6 159v607c0 68.667 -3.66699 119.334 -11 152.001s-21.666 59.667 -42.999 81
c-18 19.333 -38.833 33.333 -62.5 42s-54.834 14 -93.501 16v23h639zM625.004 1748c26.667 0 49.667 -9.5 69 -28.5s29 -42.167 29 -69.5c0 -26.667 -9.66699 -49.667 -29 -69s-42.333 -29 -69 -29c-27.333 0 -50.5 9.66699 -69.5 29s-28.5 42.333 -28.5 69
c0 27.333 9.5 50.5 28.5 69.5s42.167 28.5 69.5 28.5zM1000 1747c26.667 0 49.334 -9.33301 68.001 -28s28 -41.334 28 -68.001s-9.33301 -49.5 -28 -68.5s-41.334 -28.5 -68.001 -28.5s-49.5 9.5 -68.5 28.5s-28.5 41.833 -28.5 68.5s9.5 49.334 28.5 68.001
s41.833 28 68.5 28z" />
    <glyph glyph-name="Yacute" unicode="&#xdd;" horiz-adv-x="1345" 
d="M375 0l-0.000976562 22.9971c38 2 69 7.33301 93 16s45.333 22.667 64 42c20.667 21.333 34.667 48.333 42 81s11 83.334 11 152.001l1 195c0 28 -5.66699 59 -17 93c-12.667 39.333 -38.667 88.666 -78 147.999l-259 389l-46 70c-34 50.667 -67.333 85.334 -100 104.001
c-16.667 10 -33.334 17 -50.001 21s-40 6.66699 -70 8v23h652v-23c-55.333 -3.33301 -90.666 -8.33301 -105.999 -15c-37.333 -16 -56 -45 -56 -87c0 -15.333 4.16699 -32.666 12.5 -51.999s21.833 -43.666 40.5 -72.999l271 -424l232 362l26 41
c24.667 38.667 37 76.667 37 114c0 42.667 -13.667 75.667 -41 99s-65.666 35 -114.999 35v23h460v-23c-34.667 -4 -61.334 -9.83301 -80.001 -17.5s-37.667 -20.167 -57 -37.5c-45.333 -42.667 -95.666 -106.334 -150.999 -191.001l-228 -348
c-27.333 -41.333 -44 -71.666 -50 -90.999s-9 -52 -9 -98v-245c0 -71.333 3.5 -122.5 10.5 -153.5s21.167 -57.5 42.5 -79.5c36.667 -38.667 89 -58 157 -58v-23h-639zM733.999 1526l197 246h200l-348 -246h-49z" />
    <glyph glyph-name="Thorn" unicode="&#xde;" horiz-adv-x="1182" 
d="M475 1106l174 -0.00195312c106 0 184 -5.33301 234 -16s95.333 -31.667 136 -63c94.667 -72.667 142 -170.334 142 -293.001c0 -119.333 -48 -207.666 -144 -264.999c-49.333 -28.667 -110 -46 -182 -52c-22.667 -2 -77.334 -3 -164.001 -3h-196v-100
c0 -68 3.83301 -118.5 11.5 -151.5s21.834 -60.167 42.501 -81.5c18 -18.667 38.667 -32.334 62 -41.001s54 -14.334 92 -17.001v-23h-634v23c38 2.66699 68.667 8.33398 92 17.001s44 22.334 62 41.001c20.667 21.333 34.834 48.333 42.501 81s11.5 83.334 11.5 152.001
v737c0 68.667 -3.83301 119.334 -11.5 152.001s-21.834 59.667 -42.501 81c-18 18.667 -38.833 32.5 -62.5 41.5s-54.167 14.5 -91.5 16.5v23h636v-23c-85.333 -4 -145 -31.667 -179 -83c-20.667 -31.333 -31 -82.333 -31 -153zM475 1075l-0.000976562 -630h99
c66 0 116.833 4.83301 152.5 14.5s67.834 27.5 96.501 53.5c66 59.333 99 137 99 233c0 117.333 -37 206.333 -111 267c-40.667 34 -89.334 54 -146.001 60c-15.333 1.33301 -50.666 2 -105.999 2h-84z" />
    <glyph glyph-name="germandbls" unicode="&#xdf;" horiz-adv-x="964" 
d="M15 20c40 5.33301 68.666 12.8369 85.999 22.5039s31.333 26.167 42 49.5c7.33301 15.333 12.5 38.5 15.5 69.5s4.5 75.5 4.5 133.5v731c0 60.667 10.333 116.5 31 167.5s50 93.5 88 127.5c58.667 52.667 132 79 220 79c50 0 97 -8 141 -24s79.667 -38 107 -66
c50 -50.667 75 -118.334 75 -203.001c0 -38.667 -5 -69.667 -15 -93c-4.66699 -10.667 -10 -19.334 -16 -26.001s-18 -18.334 -36 -35.001l-173 -152c-22.667 -20 -34 -34.333 -34 -43c0 -6.66699 5.33301 -16 16 -28l37 -41c63.333 -72 130 -157.333 200 -256
c37.333 -52.667 63.166 -95 77.499 -127s21.5 -63.333 21.5 -94c0 -32 -7.66699 -63.667 -23 -95c-21.333 -43.333 -53.333 -76.666 -96 -99.999s-93.667 -35 -153 -35c-74 0 -137 14.667 -189 44s-78 64.666 -78 105.999c0 20 6.5 36.5 19.5 49.5s29.5 19.5 49.5 19.5
c20.667 0 37.5 -6.5 50.5 -19.5s24.167 -34.167 33.5 -63.5c13.333 -41.333 28 -69.333 44 -84c20.667 -20 47.667 -30 81 -30c35.333 0 64.833 12.5 88.5 37.5s35.5 56.5 35.5 94.5c0 21.333 -4.33301 43.166 -13 65.499s-24 50.166 -46 83.499
c-18.667 28.667 -48.167 70.5 -88.5 125.5s-74.833 100.167 -103.5 135.5l-59 74c-18 22.667 -27 41.334 -27 56.001c0 16 9 32.667 27 50l69 64c50 47.333 85.667 95 107 143s32 104.667 32 170c0 89.333 -15 157.5 -45 204.5s-74 70.5 -132 70.5
c-27.333 0 -53.166 -6.33301 -77.499 -19s-43.166 -29.667 -56.499 -51c-14.667 -22 -25 -52.333 -31 -91s-9 -92.667 -9 -162v-1055h-298v20z" />
    <glyph glyph-name="agrave" unicode="&#xe0;" horiz-adv-x="874" 
d="M882 97l16.9971 -9.99805c-24 -70 -79 -105 -165 -105c-47.333 0 -86.666 11.667 -117.999 35c-20.667 15.333 -42 42 -64 80c-44.667 -40 -78.334 -66.333 -101.001 -79c-43.333 -24 -93.666 -36 -150.999 -36c-73.333 0 -131.5 17.667 -174.5 53s-64.5 83 -64.5 143
c0 55.333 17.667 101.666 53 138.999c20 20.667 43 37.167 69 49.5s63.667 24.833 113 37.5c58 14.667 100.833 27 128.5 37s50.834 22 69.501 36c21.333 15.333 36 33.333 44 54s12 49.334 12 86.001c0 78 -14.667 135 -44 171c-13.333 16.667 -30.5 30 -51.5 40
s-42.833 15 -65.5 15c-27.333 0 -51.666 -7 -72.999 -21s-37.333 -33.333 -48 -58l-25 -58c-13.333 -31.333 -37.333 -47 -72 -47c-22.667 0 -41.667 7.5 -57 22.5s-23 33.833 -23 56.5c0 34 24 62.667 72 86c26 12 58.167 21.833 96.5 29.5s75.833 11.5 112.5 11.5
c41.333 0 84.333 -5.33301 129 -16s82 -24.334 112 -41.001c43.333 -24.667 70.333 -56.667 81 -96c5.33301 -20 8 -53.667 8 -101v-370c0 -62.667 2.66699 -105.334 8 -128.001c11.333 -47.333 38.666 -71 81.999 -71c20.667 0 36.834 3.66699 48.501 11s25.5 22 41.5 44z
M551.997 491.002c-36 -30 -75.665 -56.334 -118.998 -79.001c-48.667 -26 -82.334 -45.667 -101.001 -59s-35.667 -29.333 -51 -48c-31.333 -38.667 -47 -83.667 -47 -135c0 -44 12.167 -80.333 36.5 -109s55.166 -43 92.499 -43c32.667 0 63.5 10.167 92.5 30.5
s50.833 47.5 65.5 81.5c20.667 44.667 31 109.334 31 194.001v167zM524.999 1000h-49l-320 273h186z" />
    <glyph glyph-name="aacute" unicode="&#xe1;" horiz-adv-x="874" 
d="M882 97l16.9971 -9.99805c-24 -70 -79 -105 -165 -105c-47.333 0 -86.666 11.667 -117.999 35c-20.667 15.333 -42 42 -64 80c-44.667 -40 -78.334 -66.333 -101.001 -79c-43.333 -24 -93.666 -36 -150.999 -36c-73.333 0 -131.5 17.667 -174.5 53s-64.5 83 -64.5 143
c0 55.333 17.667 101.666 53 138.999c20 20.667 43 37.167 69 49.5s63.667 24.833 113 37.5c58 14.667 100.833 27 128.5 37s50.834 22 69.501 36c21.333 15.333 36 33.333 44 54s12 49.334 12 86.001c0 78 -14.667 135 -44 171c-13.333 16.667 -30.5 30 -51.5 40
s-42.833 15 -65.5 15c-27.333 0 -51.666 -7 -72.999 -21s-37.333 -33.333 -48 -58l-25 -58c-13.333 -31.333 -37.333 -47 -72 -47c-22.667 0 -41.667 7.5 -57 22.5s-23 33.833 -23 56.5c0 34 24 62.667 72 86c26 12 58.167 21.833 96.5 29.5s75.833 11.5 112.5 11.5
c41.333 0 84.333 -5.33301 129 -16s82 -24.334 112 -41.001c43.333 -24.667 70.333 -56.667 81 -96c5.33301 -20 8 -53.667 8 -101v-370c0 -62.667 2.66699 -105.334 8 -128.001c11.333 -47.333 38.666 -71 81.999 -71c20.667 0 36.834 3.66699 48.501 11s25.5 22 41.5 44z
M551.997 491.002c-36 -30 -75.665 -56.334 -118.998 -79.001c-48.667 -26 -82.334 -45.667 -101.001 -59s-35.667 -29.333 -51 -48c-31.333 -38.667 -47 -83.667 -47 -135c0 -44 12.167 -80.333 36.5 -109s55.166 -43 92.499 -43c32.667 0 63.5 10.167 92.5 30.5
s50.833 47.5 65.5 81.5c20.667 44.667 31 109.334 31 194.001v167zM320.999 1000l183 273h186l-320 -273h-49z" />
    <glyph glyph-name="acircumflex" unicode="&#xe2;" horiz-adv-x="874" 
d="M882 97l16.9971 -9.99805c-24 -70 -79 -105 -165 -105c-47.333 0 -86.666 11.667 -117.999 35c-20.667 15.333 -42 42 -64 80c-44.667 -40 -78.334 -66.333 -101.001 -79c-43.333 -24 -93.666 -36 -150.999 -36c-73.333 0 -131.5 17.667 -174.5 53s-64.5 83 -64.5 143
c0 55.333 17.667 101.666 53 138.999c20 20.667 43 37.167 69 49.5s63.667 24.833 113 37.5c58 14.667 100.833 27 128.5 37s50.834 22 69.501 36c21.333 15.333 36 33.333 44 54s12 49.334 12 86.001c0 78 -14.667 135 -44 171c-13.333 16.667 -30.5 30 -51.5 40
s-42.833 15 -65.5 15c-27.333 0 -51.666 -7 -72.999 -21s-37.333 -33.333 -48 -58l-25 -58c-13.333 -31.333 -37.333 -47 -72 -47c-22.667 0 -41.667 7.5 -57 22.5s-23 33.833 -23 56.5c0 34 24 62.667 72 86c26 12 58.167 21.833 96.5 29.5s75.833 11.5 112.5 11.5
c41.333 0 84.333 -5.33301 129 -16s82 -24.334 112 -41.001c43.333 -24.667 70.333 -56.667 81 -96c5.33301 -20 8 -53.667 8 -101v-370c0 -62.667 2.66699 -105.334 8 -128.001c11.333 -47.333 38.666 -71 81.999 -71c20.667 0 36.834 3.66699 48.501 11s25.5 22 41.5 44z
M551.997 491.002c-36 -30 -75.665 -56.334 -118.998 -79.001c-48.667 -26 -82.334 -45.667 -101.001 -59s-35.667 -29.333 -51 -48c-31.333 -38.667 -47 -83.667 -47 -135c0 -44 12.167 -80.333 36.5 -109s55.166 -43 92.499 -43c32.667 0 63.5 10.167 92.5 30.5
s50.833 47.5 65.5 81.5c20.667 44.667 31 109.334 31 194.001v167zM411.999 1168l-224 -146h-48l257 281h30l257 -281h-48z" />
    <glyph glyph-name="atilde" unicode="&#xe3;" horiz-adv-x="874" 
d="M882 97l16.9971 -9.99805c-24 -70 -79 -105 -165 -105c-47.333 0 -86.666 11.667 -117.999 35c-20.667 15.333 -42 42 -64 80c-44.667 -40 -78.334 -66.333 -101.001 -79c-43.333 -24 -93.666 -36 -150.999 -36c-73.333 0 -131.5 17.667 -174.5 53s-64.5 83 -64.5 143
c0 55.333 17.667 101.666 53 138.999c20 20.667 43 37.167 69 49.5s63.667 24.833 113 37.5c58 14.667 100.833 27 128.5 37s50.834 22 69.501 36c21.333 15.333 36 33.333 44 54s12 49.334 12 86.001c0 78 -14.667 135 -44 171c-13.333 16.667 -30.5 30 -51.5 40
s-42.833 15 -65.5 15c-27.333 0 -51.666 -7 -72.999 -21s-37.333 -33.333 -48 -58l-25 -58c-13.333 -31.333 -37.333 -47 -72 -47c-22.667 0 -41.667 7.5 -57 22.5s-23 33.833 -23 56.5c0 34 24 62.667 72 86c26 12 58.167 21.833 96.5 29.5s75.833 11.5 112.5 11.5
c41.333 0 84.333 -5.33301 129 -16s82 -24.334 112 -41.001c43.333 -24.667 70.333 -56.667 81 -96c5.33301 -20 8 -53.667 8 -101v-370c0 -62.667 2.66699 -105.334 8 -128.001c11.333 -47.333 38.666 -71 81.999 -71c20.667 0 36.834 3.66699 48.501 11s25.5 22 41.5 44z
M551.997 491.002c-36 -30 -75.665 -56.334 -118.998 -79.001c-48.667 -26 -82.334 -45.667 -101.001 -59s-35.667 -29.333 -51 -48c-31.333 -38.667 -47 -83.667 -47 -135c0 -44 12.167 -80.333 36.5 -109s55.166 -43 92.499 -43c32.667 0 63.5 10.167 92.5 30.5
s50.833 47.5 65.5 81.5c20.667 44.667 31 109.334 31 194.001v167zM613.999 1223l20.002 0.000976562c2 -14.667 3 -25.334 3 -32.001c0 -40.667 -11 -74.167 -33 -100.5s-50 -39.5 -84 -39.5c-40 0 -82.333 12.667 -127 38l-51 29c-24.667 14 -47.667 21 -69 21
c-40.667 0 -63.334 -22 -68.001 -66h-20c-0.666992 9.33301 -1 16.333 -1 21c0 46 10.167 82.333 30.5 109s47.833 40 82.5 40c30 0 65.333 -10.667 106 -32l50 -26c37.333 -20 68.666 -30 93.999 -30c20 0 34.667 4.66699 44 14s17 27.333 23 54z" />
    <glyph glyph-name="adieresis" unicode="&#xe4;" horiz-adv-x="874" 
d="M882 97l16.9971 -9.99805c-24 -70 -79 -105 -165 -105c-47.333 0 -86.666 11.667 -117.999 35c-20.667 15.333 -42 42 -64 80c-44.667 -40 -78.334 -66.333 -101.001 -79c-43.333 -24 -93.666 -36 -150.999 -36c-73.333 0 -131.5 17.667 -174.5 53s-64.5 83 -64.5 143
c0 55.333 17.667 101.666 53 138.999c20 20.667 43 37.167 69 49.5s63.667 24.833 113 37.5c58 14.667 100.833 27 128.5 37s50.834 22 69.501 36c21.333 15.333 36 33.333 44 54s12 49.334 12 86.001c0 78 -14.667 135 -44 171c-13.333 16.667 -30.5 30 -51.5 40
s-42.833 15 -65.5 15c-27.333 0 -51.666 -7 -72.999 -21s-37.333 -33.333 -48 -58l-25 -58c-13.333 -31.333 -37.333 -47 -72 -47c-22.667 0 -41.667 7.5 -57 22.5s-23 33.833 -23 56.5c0 34 24 62.667 72 86c26 12 58.167 21.833 96.5 29.5s75.833 11.5 112.5 11.5
c41.333 0 84.333 -5.33301 129 -16s82 -24.334 112 -41.001c43.333 -24.667 70.333 -56.667 81 -96c5.33301 -20 8 -53.667 8 -101v-370c0 -62.667 2.66699 -105.334 8 -128.001c11.333 -47.333 38.666 -71 81.999 -71c20.667 0 36.834 3.66699 48.501 11s25.5 22 41.5 44z
M551.997 491.002c-36 -30 -75.665 -56.334 -118.998 -79.001c-48.667 -26 -82.334 -45.667 -101.001 -59s-35.667 -29.333 -51 -48c-31.333 -38.667 -47 -83.667 -47 -135c0 -44 12.167 -80.333 36.5 -109s55.166 -43 92.499 -43c32.667 0 63.5 10.167 92.5 30.5
s50.833 47.5 65.5 81.5c20.667 44.667 31 109.334 31 194.001v167zM238.999 1240c24.667 0 45.667 -8.66699 63 -26s26 -38.333 26 -63c0 -24 -8.66699 -44.667 -26 -62s-38.333 -26 -63 -26s-45.667 8.5 -63 25.5s-26 37.833 -26 62.5s8.66699 45.667 26 63
s38.333 26 63 26zM579.999 1240c24 0 44.667 -8.66699 62 -26s26 -38 26 -62c0 -24.667 -8.66699 -45.5 -26 -62.5s-38 -25.5 -62 -25.5c-24.667 0 -45.5 8.5 -62.5 25.5s-25.5 37.833 -25.5 62.5c0 24 8.5 44.667 25.5 62s37.833 26 62.5 26z" />
    <glyph glyph-name="aring" unicode="&#xe5;" horiz-adv-x="874" 
d="M882 97l16.9971 -9.99805c-24 -70 -79 -105 -165 -105c-47.333 0 -86.666 11.667 -117.999 35c-20.667 15.333 -42 42 -64 80c-44.667 -40 -78.334 -66.333 -101.001 -79c-43.333 -24 -93.666 -36 -150.999 -36c-73.333 0 -131.5 17.667 -174.5 53s-64.5 83 -64.5 143
c0 55.333 17.667 101.666 53 138.999c20 20.667 43 37.167 69 49.5s63.667 24.833 113 37.5c58 14.667 100.833 27 128.5 37s50.834 22 69.501 36c21.333 15.333 36 33.333 44 54s12 49.334 12 86.001c0 78 -14.667 135 -44 171c-13.333 16.667 -30.5 30 -51.5 40
s-42.833 15 -65.5 15c-27.333 0 -51.666 -7 -72.999 -21s-37.333 -33.333 -48 -58l-25 -58c-13.333 -31.333 -37.333 -47 -72 -47c-22.667 0 -41.667 7.5 -57 22.5s-23 33.833 -23 56.5c0 34 24 62.667 72 86c26 12 58.167 21.833 96.5 29.5s75.833 11.5 112.5 11.5
c41.333 0 84.333 -5.33301 129 -16s82 -24.334 112 -41.001c43.333 -24.667 70.333 -56.667 81 -96c5.33301 -20 8 -53.667 8 -101v-370c0 -62.667 2.66699 -105.334 8 -128.001c11.333 -47.333 38.666 -71 81.999 -71c20.667 0 36.834 3.66699 48.501 11s25.5 22 41.5 44z
M551.997 491.002c-36 -30 -75.665 -56.334 -118.998 -79.001c-48.667 -26 -82.334 -45.667 -101.001 -59s-35.667 -29.333 -51 -48c-31.333 -38.667 -47 -83.667 -47 -135c0 -44 12.167 -80.333 36.5 -109s55.166 -43 92.499 -43c32.667 0 63.5 10.167 92.5 30.5
s50.833 47.5 65.5 81.5c20.667 44.667 31 109.334 31 194.001v167zM408.999 1313c45.333 0 84 -16 116 -48s48 -70.333 48 -115c0 -45.333 -16 -84 -48 -116s-70.667 -48 -116 -48s-84 16 -116 48s-48 70.667 -48 116c0 44.667 16 83 48 115s70.667 48 116 48zM408.999 1262
c-31.333 0 -57.833 -11 -79.5 -33s-32.5 -48.333 -32.5 -79c0 -31.333 10.833 -57.833 32.5 -79.5s48.167 -32.5 79.5 -32.5c30.667 0 57 10.833 79 32.5s33 48.167 33 79.5c0 30.667 -11 57 -33 79s-48.333 33 -79 33z" />
    <glyph glyph-name="ae" unicode="&#xe6;" horiz-adv-x="1400" 
d="M648 112c-58 -44 -102.668 -72.998 -134.001 -86.998c-62 -28.667 -130.333 -43 -205 -43c-77.333 0 -138 17.333 -182 52s-66 82.667 -66 144c0 55.333 17.667 101.666 53 138.999c20 20.667 43 37.167 69 49.5s63.667 24.833 113 37.5c58 14.667 100.833 27 128.5 37
s50.834 22 69.501 36c21.333 15.333 36 33.166 44 53.499s12 49.166 12 86.499c0 78 -14.667 135 -44 171c-13.333 16.667 -30.5 30 -51.5 40s-42.833 15 -65.5 15c-27.333 0 -51.666 -7 -72.999 -21s-37.333 -33.333 -48 -58l-25 -58c-13.333 -31.333 -37.333 -47 -72 -47
c-22.667 0 -41.667 7.5 -57 22.5s-23 33.833 -23 56.5c0 34 24 62.667 72 86c26 12 58.167 21.833 96.5 29.5s76.166 11.5 113.499 11.5c66 0 130.333 -11.667 193 -35c29.333 -10.667 51.666 -21.167 66.999 -31.5s30.333 -25.166 45 -44.499
c34.667 34.667 77.834 61.834 129.501 81.501s104.834 29.5 159.501 29.5c53.333 0 102.5 -9.66699 147.5 -29s83.167 -47 114.5 -83c48.667 -55.333 73 -125 73 -209h-587c-2.66699 -32.667 -4 -56.334 -4 -71.001c0 -58 8.66699 -114.667 26 -170s40.333 -101.333 69 -138
c30 -37.333 67.333 -66.666 112 -87.999s91 -32 139 -32c36 0 70.167 6 102.5 18s59.166 28.667 80.499 50c24 23.333 44.667 60.666 62 111.999l20 -7c-35.333 -157.333 -149 -236 -341 -236c-148.667 0 -259.667 43.333 -333 130zM1154 582.002
c-5.33301 67.333 -18 119.001 -38 155.001c-18 32.667 -42 58.5 -72 77.5s-62 28.5 -96 28.5c-57.333 0 -107.5 -24.833 -150.5 -74.5s-68.5 -111.834 -76.5 -186.501h433zM551.999 491.003c-36 -30 -75.665 -56.334 -118.998 -79.001
c-48.667 -26 -82.334 -45.667 -101.001 -59s-35.667 -29.333 -51 -48c-31.333 -39.333 -47 -84.333 -47 -135c0 -44.667 12.167 -81.167 36.5 -109.5s55.166 -42.5 92.499 -42.5c32.667 0 63.5 10.167 92.5 30.5s50.833 47.5 65.5 81.5c20.667 44.667 31 109.334 31 194.001
v167z" />
    <glyph glyph-name="ccedilla" unicode="&#xe7;" horiz-adv-x="852" 
d="M490 -18l-36 -102.002c42.667 -6.66699 75.667 -17 99 -31c40.667 -24 61 -56.333 61 -97c0 -40 -17.333 -73 -52 -99s-78.667 -39 -132 -39s-109.333 13.667 -168 41l11 17c45.333 -17.333 83 -26 113 -26c34 0 62.333 10 85 30s34 45 34 75
c0 48 -37.667 83.333 -113 106l46 127c-80 8 -146 29 -198 63c-56.667 36.667 -100.667 85.834 -132 147.501s-47 129.834 -47 204.501c0 63.333 11.667 124.666 35 183.999c34.667 90 88.667 159.5 162 208.5s160.666 73.5 261.999 73.5
c96.667 0 172.334 -21.667 227.001 -65c33.333 -26.667 50 -56 50 -88c0 -21.333 -7 -39.166 -21 -53.499s-31 -21.5 -51 -21.5c-43.333 0 -75.333 31.667 -96 95c-9.33301 29.333 -16.833 49.333 -22.5 60s-13.834 20 -24.501 28c-20.667 15.333 -46 23 -76 23
c-39.333 0 -75.666 -11 -108.999 -33c-29.333 -19.333 -54.166 -43.5 -74.499 -72.5s-38.166 -65.5 -53.499 -109.5c-23.333 -67.333 -35 -133.333 -35 -198c0 -59.333 10.667 -117.333 32 -174s50.333 -104 87 -142c57.333 -60 124.666 -90 201.999 -90
c64 0 117 20.333 159 61c21.333 21.333 41.666 56 60.999 104l20 -8c-23.333 -70 -59 -120.667 -107 -152s-114 -47 -198 -47z" />
    <glyph glyph-name="egrave" unicode="&#xe8;" horiz-adv-x="923" 
d="M238 544c-2.66699 -32.667 -3.99609 -56.333 -3.99609 -71c0 -58 8.5 -114.667 25.5 -170s40.167 -101.333 69.5 -138c30 -37.333 67.167 -66.666 111.5 -87.999s90.833 -32 139.5 -32c36 0 70.167 6 102.5 18s59.166 28.667 80.499 50
c24 23.333 44.667 60.666 62 111.999l20 -7c-17.333 -78 -54.5 -136.833 -111.5 -176.5s-132.833 -59.5 -227.5 -59.5c-82 0 -152.333 13 -211 39s-108.334 66 -149.001 120c-56.667 75.333 -85 168 -85 278c0 150 53.667 267.667 161 353c78 62 167 93 267 93
c53.333 0 102.666 -9.5 147.999 -28.5s83.666 -46.5 114.999 -82.5c48.667 -56 73 -126 73 -210h-587zM676.004 583.001c-4.66699 66.667 -17 118 -37 154c-18 32.667 -42 58.5 -72 77.5s-62 28.5 -96 28.5c-57.333 0 -107.5 -24.667 -150.5 -74s-68.5 -111.333 -76.5 -186
h432zM550.004 1000h-49l-320 273h186z" />
    <glyph glyph-name="eacute" unicode="&#xe9;" horiz-adv-x="923" 
d="M238 544c-2.66699 -32.667 -3.99609 -56.333 -3.99609 -71c0 -58 8.5 -114.667 25.5 -170s40.167 -101.333 69.5 -138c30 -37.333 67.167 -66.666 111.5 -87.999s90.833 -32 139.5 -32c36 0 70.167 6 102.5 18s59.166 28.667 80.499 50
c24 23.333 44.667 60.666 62 111.999l20 -7c-17.333 -78 -54.5 -136.833 -111.5 -176.5s-132.833 -59.5 -227.5 -59.5c-82 0 -152.333 13 -211 39s-108.334 66 -149.001 120c-56.667 75.333 -85 168 -85 278c0 150 53.667 267.667 161 353c78 62 167 93 267 93
c53.333 0 102.666 -9.5 147.999 -28.5s83.666 -46.5 114.999 -82.5c48.667 -56 73 -126 73 -210h-587zM676.004 583.001c-4.66699 66.667 -17 118 -37 154c-18 32.667 -42 58.5 -72 77.5s-62 28.5 -96 28.5c-57.333 0 -107.5 -24.667 -150.5 -74s-68.5 -111.333 -76.5 -186
h432zM386.004 1000l183 273h186l-320 -273h-49z" />
    <glyph glyph-name="ecircumflex" unicode="&#xea;" horiz-adv-x="923" 
d="M238 544c-2.66699 -32.667 -3.99609 -56.333 -3.99609 -71c0 -58 8.5 -114.667 25.5 -170s40.167 -101.333 69.5 -138c30 -37.333 67.167 -66.666 111.5 -87.999s90.833 -32 139.5 -32c36 0 70.167 6 102.5 18s59.166 28.667 80.499 50
c24 23.333 44.667 60.666 62 111.999l20 -7c-17.333 -78 -54.5 -136.833 -111.5 -176.5s-132.833 -59.5 -227.5 -59.5c-82 0 -152.333 13 -211 39s-108.334 66 -149.001 120c-56.667 75.333 -85 168 -85 278c0 150 53.667 267.667 161 353c78 62 167 93 267 93
c53.333 0 102.666 -9.5 147.999 -28.5s83.666 -46.5 114.999 -82.5c48.667 -56 73 -126 73 -210h-587zM676.004 583.001c-4.66699 66.667 -17 118 -37 154c-18 32.667 -42 58.5 -72 77.5s-62 28.5 -96 28.5c-57.333 0 -107.5 -24.667 -150.5 -74s-68.5 -111.333 -76.5 -186
h432zM470.004 1168l-224 -146h-48l257 281h30l257 -281h-48z" />
    <glyph glyph-name="edieresis" unicode="&#xeb;" horiz-adv-x="923" 
d="M238 544c-2.66699 -32.667 -3.99609 -56.333 -3.99609 -71c0 -58 8.5 -114.667 25.5 -170s40.167 -101.333 69.5 -138c30 -37.333 67.167 -66.666 111.5 -87.999s90.833 -32 139.5 -32c36 0 70.167 6 102.5 18s59.166 28.667 80.499 50
c24 23.333 44.667 60.666 62 111.999l20 -7c-17.333 -78 -54.5 -136.833 -111.5 -176.5s-132.833 -59.5 -227.5 -59.5c-82 0 -152.333 13 -211 39s-108.334 66 -149.001 120c-56.667 75.333 -85 168 -85 278c0 150 53.667 267.667 161 353c78 62 167 93 267 93
c53.333 0 102.666 -9.5 147.999 -28.5s83.666 -46.5 114.999 -82.5c48.667 -56 73 -126 73 -210h-587zM676.004 583.001c-4.66699 66.667 -17 118 -37 154c-18 32.667 -42 58.5 -72 77.5s-62 28.5 -96 28.5c-57.333 0 -107.5 -24.667 -150.5 -74s-68.5 -111.333 -76.5 -186
h432zM291.004 1240c24.667 0 45.667 -8.66699 63 -26s26 -38.333 26 -63c0 -24 -8.66699 -44.667 -26 -62s-38.333 -26 -63 -26s-45.667 8.5 -63 25.5s-26 37.833 -26 62.5s8.66699 45.667 26 63s38.333 26 63 26zM632.004 1240c24 0 44.667 -8.66699 62 -26s26 -38 26 -62
c0 -24.667 -8.66699 -45.5 -26 -62.5s-38 -25.5 -62 -25.5c-24.667 0 -45.5 8.5 -62.5 25.5s-25.5 37.833 -25.5 62.5c0 24 8.5 44.667 25.5 62s37.833 26 62.5 26z" />
    <glyph glyph-name="igrave" unicode="&#xec;" horiz-adv-x="496" 
d="M38 831l287 35.999v-578l1 -76c0 -45.333 2.66699 -78.5 8 -99.5s15.666 -38.5 30.999 -52.5c18.667 -18 53 -31.667 103 -41v-20h-441v20c40 5.33301 68.667 12.833 86 22.5s31.333 26.167 42 49.5c7.33301 15.333 12.5 38.5 15.5 69.5s4.5 75.833 4.5 134.5v247
c0 68.667 -1.66699 116.834 -5 144.501s-10.666 50.167 -21.999 67.5c-11.333 18.667 -25 32.167 -41 40.5s-39 13.5 -69 15.5v20zM323 999.999h-49l-320 273h186z" />
    <glyph glyph-name="iacute" unicode="&#xed;" horiz-adv-x="496" 
d="M38 831l287 35.999v-578l1 -76c0 -45.333 2.66699 -78.5 8 -99.5s15.666 -38.5 30.999 -52.5c18.667 -18 53 -31.667 103 -41v-20h-441v20c40 5.33301 68.667 12.833 86 22.5s31.333 26.167 42 49.5c7.33301 15.333 12.5 38.5 15.5 69.5s4.5 75.833 4.5 134.5v247
c0 68.667 -1.66699 116.834 -5 144.501s-10.666 50.167 -21.999 67.5c-11.333 18.667 -25 32.167 -41 40.5s-39 13.5 -69 15.5v20zM132 999.999l183 273h186l-320 -273h-49z" />
    <glyph glyph-name="icircumflex" unicode="&#xee;" horiz-adv-x="496" 
d="M38 831l287 35.999v-578l1 -76c0 -45.333 2.66699 -78.5 8 -99.5s15.666 -38.5 30.999 -52.5c18.667 -18 53 -31.667 103 -41v-20h-441v20c40 5.33301 68.667 12.833 86 22.5s31.333 26.167 42 49.5c7.33301 15.333 12.5 38.5 15.5 69.5s4.5 75.833 4.5 134.5v247
c0 68.667 -1.66699 116.834 -5 144.501s-10.666 50.167 -21.999 67.5c-11.333 18.667 -25 32.167 -41 40.5s-39 13.5 -69 15.5v20zM230 1168l-224 -146h-48l257 281h30l257 -281h-48z" />
    <glyph glyph-name="idieresis" unicode="&#xef;" horiz-adv-x="496" 
d="M38 831l287 35.999v-578l1 -76c0 -45.333 2.66699 -78.5 8 -99.5s15.666 -38.5 30.999 -52.5c18.667 -18 53 -31.667 103 -41v-20h-441v20c40 5.33301 68.667 12.833 86 22.5s31.333 26.167 42 49.5c7.33301 15.333 12.5 38.5 15.5 69.5s4.5 75.833 4.5 134.5v247
c0 68.667 -1.66699 116.834 -5 144.501s-10.666 50.167 -21.999 67.5c-11.333 18.667 -25 32.167 -41 40.5s-39 13.5 -69 15.5v20zM126 1240c24 0 44.833 -8.66699 62.5 -26s26.5 -38.333 26.5 -63c0 -24 -8.83301 -44.667 -26.5 -62s-38.5 -26 -62.5 -26
c-24.667 0 -45.667 8.5 -63 25.5s-26 37.833 -26 62.5s8.66699 45.667 26 63s38.333 26 63 26zM371 1240c24 0 44.667 -8.66699 62 -26s26 -38 26 -62c0 -24.667 -8.66699 -45.5 -26 -62.5s-38 -25.5 -62 -25.5s-44.667 8.5 -62 25.5s-26 37.833 -26 62.5
c0 24 8.66699 44.667 26 62s38 26 62 26z" />
    <glyph glyph-name="eth" unicode="&#xf0;" horiz-adv-x="1060" 
d="M615 1144l-173.999 -113.001l-25 38l177 115c-44.667 78.667 -87.334 143.334 -128.001 194.001l19 16c43.333 -42 92.333 -95.667 147 -161l13 -16l180 117l25 -38l-176 -114l13 -16c116 -145.333 198.667 -283.333 248 -414c42.667 -115.333 64 -222.333 64 -321
c0 -114 -38 -212.333 -114 -295c-94 -102.667 -212 -154 -354 -154c-143.333 0 -261.666 51.333 -354.999 154c-76 83.333 -114 179 -114 287c0 106.667 40 202.667 120 288c96.667 102.667 213 154 349 154c64.667 0 130.667 -14.667 198 -44
c-16.667 99.333 -54.334 207 -113.001 323zM520.001 844.999c-76.667 0 -143.334 -40.001 -200.001 -120.001s-85 -178 -85 -294c0 -114.667 26.667 -212.667 80 -294c29.333 -43.333 62.833 -76.666 100.5 -99.999s77.834 -35 120.501 -35c38 0 74.333 9.83301 109 29.5
s64.667 47.5 90 83.5c26.667 38.667 48.167 86.167 64.5 142.5s24.5 111.833 24.5 166.5c0 54 -8.83301 109 -26.5 165s-41.167 103.333 -70.5 142c-56.667 76 -125.667 114 -207 114z" />
    <glyph glyph-name="ntilde" unicode="&#xf1;" horiz-adv-x="1066" 
d="M311 867c9.33301 -38.667 14.001 -74.667 14.001 -108v-16c82.667 81.333 181 122 295 122c85.333 0 154 -20 206 -60c51.333 -39.333 77 -95.333 77 -168v-424c0 -45.333 2.66699 -78.5 8 -99.5s15.666 -38.5 30.999 -52.5c18.667 -18 53 -31.667 103 -41v-20h-441v20
c40 5.33301 68.667 12.833 86 22.5s31.333 26.167 42 49.5c7.33301 15.333 12.5 38.5 15.5 69.5s4.5 75.5 4.5 133.5v212c0 72.667 -2.5 126 -7.5 160s-14.5 61.333 -28.5 82c-15.333 23.333 -37.333 41.5 -66 54.5s-60.334 19.5 -95.001 19.5
c-37.333 0 -72.166 -7.33301 -104.499 -22s-57.833 -34.667 -76.5 -60c-20 -26.667 -33.167 -56.834 -39.5 -90.501s-9.5 -89.5 -9.5 -167.5v-196l1 -74c0 -45.333 2.66699 -78.5 8 -99.5s15.666 -38.5 30.999 -52.5c18.667 -18 53 -31.667 103 -41v-20h-441v20
c40 5.33301 68.667 12.833 86 22.5s31.333 26.167 42 49.5c7.33301 15.333 12.5 38.5 15.5 69.5s4.5 75.833 4.5 134.5v247c0 68.667 -1.66699 116.834 -5 144.501s-10.666 50.167 -21.999 67.5c-11.333 18.667 -25 32.167 -41 40.5s-39 13.5 -69 15.5v20zM765.001 1223
l20.002 0.000976562c2 -14.667 3 -25.334 3 -32.001c0 -40.667 -11 -74.167 -33 -100.5s-50 -39.5 -84 -39.5c-40 0 -82.333 12.667 -127 38l-51 29c-24.667 14 -47.667 21 -69 21c-40.667 0 -63.334 -22 -68.001 -66h-20c-0.666992 9.33301 -1 16.333 -1 21
c0 46 10.167 82.333 30.5 109s47.833 40 82.5 40c30 0 65.333 -10.667 106 -32l50 -26c37.333 -20 68.666 -30 93.999 -30c20 0 34.667 4.66699 44 14s17 27.333 23 54z" />
    <glyph glyph-name="ograve" unicode="&#xf2;" horiz-adv-x="1060" 
d="M61 422c0 108 40.002 204.333 120.002 289c97.333 102.667 213.666 154 348.999 154s251.333 -51.333 348 -154c80 -85.333 120 -182 120 -290c0 -106.667 -38 -201.667 -114 -285c-93.333 -102.667 -211.333 -154 -354 -154s-261 51.333 -355 154
c-36.667 40 -64.834 84.667 -84.501 134s-29.5 100 -29.5 152zM243.002 433c0 -116 25.999 -214.333 77.999 -295c58.667 -90 130.334 -135 215.001 -135c36 0 71 10 105 30s63.333 48 88 84c26 37.333 47 84.166 63 140.499s24 110.833 24 163.5
c0 54.667 -8.5 109.834 -25.5 165.501s-39.833 103.5 -68.5 143.5c-54.667 75.333 -121.667 113 -201 113c-75.333 0 -140.333 -39.667 -195 -119c-55.333 -79.333 -83 -176.333 -83 -291zM646.001 1000h-49l-320 273h186z" />
    <glyph glyph-name="oacute" unicode="&#xf3;" horiz-adv-x="1060" 
d="M61 422c0 108 40.002 204.333 120.002 289c97.333 102.667 213.666 154 348.999 154s251.333 -51.333 348 -154c80 -85.333 120 -182 120 -290c0 -106.667 -38 -201.667 -114 -285c-93.333 -102.667 -211.333 -154 -354 -154s-261 51.333 -355 154
c-36.667 40 -64.834 84.667 -84.501 134s-29.5 100 -29.5 152zM243.002 433c0 -116 25.999 -214.333 77.999 -295c58.667 -90 130.334 -135 215.001 -135c36 0 71 10 105 30s63.333 48 88 84c26 37.333 47 84.166 63 140.499s24 110.833 24 163.5
c0 54.667 -8.5 109.834 -25.5 165.501s-39.833 103.5 -68.5 143.5c-54.667 75.333 -121.667 113 -201 113c-75.333 0 -140.333 -39.667 -195 -119c-55.333 -79.333 -83 -176.333 -83 -291zM414.001 1000l183 273h186l-320 -273h-49z" />
    <glyph glyph-name="ocircumflex" unicode="&#xf4;" horiz-adv-x="1060" 
d="M61 422c0 108 40.002 204.333 120.002 289c97.333 102.667 213.666 154 348.999 154s251.333 -51.333 348 -154c80 -85.333 120 -182 120 -290c0 -106.667 -38 -201.667 -114 -285c-93.333 -102.667 -211.333 -154 -354 -154s-261 51.333 -355 154
c-36.667 40 -64.834 84.667 -84.501 134s-29.5 100 -29.5 152zM243.002 433c0 -116 25.999 -214.333 77.999 -295c58.667 -90 130.334 -135 215.001 -135c36 0 71 10 105 30s63.333 48 88 84c26 37.333 47 84.166 63 140.499s24 110.833 24 163.5
c0 54.667 -8.5 109.834 -25.5 165.501s-39.833 103.5 -68.5 143.5c-54.667 75.333 -121.667 113 -201 113c-75.333 0 -140.333 -39.667 -195 -119c-55.333 -79.333 -83 -176.333 -83 -291zM539.001 1168l-224 -146h-48l257 281h30l257 -281h-48z" />
    <glyph glyph-name="otilde" unicode="&#xf5;" horiz-adv-x="1060" 
d="M61 422c0 108 40.002 204.333 120.002 289c97.333 102.667 213.666 154 348.999 154s251.333 -51.333 348 -154c80 -85.333 120 -182 120 -290c0 -106.667 -38 -201.667 -114 -285c-93.333 -102.667 -211.333 -154 -354 -154s-261 51.333 -355 154
c-36.667 40 -64.834 84.667 -84.501 134s-29.5 100 -29.5 152zM243.002 433c0 -116 25.999 -214.333 77.999 -295c58.667 -90 130.334 -135 215.001 -135c36 0 71 10 105 30s63.333 48 88 84c26 37.333 47 84.166 63 140.499s24 110.833 24 163.5
c0 54.667 -8.5 109.834 -25.5 165.501s-39.833 103.5 -68.5 143.5c-54.667 75.333 -121.667 113 -201 113c-75.333 0 -140.333 -39.667 -195 -119c-55.333 -79.333 -83 -176.333 -83 -291zM735.001 1223l20.002 0.000976562c2 -14.667 3 -25.334 3 -32.001
c0 -40.667 -11 -74.167 -33 -100.5s-50 -39.5 -84 -39.5c-40 0 -82.333 12.667 -127 38l-51 29c-24.667 14 -47.667 21 -69 21c-40.667 0 -63.334 -22 -68.001 -66h-20c-0.666992 9.33301 -1 16.333 -1 21c0 46 10.167 82.333 30.5 109s47.833 40 82.5 40
c30 0 65.333 -10.667 106 -32l50 -26c37.333 -20 68.666 -30 93.999 -30c20 0 34.667 4.66699 44 14s17 27.333 23 54z" />
    <glyph glyph-name="odieresis" unicode="&#xf6;" horiz-adv-x="1060" 
d="M61 422c0 108 40.002 204.333 120.002 289c97.333 102.667 213.666 154 348.999 154s251.333 -51.333 348 -154c80 -85.333 120 -182 120 -290c0 -106.667 -38 -201.667 -114 -285c-93.333 -102.667 -211.333 -154 -354 -154s-261 51.333 -355 154
c-36.667 40 -64.834 84.667 -84.501 134s-29.5 100 -29.5 152zM243.002 433c0 -116 25.999 -214.333 77.999 -295c58.667 -90 130.334 -135 215.001 -135c36 0 71 10 105 30s63.333 48 88 84c26 37.333 47 84.166 63 140.499s24 110.833 24 163.5
c0 54.667 -8.5 109.834 -25.5 165.501s-39.833 103.5 -68.5 143.5c-54.667 75.333 -121.667 113 -201 113c-75.333 0 -140.333 -39.667 -195 -119c-55.333 -79.333 -83 -176.333 -83 -291zM360.001 1240c24.667 0 45.667 -8.66699 63 -26s26 -38.333 26 -63
c0 -24 -8.66699 -44.667 -26 -62s-38.333 -26 -63 -26s-45.667 8.5 -63 25.5s-26 37.833 -26 62.5s8.66699 45.667 26 63s38.333 26 63 26zM701.001 1240c24 0 44.667 -8.66699 62 -26s26 -38 26 -62c0 -24.667 -8.66699 -45.5 -26 -62.5s-38 -25.5 -62 -25.5
c-24.667 0 -45.5 8.5 -62.5 25.5s-25.5 37.833 -25.5 62.5c0 24 8.5 44.667 25.5 62s37.833 26 62.5 26z" />
    <glyph glyph-name="divide" unicode="&#xf7;" 
d="M66 700h874v-62h-874v62zM503 1026c23.333 0 43.166 -8.16699 59.499 -24.5s24.5 -36.166 24.5 -59.499s-8.16699 -43.166 -24.5 -59.499s-36.166 -24.5 -59.499 -24.5s-43.166 8.16699 -59.499 24.5s-24.5 36.166 -24.5 59.499s8.16699 43.166 24.5 59.499
s36.166 24.5 59.499 24.5zM503 480c23.333 0 43.166 -8.16699 59.499 -24.5s24.5 -36.166 24.5 -59.499s-8.16699 -43.166 -24.5 -59.499s-36.166 -24.5 -59.499 -24.5s-43.166 8.16699 -59.499 24.5s-24.5 36.166 -24.5 59.499s8.16699 43.166 24.5 59.499
s36.166 24.5 59.499 24.5z" />
    <glyph glyph-name="oslash" unicode="&#xf8;" horiz-adv-x="1060" 
d="M773 797l146.002 199.997h68l-170 -231c58.667 -45.333 103.5 -97.666 134.5 -156.999s46.5 -122 46.5 -188c0 -106.667 -38 -201.667 -114 -285c-93.333 -102.667 -211 -154 -353 -154c-90.667 0 -171.334 20.667 -242.001 62l-121 -167h-68l142 198
c-56.667 42.667 -101 94.334 -133 155.001s-48 124.334 -48 191.001c0 108 40 204.333 120 289c96.667 103.333 212.667 155 348 155c87.333 0 168.666 -22.667 243.999 -68zM719.002 732.997c-54.667 73.333 -120.999 110 -198.999 110
c-74.667 0 -139.334 -39.667 -194.001 -119c-55.333 -80 -83 -177.333 -83 -292c0 -106.667 22 -198 66 -274zM749.003 684.997l-406 -577c56 -70 119.667 -105 191 -105c44.667 0 85 13 121 39c53.333 36.667 94.333 94 123 172c25.333 68.667 38 137.334 38 206.001
c0 95.333 -22.333 183.666 -67 264.999z" />
    <glyph glyph-name="ugrave" unicode="&#xf9;" horiz-adv-x="1048" 
d="M747 -17c-8.66699 40 -13 80.998 -13 122.998c-83.333 -82.667 -182 -124 -296 -124c-83.333 0 -150.333 20.333 -201 61c-49.333 40 -74 96.667 -74 170v348l-1 76c0 45.333 -2.66699 78.333 -8 99s-15.333 38.334 -30 53.001c-19.333 18 -54 31.333 -104 40v21h293
v-507c0 -71.333 2.5 -124.166 7.5 -158.499s14.167 -62.5 27.5 -84.5c14.667 -22.667 35.667 -40.5 63 -53.5s58 -19.5 92 -19.5c37.333 0 72.333 7.33301 105 22s58.334 34.667 77.001 60c19.333 26 32.166 56 38.499 90s9.5 90 9.5 168v196l-1 74
c0 45.333 -2.5 78.333 -7.5 99s-15.167 38.334 -30.5 53.001c-18.667 18 -53.334 31.333 -104.001 40v21h293v-543c0 -68.667 1.83301 -116.834 5.5 -144.501s10.834 -50.167 21.501 -67.5c12 -18.667 26 -32.167 42 -40.5s39 -13.5 69 -15.5v-20zM640 999.998h-49l-320 273
h186z" />
    <glyph glyph-name="uacute" unicode="&#xfa;" horiz-adv-x="1048" 
d="M747 -17c-8.66699 40 -13 80.998 -13 122.998c-83.333 -82.667 -182 -124 -296 -124c-83.333 0 -150.333 20.333 -201 61c-49.333 40 -74 96.667 -74 170v348l-1 76c0 45.333 -2.66699 78.333 -8 99s-15.333 38.334 -30 53.001c-19.333 18 -54 31.333 -104 40v21h293
v-507c0 -71.333 2.5 -124.166 7.5 -158.499s14.167 -62.5 27.5 -84.5c14.667 -22.667 35.667 -40.5 63 -53.5s58 -19.5 92 -19.5c37.333 0 72.333 7.33301 105 22s58.334 34.667 77.001 60c19.333 26 32.166 56 38.499 90s9.5 90 9.5 168v196l-1 74
c0 45.333 -2.5 78.333 -7.5 99s-15.167 38.334 -30.5 53.001c-18.667 18 -53.334 31.333 -104.001 40v21h293v-543c0 -68.667 1.83301 -116.834 5.5 -144.501s10.834 -50.167 21.501 -67.5c12 -18.667 26 -32.167 42 -40.5s39 -13.5 69 -15.5v-20zM408 999.998l183 273h186
l-320 -273h-49z" />
    <glyph glyph-name="ucircumflex" unicode="&#xfb;" horiz-adv-x="1048" 
d="M747 -17c-8.66699 40 -13 80.998 -13 122.998c-83.333 -82.667 -182 -124 -296 -124c-83.333 0 -150.333 20.333 -201 61c-49.333 40 -74 96.667 -74 170v348l-1 76c0 45.333 -2.66699 78.333 -8 99s-15.333 38.334 -30 53.001c-19.333 18 -54 31.333 -104 40v21h293
v-507c0 -71.333 2.5 -124.166 7.5 -158.499s14.167 -62.5 27.5 -84.5c14.667 -22.667 35.667 -40.5 63 -53.5s58 -19.5 92 -19.5c37.333 0 72.333 7.33301 105 22s58.334 34.667 77.001 60c19.333 26 32.166 56 38.499 90s9.5 90 9.5 168v196l-1 74
c0 45.333 -2.5 78.333 -7.5 99s-15.167 38.334 -30.5 53.001c-18.667 18 -53.334 31.333 -104.001 40v21h293v-543c0 -68.667 1.83301 -116.834 5.5 -144.501s10.834 -50.167 21.501 -67.5c12 -18.667 26 -32.167 42 -40.5s39 -13.5 69 -15.5v-20zM533 1168l-224 -146h-48
l257 281h30l257 -281h-48z" />
    <glyph glyph-name="udieresis" unicode="&#xfc;" horiz-adv-x="1048" 
d="M747 -17c-8.66699 40 -13 80.998 -13 122.998c-83.333 -82.667 -182 -124 -296 -124c-83.333 0 -150.333 20.333 -201 61c-49.333 40 -74 96.667 -74 170v348l-1 76c0 45.333 -2.66699 78.333 -8 99s-15.333 38.334 -30 53.001c-19.333 18 -54 31.333 -104 40v21h293
v-507c0 -71.333 2.5 -124.166 7.5 -158.499s14.167 -62.5 27.5 -84.5c14.667 -22.667 35.667 -40.5 63 -53.5s58 -19.5 92 -19.5c37.333 0 72.333 7.33301 105 22s58.334 34.667 77.001 60c19.333 26 32.166 56 38.499 90s9.5 90 9.5 168v196l-1 74
c0 45.333 -2.5 78.333 -7.5 99s-15.167 38.334 -30.5 53.001c-18.667 18 -53.334 31.333 -104.001 40v21h293v-543c0 -68.667 1.83301 -116.834 5.5 -144.501s10.834 -50.167 21.501 -67.5c12 -18.667 26 -32.167 42 -40.5s39 -13.5 69 -15.5v-20zM340 1240
c24.667 0 45.667 -8.66699 63 -26s26 -38.333 26 -63c0 -24 -8.66699 -44.667 -26 -62s-38.333 -26 -63 -26s-45.667 8.5 -63 25.5s-26 37.833 -26 62.5s8.66699 45.667 26 63s38.333 26 63 26zM681 1240c24 0 44.667 -8.66699 62 -26s26 -38 26 -62
c0 -24.667 -8.66699 -45.5 -26 -62.5s-38 -25.5 -62 -25.5c-24.667 0 -45.5 8.5 -62.5 25.5s-25.5 37.833 -25.5 62.5c0 24 8.5 44.667 25.5 62s37.833 26 62.5 26z" />
    <glyph glyph-name="yacute" unicode="&#xfd;" horiz-adv-x="856" 
d="M-3 850l387.001 0.00292969v-21c-27.333 -4 -47 -9.33301 -59 -16c-26 -14.667 -39 -37.334 -39 -68.001c0 -26.667 13.667 -74.334 41 -143.001l168 -429l146 361c36 90 54 153.667 54 191c0 30 -8.33301 53.833 -25 71.5s-41 28.5 -73 32.5v21h286v-21
c-28.667 -8 -49.834 -16.333 -63.501 -25s-26.834 -22.334 -39.501 -41.001c-19.333 -29.333 -50 -95 -92 -197l-290 -704c-34.667 -84 -62.667 -138.667 -84 -164c-36 -42 -81.667 -63 -137 -63c-35.333 0 -63.833 6.83301 -85.5 20.5s-32.5 31.5 -32.5 53.5
c0 17.333 6.33301 31.166 19 41.499s29.334 15.5 50.001 15.5c17.333 0 37.333 -4.66699 60 -14c22 -8.66699 36.167 -14 42.5 -16s13.833 -3 22.5 -3c41.333 0 75 31 101 93l31 76c13.333 32 20 56.667 20 74c0 24.667 -12.667 67.667 -38 129l-208 499l-30 72
c-18 42.667 -32 73 -42 91s-20 31 -30 39c-16.667 12.667 -36.667 20.334 -60 23.001v21zM348.001 1000l183 273h186l-320 -273h-49z" />
    <glyph glyph-name="thorn" unicode="&#xfe;" horiz-adv-x="1068" 
d="M327 84v-183.998l1 -69c0 -45.333 2.5 -78.5 7.5 -99.5s15.167 -38.5 30.5 -52.5c19.333 -18.667 54 -32.334 104 -41.001v-20h-436v20c6.66699 1.33301 12 2.33301 16 3c33.333 6 58 14.667 74 26s28.333 29.333 37 54c10.667 28 16 92 16 192v1167
c0 68.667 -1.83301 116.834 -5.5 144.501s-10.834 50.167 -21.501 67.5c-12 20 -26.5 34 -43.5 42s-41.167 12.667 -72.5 14v20l293 36v-631c43.333 32 87.333 55.333 132 70s94 22 148 22c98.667 0 184 -30.333 256 -91c95.333 -80 143 -194.667 143 -344
c0 -69.333 -13.5 -135.333 -40.5 -198s-64.167 -114 -111.5 -154c-36.667 -30.667 -78.167 -54.334 -124.5 -71.001s-94.5 -25 -144.5 -25c-51.333 0 -95.166 7.16699 -131.499 21.5s-78.5 41.166 -126.5 80.499zM556 845.002c-35.333 0 -68.334 -8.83301 -99.001 -26.5
s-56 -42.167 -76 -73.5c-19.333 -31.333 -33.166 -71 -41.499 -119s-12.5 -112.667 -12.5 -194c0 -102.667 3.83301 -178.167 11.5 -226.5s22.167 -87.5 43.5 -117.5c18 -26 42.333 -46.833 73 -62.5s62.334 -23.5 95.001 -23.5c69.333 0 130.333 34 183 102
c32 41.333 56.5 90 73.5 146s25.5 116 25.5 180c0 56 -8.33301 111.833 -25 167.5s-39.334 103.167 -68.001 142.5c-50.667 70 -111.667 105 -183 105z" />
    <glyph glyph-name="ydieresis" unicode="&#xff;" horiz-adv-x="856" 
d="M-3 850l387.001 0.00292969v-21c-27.333 -4 -47 -9.33301 -59 -16c-26 -14.667 -39 -37.334 -39 -68.001c0 -26.667 13.667 -74.334 41 -143.001l168 -429l146 361c36 90 54 153.667 54 191c0 30 -8.33301 53.833 -25 71.5s-41 28.5 -73 32.5v21h286v-21
c-28.667 -8 -49.834 -16.333 -63.501 -25s-26.834 -22.334 -39.501 -41.001c-19.333 -29.333 -50 -95 -92 -197l-290 -704c-34.667 -84 -62.667 -138.667 -84 -164c-36 -42 -81.667 -63 -137 -63c-35.333 0 -63.833 6.83301 -85.5 20.5s-32.5 31.5 -32.5 53.5
c0 17.333 6.33301 31.166 19 41.499s29.334 15.5 50.001 15.5c17.333 0 37.333 -4.66699 60 -14c22 -8.66699 36.167 -14 42.5 -16s13.833 -3 22.5 -3c41.333 0 75 31 101 93l31 76c13.333 32 20 56.667 20 74c0 24.667 -12.667 67.667 -38 129l-208 499l-30 72
c-18 42.667 -32 73 -42 91s-20 31 -30 39c-16.667 12.667 -36.667 20.334 -60 23.001v21zM285.001 1240c24.667 0 45.667 -8.66699 63 -26s26 -38.333 26 -63c0 -24 -8.66699 -44.667 -26 -62s-38.333 -26 -63 -26s-45.667 8.5 -63 25.5s-26 37.833 -26 62.5
s8.66699 45.667 26 63s38.333 26 63 26zM626.001 1240c24 0 44.667 -8.66699 62 -26s26 -38 26 -62c0 -24.667 -8.66699 -45.5 -26 -62.5s-38 -25.5 -62 -25.5c-24.667 0 -45.5 8.5 -62.5 25.5s-25.5 37.833 -25.5 62.5c0 24 8.5 44.667 25.5 62s37.833 26 62.5 26z" />
    <glyph glyph-name="dotlessi" unicode="&#x131;" horiz-adv-x="496" 
d="M38 831l287 35.999v-578l1 -76c0 -45.333 2.66699 -78.5 8 -99.5s15.666 -38.5 30.999 -52.5c18.667 -18 53 -31.667 103 -41v-20h-441v20c40 5.33301 68.667 12.833 86 22.5s31.333 26.167 42 49.5c7.33301 15.333 12.5 38.5 15.5 69.5s4.5 75.833 4.5 134.5v247
c0 68.667 -1.66699 116.834 -5 144.501s-10.666 50.167 -21.999 67.5c-11.333 18.667 -25 32.167 -41 40.5s-39 13.5 -69 15.5v20z" />
    <glyph glyph-name="OE" unicode="&#x152;" horiz-adv-x="2165" 
d="M2013 1365l15.9961 -330.001l-23 -3c-12.667 66 -28.167 116.333 -46.5 151s-45.5 64.334 -81.5 89.001c-30.667 22 -68.334 37.833 -113.001 47.5s-101 14.5 -169 14.5h-230v-600h61c60.667 0 106.334 4 137.001 12s55.667 22.333 75 43
c18.667 19.333 32.5 42.166 41.5 68.499s16.5 64.833 22.5 115.5h23l-8 -536h-23c-11.333 100.667 -36.666 170.167 -75.999 208.5s-104.666 57.5 -195.999 57.5h-57v-229c0 -35.333 1.33301 -75.666 4 -120.999c2 -47.333 5.33301 -84.5 10 -111.5
s11.334 -50.833 20.001 -71.5c20 -46.667 53.833 -81.5 101.5 -104.5s110.167 -34.5 187.5 -34.5c79.333 0 146 10.167 200 30.5s98 51.833 132 94.5c24 29.333 43.5 62.5 58.5 99.5s28.833 85.167 41.5 144.5l24 -4l-14 -396h-926l-137 -3l-113 -2l-125 -3
c-82 0 -165.667 15.167 -251 45.5s-160.666 71.833 -225.999 124.5c-80.667 64.667 -143.667 142.167 -189 232.5s-68 183.5 -68 279.5c0 94.667 22 186.5 66 275.5s106.333 168.167 187 237.5c144 124.667 309 187 495 187l143 -4l236 -5h790zM1148 396.999v641.999l-2 75
c0 57.333 -5.66699 100 -17 128s-32 49.333 -62 64c-48.667 23.333 -119 35 -211 35c-69.333 0 -130.5 -10.833 -183.5 -32.5s-100.833 -55.167 -143.5 -100.5c-58.667 -61.333 -105.334 -140.833 -140.001 -238.5s-52 -197.5 -52 -299.5c0 -106 19 -204.5 57 -295.5
s92.333 -169.167 163 -234.5c44.667 -40.667 90.334 -70.167 137.001 -88.5s99.334 -27.5 158.001 -27.5c60.667 0 110.167 5.33301 148.5 16s67.5 27.334 87.5 50.001c23.333 26 39.166 60.5 47.499 103.5s12.5 110.833 12.5 203.5z" />
    <glyph glyph-name="oe" unicode="&#x153;" horiz-adv-x="1683" 
d="M897 683c42.667 56.667 95.1699 101.169 157.503 133.502s127.5 48.5 195.5 48.5c53.333 0 102.666 -9.66699 147.999 -29s83.333 -46.666 114 -81.999c48.667 -56 73 -126 73 -210h-587c-2 -32.667 -3 -56.334 -3 -71.001c0 -58 8.5 -114.667 25.5 -170
s39.833 -101.333 68.5 -138c30 -37.333 67.333 -66.666 112 -87.999s91 -32 139 -32c36 0 70.167 6 102.5 18s59.5 28.667 81.5 50c24 23.333 44.333 60.666 61 111.999l20 -7c-8.66699 -33.333 -18.834 -60.833 -30.501 -82.5s-27.5 -42.5 -47.5 -62.5
c-61.333 -60.667 -152 -91 -272 -91c-97.333 0 -179.333 20.667 -246 62c-38.667 24 -76.667 60.667 -114 110c-22 -28.667 -41.167 -50.334 -57.5 -65.001s-37.166 -29.334 -62.499 -44.001c-74 -42 -156.333 -63 -247 -63c-142 0 -259.667 51.333 -353 154
c-76 83.333 -114 178.333 -114 285c0 108 40 204.667 120 290c96.667 102.667 212.667 154 348 154c75.333 0 144.666 -15.667 207.999 -47s116.666 -76.333 159.999 -135zM243.003 433.002c0 -116 25.999 -214.001 77.999 -294.001
c58.667 -89.333 130.334 -134 215.001 -134c36 0 71 10 105 30s63.333 47.667 88 83c25.333 36.667 46 83.167 62 139.5s24 110.833 24 163.5c0 54.667 -8.5 109.834 -25.5 165.501s-39.833 103.5 -68.5 143.5c-54 75.333 -120.667 113 -200 113
c-75.333 0 -140.333 -39.667 -195 -119c-55.333 -79.333 -83 -176.333 -83 -291zM1437 583.001c-4.66699 66.667 -17 118 -37 154c-18.667 32.667 -43 58.5 -73 77.5s-62 28.5 -96 28.5c-57.333 0 -107.5 -24.667 -150.5 -74s-68.5 -111.333 -76.5 -186h433z" />
    <glyph glyph-name="Scaron" unicode="&#x160;" horiz-adv-x="1059" 
d="M98 3l2.99805 413.001h23c28 -105.333 61.333 -188.333 100 -249c72.667 -112 164 -168 274 -168c76.667 0 140 25.667 190 77s75 116.333 75 195c0 34 -5.5 68.667 -16.5 104s-25.833 65.666 -44.5 90.999c-19.333 26 -46.5 51 -81.5 75s-88.5 54.333 -160.5 91
c-63.333 32 -111.833 59 -145.5 81s-60.834 44.333 -81.501 67c-57.333 62.667 -86 139 -86 229c0 55.333 11.167 108.666 33.5 159.999s53.5 95.333 93.5 132c70.667 65.333 154.334 98 251.001 98c31.333 0 60.333 -3.16699 87 -9.5s62.334 -18.833 107.001 -37.5
c33.333 -13.333 56 -21.833 68 -25.5s22.667 -5.5 32 -5.5c23.333 0 39 17 47 51h23l7 -397h-23c-18 63.333 -33.5 111.833 -46.5 145.5s-28.5 64.834 -46.5 93.501c-32.667 52 -68.667 90.5 -108 115.5s-84.666 37.5 -135.999 37.5c-74.667 0 -133.667 -25.333 -177 -76
c-18 -20.667 -32.167 -45 -42.5 -73s-15.5 -56 -15.5 -84c0 -111.333 71.667 -201 215 -269l141 -68c108.667 -51.333 187 -108 235 -170c54.667 -69.333 82 -150 82 -242c0 -61.333 -12.333 -120 -37 -176c-34.667 -78 -86.667 -138.167 -156 -180.5s-151 -63.5 -245 -63.5
c-86 0 -168.667 17 -248 51c-41.333 18 -66 28.333 -74 31s-17 4 -27 4c-32 0 -54 -16 -66 -48h-23zM528.998 1622l238 146h54l-270 -254h-44l-270 254h54z" />
    <glyph glyph-name="scaron" unicode="&#x161;" horiz-adv-x="724" 
d="M96 0l-0.00292969 283.001h16c18.667 -69.333 42 -124.666 70 -165.999c51.333 -75.333 111.333 -113 180 -113c42 0 78.333 12.667 109 38c33.333 28 50 67.667 50 119c0 42 -12 78.667 -36 110c-13.333 16.667 -30.166 32 -50.499 46s-54.5 33.667 -102.5 59
c-84 44.667 -140 82 -168 112c-40 42.667 -60 92 -60 148c0 60 20 111.667 60 155c46 49.333 107 74 183 74c34 0 65.667 -6 95 -18l34 -15c10.667 -4 20 -6 28 -6c12.667 0 24.667 10 36 30h20l11 -227h-21c-7.33301 32 -15.166 57.667 -23.499 77s-20.166 38 -35.499 56
c-20.667 25.333 -44.667 45.166 -72 59.499s-54.333 21.5 -81 21.5c-37.333 0 -69.166 -13.5 -95.499 -40.5s-39.5 -60.167 -39.5 -99.5c0 -32.667 11.833 -62.167 35.5 -88.5s60.167 -50.5 109.5 -72.5l106 -48c63.333 -28.667 110.666 -64.334 141.999 -107.001
s47 -93 47 -151c0 -70 -22.667 -128 -68 -174c-52 -53.333 -118.667 -80 -200 -80c-44 0 -88.667 8.66699 -134 26c-29.333 11.333 -47 17.833 -53 19.5s-13.667 2.5 -23 2.5c-23.333 0 -41 -10 -53 -30h-16zM370.997 1131l224 145h48l-257 -281h-30l-257 281h48z" />
    <glyph glyph-name="Ydieresis" unicode="&#x178;" horiz-adv-x="1345" 
d="M375 0l-0.000976562 22.9971c38 2 69 7.33301 93 16s45.333 22.667 64 42c20.667 21.333 34.667 48.333 42 81s11 83.334 11 152.001l1 195c0 28 -5.66699 59 -17 93c-12.667 39.333 -38.667 88.666 -78 147.999l-259 389l-46 70c-34 50.667 -67.333 85.334 -100 104.001
c-16.667 10 -33.334 17 -50.001 21s-40 6.66699 -70 8v23h652v-23c-55.333 -3.33301 -90.666 -8.33301 -105.999 -15c-37.333 -16 -56 -45 -56 -87c0 -15.333 4.16699 -32.666 12.5 -51.999s21.833 -43.666 40.5 -72.999l271 -424l232 362l26 41
c24.667 38.667 37 76.667 37 114c0 42.667 -13.667 75.667 -41 99s-65.666 35 -114.999 35v23h460v-23c-34.667 -4 -61.334 -9.83301 -80.001 -17.5s-37.667 -20.167 -57 -37.5c-45.333 -42.667 -95.666 -106.334 -150.999 -191.001l-228 -348
c-27.333 -41.333 -44 -71.666 -50 -90.999s-9 -52 -9 -98v-245c0 -71.333 3.5 -122.5 10.5 -153.5s21.167 -57.5 42.5 -79.5c36.667 -38.667 89 -58 157 -58v-23h-639zM538.999 1748c27.333 0 50.5 -9.5 69.5 -28.5s28.5 -42.167 28.5 -69.5
c0 -26.667 -9.5 -49.667 -28.5 -69s-42.167 -29 -69.5 -29c-26.667 0 -49.5 9.66699 -68.5 29s-28.5 42.333 -28.5 69c0 27.333 9.5 50.5 28.5 69.5s41.833 28.5 68.5 28.5zM913.999 1747c26.667 0 49.5 -9.33301 68.5 -28s28.5 -41.334 28.5 -68.001
s-9.5 -49.5 -28.5 -68.5s-41.833 -28.5 -68.5 -28.5s-49.334 9.5 -68.001 28.5s-28 41.833 -28 68.5s9.33301 49.334 28 68.001s41.334 28 68.001 28z" />
    <glyph glyph-name="florin" unicode="&#x192;" 
d="M493 920l-159.002 -0.000976562l7 38h159l26 121c16 78 33.833 141 53.5 189s43.167 87.333 70.5 118c37.333 42 84.833 74.167 142.5 96.5s121.834 33.5 192.501 33.5c51.333 0 91 -8.16699 119 -24.5s42 -39.166 42 -68.499c0 -20.667 -7.83301 -38.5 -23.5 -53.5
s-34.5 -22.5 -56.5 -22.5c-19.333 0 -35 4.66699 -47 14s-22.667 25.333 -32 48c-13.333 32 -25.666 52.667 -36.999 62s-30.333 14 -57 14c-44 0 -83.667 -19.667 -119 -59c-34 -38.667 -59.667 -106.334 -77 -203.001l-47 -265h198l-7 -38h-198l-105 -593
c-19.333 -106 -46 -212.333 -80 -319c-14 -44.667 -27 -79.167 -39 -103.5s-27 -46.833 -45 -67.5c-33.333 -38.667 -76.166 -69 -128.499 -91s-107.833 -33 -166.5 -33c-86 0 -149.667 21 -191 63c-16.667 16 -25 33.667 -25 53c0 20 8.16699 37.667 24.5 53
s35.5 23 57.5 23c17.333 0 31.666 -5 42.999 -15s21.666 -26.333 30.999 -49c12.667 -32 21.334 -52 26.001 -60c18.667 -32 45.667 -48 81 -48c22 0 44.833 5.33301 68.5 16s43.5 24.667 59.5 42c34 34.667 59.667 102.334 77 203.001z" />
    <glyph glyph-name="circumflex" unicode="&#x2c6;" horiz-adv-x="1024" 
d="M521 1168l-224 -146h-48l257 281h30l257 -281h-48z" />
    <glyph glyph-name="caron" unicode="&#x2c7;" horiz-adv-x="1024" 
d="M521 1131l224 145h48l-257 -281h-30l-257 281h48z" />
    <glyph glyph-name="macron" unicode="&#x2c9;" horiz-adv-x="1024" 
d="M255 1199h514v-94h-514v94z" />
    <glyph glyph-name="breve" unicode="&#x2d8;" horiz-adv-x="1024" 
d="M282 1281l19.999 -3c32 -82.667 102 -124 210 -124c109.333 0 179.333 41.333 210 124l20 3c-3.33301 -43.333 -14.333 -83.333 -33 -120c-42.667 -84 -108.667 -126 -198 -126c-86.667 0 -151.667 42 -195 126c-19.333 36.667 -30.666 76.667 -33.999 120z" />
    <glyph glyph-name="dotaccent" unicode="&#x2d9;" horiz-adv-x="1024" 
d="M512 1240c24 0 44.667 -8.66699 62 -26s26 -38 26 -62c0 -24.667 -8.66699 -45.5 -26 -62.5s-38 -25.5 -62 -25.5s-44.667 8.5 -62 25.5s-26 37.833 -26 62.5c0 24 8.66699 44.667 26 62s38 26 62 26z" />
    <glyph glyph-name="ring" unicode="&#x2da;" horiz-adv-x="1024" 
d="M512 1313c45.333 0 84 -16 116 -48s48 -70.333 48 -115c0 -45.333 -16 -84 -48 -116s-70.667 -48 -116 -48s-84 16 -116 48s-48 70.667 -48 116c0 44.667 16 83 48 115s70.667 48 116 48zM512 1262c-31.333 0 -57.833 -11 -79.5 -33s-32.5 -48.333 -32.5 -79
c0 -31.333 10.833 -57.833 32.5 -79.5s48.167 -32.5 79.5 -32.5c30.667 0 57 10.833 79 32.5s33 48.167 33 79.5c0 30.667 -11 57 -33 79s-48.333 33 -79 33z" />
    <glyph glyph-name="ogonek" unicode="&#x2db;" horiz-adv-x="1024" 
d="M699 0l-16.001 -17c-22 -24 -37.5 -44.5 -46.5 -61.5s-13.5 -34.167 -13.5 -51.5c0 -24 8.33301 -43.167 25 -57.5s39 -21.5 67 -21.5c28.667 0 61.334 10.333 98.001 31l13 -19c-31.333 -22 -60.833 -37.833 -88.5 -47.5s-57.5 -14.5 -89.5 -14.5
c-38.667 0 -70.667 9.5 -96 28.5s-38 43.167 -38 72.5c0 27.333 11 54.5 33 81.5s54 52.5 96 76.5h56z" />
    <glyph glyph-name="tilde" unicode="&#x2dc;" horiz-adv-x="1024" 
d="M717 1223l20.002 0.000976562c2 -14.667 3 -25.334 3 -32.001c0 -40.667 -11 -74.167 -33 -100.5s-50 -39.5 -84 -39.5c-40 0 -82.333 12.667 -127 38l-51 29c-24.667 14 -47.667 21 -69 21c-40.667 0 -63.334 -22 -68.001 -66h-20c-0.666992 9.33301 -1 16.333 -1 21
c0 46 10.167 82.333 30.5 109s47.833 40 82.5 40c30 0 65.333 -10.667 106 -32l50 -26c37.333 -20 68.666 -30 93.999 -30c20 0 34.667 4.66699 44 14s17 27.333 23 54z" />
    <glyph glyph-name="hungarumlaut" unicode="&#x2dd;" horiz-adv-x="1024" 
d="M266 1000l183 273h186l-320 -273h-49zM580 1000l183 273h186l-320 -273h-49z" />
    <glyph glyph-name="pi" unicode="&#x3c0;" horiz-adv-x="1024" 
d="M1136 956l0.00195312 -109h-308l-16 -40c-35.333 -87.333 -53 -158.333 -53 -213v-329c0 -60 2.33301 -101.333 7 -124s14 -39 28 -49c12.667 -8.66699 30 -13 52 -13c11.333 0 34 5 68 15c6 1.33301 15.333 3.66602 28 6.99902v-35l-222 -86c-11.333 -4 -19 -6 -23 -6
c-8 0 -18.333 5.83301 -31 17.5s-24 25.5 -34 41.5c-12.667 20.667 -21 40.5 -25 59.5s-6 45.833 -6 80.5v320c0 32.667 3.66699 65.5 11 98.5s17.333 60.833 30 83.5l43 75l35 66c2.66699 5.33301 9.66699 15.666 21 30.999l-352 -1l-4 -245
c0 -42.667 -4.83301 -117.5 -14.5 -224.5s-19.167 -190.833 -28.5 -251.5c-8.66699 -57.333 -20 -98.666 -34 -123.999s-32.333 -38 -55 -38c-20 0 -37.5 8.66699 -52.5 26s-22.5 37 -22.5 59c0 26 7.33301 57.667 22 95c19.333 48.667 35.166 98.334 47.499 149.001
s23.166 108.334 32.499 173.001c5.33301 43.333 11.5 109.666 18.5 198.999s10.5 150.333 10.5 183c-71.333 0 -127 -9.66699 -167 -29c-28 -13.333 -53.667 -30.833 -77 -52.5s-51 -53.5 -83 -95.5l-25 28l141 185c20 26.667 44.333 45.667 73 57s67 17 115 17z" />
    <glyph glyph-name="endash" unicode="&#x2013;" 
d="M139 509h728v-150h-728v150z" />
    <glyph glyph-name="emdash" unicode="&#x2014;" horiz-adv-x="1302" 
d="M0 509h1302v-150h-1302v150z" />
    <glyph glyph-name="quoteleft" unicode="&#x2018;" horiz-adv-x="488" 
d="M378 1399l10 -21.001c-44 -17.333 -78.5 -36 -103.5 -56s-46.833 -46 -65.5 -78c-27.333 -47.333 -43.333 -93.666 -48 -138.999c18.667 6 34.667 9 48 9c36.667 0 66.5 -11 89.5 -33s34.5 -50 34.5 -84s-11.5 -62.833 -34.5 -86.5s-50.833 -35.5 -83.5 -35.5
c-40 0 -72.333 16 -97 48s-37 74 -37 126s12.5 103.667 37.5 155s57.833 93.333 98.5 126c44 34.667 94.333 57.667 151 69z" />
    <glyph glyph-name="quoteright" unicode="&#x2019;" horiz-adv-x="488" 
d="M100 875l-9 20.999c43.333 18 77.666 37 102.999 57s47 45.667 65 77c28 48 44 94.667 48 140c-18 -6 -33.667 -9 -47 -9c-36.667 0 -66.667 10.833 -90 32.5s-35 49.834 -35 84.501c0 33.333 11.667 62 35 86s51.333 36 84 36c40 0 72.333 -16 97 -48
s37 -74.333 37 -127c0 -52 -12.5 -103.5 -37.5 -154.5s-58.167 -92.833 -99.5 -125.5c-43.333 -34.667 -93.666 -58 -150.999 -70z" />
    <glyph glyph-name="quotesinglbase" unicode="&#x201a;" horiz-adv-x="488" 
d="M100 -298l-9 20.999c43.333 18 77.666 37 102.999 57s47 45.667 65 77c28 48 44 94.667 48 140c-18 -6 -33.667 -9 -47 -9c-36.667 0 -66.667 10.833 -90 32.5s-35 49.834 -35 84.501c0 33.333 11.667 62 35 86s51.333 36 84 36c40 0 72.333 -16 97 -48
s37 -74.333 37 -127c0 -52 -12.5 -103.5 -37.5 -154.5s-58.167 -92.833 -99.5 -125.5c-43.333 -34.667 -93.666 -58 -150.999 -70z" />
    <glyph glyph-name="quotedblleft" unicode="&#x201c;" horiz-adv-x="829" 
d="M378 1399l10 -21.001c-44 -17.333 -78.5 -36 -103.5 -56s-46.833 -46 -65.5 -78c-27.333 -47.333 -43.333 -93.666 -48 -138.999c18.667 6 34.667 9 48 9c36.667 0 66.5 -11 89.5 -33s34.5 -50 34.5 -84s-11.5 -62.833 -34.5 -86.5s-50.833 -35.5 -83.5 -35.5
c-40 0 -72.333 16 -97 48s-37 74 -37 126s12.5 103.667 37.5 155s57.833 93.333 98.5 126c44 34.667 94.333 57.667 151 69zM720 1399l9.00098 -21.001c-44 -17.333 -78.5 -36 -103.5 -56s-46.5 -46 -64.5 -78c-28 -47.333 -44.333 -93.666 -49 -138.999
c18.667 6 34.667 9 48 9c36.667 0 66.5 -11 89.5 -33s34.5 -50 34.5 -84s-11.5 -62.833 -34.5 -86.5s-50.833 -35.5 -83.5 -35.5c-40 0 -72.333 16 -97 48s-37 74 -37 126s12.5 103.667 37.5 155s58.167 93.333 99.5 126c43.333 34.667 93.666 57.667 150.999 69z" />
    <glyph glyph-name="quotedblright" unicode="&#x201d;" horiz-adv-x="829" 
d="M441 875l-9.00098 20.999c44 18 78.5 37 103.5 57s46.833 45.667 65.5 77c27.333 48 43.333 94.667 48 140c-18.667 -6 -34.667 -9 -48 -9c-36.667 0 -66.5 10.833 -89.5 32.5s-34.5 49.834 -34.5 84.501c0 33.333 11.5 62 34.5 86s50.833 36 83.5 36
c40 0 72.333 -16 97 -48s37 -74.333 37 -127c0 -52 -12.5 -103.5 -37.5 -154.5s-58.167 -92.833 -99.5 -125.5c-43.333 -34.667 -93.666 -58 -150.999 -70zM99.999 874.999l-9 20.999c43.333 18 77.666 37 102.999 57s47 45.667 65 77c28 48 44 94.667 48 140
c-18 -6 -33.667 -9 -47 -9c-36.667 0 -66.667 10.833 -90 32.5s-35 49.834 -35 84.501c0 33.333 11.667 62 35 86s51.333 36 84 36c40 0 72.333 -16 97 -48s37 -74.333 37 -127c0 -52 -12.5 -103.5 -37.5 -154.5s-58.167 -92.833 -99.5 -125.5
c-43.333 -34.667 -93.666 -58 -150.999 -70z" />
    <glyph glyph-name="quotedblbase" unicode="&#x201e;" horiz-adv-x="829" 
d="M441 -298l-9.00098 20.999c44 18 78.5 37 103.5 57s46.833 45.667 65.5 77c27.333 48 43.333 94.667 48 140c-18.667 -6 -34.667 -9 -48 -9c-36.667 0 -66.5 10.833 -89.5 32.5s-34.5 49.834 -34.5 84.501c0 33.333 11.5 62 34.5 86s50.833 36 83.5 36
c40 0 72.333 -16 97 -48s37 -74.333 37 -127c0 -52 -12.5 -103.5 -37.5 -154.5s-58.167 -92.833 -99.5 -125.5c-43.333 -34.667 -93.666 -58 -150.999 -70zM99.999 -298.001l-9 20.999c43.333 18 77.666 37 102.999 57s47 45.667 65 77c28 48 44 94.667 48 140
c-18 -6 -33.667 -9 -47 -9c-36.667 0 -66.667 10.833 -90 32.5s-35 49.834 -35 84.501c0 33.333 11.667 62 35 86s51.333 36 84 36c40 0 72.333 -16 97 -48s37 -74.333 37 -127c0 -52 -12.5 -103.5 -37.5 -154.5s-58.167 -92.833 -99.5 -125.5
c-43.333 -34.667 -93.666 -58 -150.999 -70z" />
    <glyph glyph-name="dagger" unicode="&#x2020;" 
d="M527 -264l-46 0.000976562l-1 181c0 122.667 -6.66699 228.167 -20 316.5s-38.666 191.833 -75.999 310.5c34.667 52 59.167 99.667 73.5 143s23.833 98 28.5 164c-39.333 -2.66699 -69.666 -6.66699 -90.999 -12s-61 -18.333 -119 -39c-42.667 -14.667 -75 -22 -97 -22
c-26 0 -47.167 8.83301 -63.5 26.5s-24.5 40.5 -24.5 68.5c0 27.333 8.66699 50.5 26 69.5s38 28.5 62 28.5c17.333 0 33.333 -2.66699 48 -8l64 -24c14 -5.33301 44.333 -15 91 -29c31.333 -8.66699 66 -15 104 -19c-3.33301 33.333 -6.33301 58 -9 74s-8 38 -16 66
c-12 44 -23.667 84 -35 120c-14 43.333 -22.5 71.333 -25.5 84s-4.5 25.334 -4.5 38.001c0 32 10.167 58.333 30.5 79s46.166 31 77.499 31c30.667 0 56.167 -10.333 76.5 -31s30.5 -46.334 30.5 -77.001l-30 -124c-11.333 -35.333 -23 -75.333 -35 -120
c-8 -28.667 -13.333 -50.834 -16 -66.501s-5.66699 -40.167 -9 -73.5c38 4 72.667 10.333 104 19c47.333 14 77.666 23.667 90.999 29l64 24c14.667 5.33301 29.667 8 45 8c26 0 47.667 -9.33301 65 -28s26 -42 26 -70s-8 -50.833 -24 -68.5s-36.667 -26.5 -62 -26.5
c-23.333 0 -56.333 7.33301 -99 22c-58 20.667 -97.5 33.667 -118.5 39s-51.5 9.33301 -91.5 12c2.66699 -42 6.83398 -76.333 12.501 -103s15.5 -57.334 29.5 -92.001c15.333 -37.333 35.333 -74.666 60 -111.999c-36.667 -118.667 -61.834 -222.167 -75.501 -310.5
s-20.5 -193.833 -20.5 -316.5v-181z" />
    <glyph glyph-name="daggerdbl" unicode="&#x2021;" 
d="M384 551c34 66 57.833 119.166 71.5 159.499s23.834 87.166 30.501 140.499c-39.333 -2.66699 -69.666 -6.66699 -90.999 -12s-61 -18.333 -119 -39c-42.667 -14.667 -75 -22 -97 -22c-26 0 -47.167 8.83301 -63.5 26.5s-24.5 40.5 -24.5 68.5
c0 27.333 8.66699 50.5 26 69.5s38 28.5 62 28.5c17.333 0 33.333 -2.66699 48 -8l64 -24c14 -5.33301 44.333 -15 91 -29c31.333 -8.66699 66 -15 104 -19c-3.33301 33.333 -6.33301 58 -9 74s-8 38 -16 66c-12 44 -23.667 84 -35 120c-14 43.333 -22.5 71.333 -25.5 84
s-4.5 25.334 -4.5 38.001c0 32 10.167 58.333 30.5 79s46.166 31 77.499 31c30.667 0 56.167 -10.333 76.5 -31s30.5 -46.334 30.5 -77.001l-30 -124c-11.333 -35.333 -23 -75.333 -35 -120c-8 -28.667 -13.333 -50.834 -16 -66.501s-5.66699 -40.167 -9 -73.5
c38 4 72.667 10.333 104 19c47.333 14 77.666 23.667 90.999 29l64 24c14.667 5.33301 29.667 8 45 8c26 0 47.667 -9.33301 65 -28s26 -42 26 -70s-8 -50.833 -24 -68.5s-36.667 -26.5 -62 -26.5c-23.333 0 -56.333 7.33301 -99 22c-58 20.667 -97.5 33.667 -118.5 39
s-51.5 9.33301 -91.5 12c7.33301 -54 16.666 -97.667 27.999 -131s36 -89.666 74 -168.999c-38 -79.333 -62.667 -135.833 -74 -169.5s-20.666 -77.167 -27.999 -130.5c40 2.66699 70.5 6.5 91.5 11.5s60.5 18.167 118.5 39.5c42.667 14.667 75 22 97 22
c26.667 0 48 -8.83301 64 -26.5s24 -40.5 24 -68.5c0 -27.333 -8.5 -50.666 -25.5 -69.999s-37.833 -29 -62.5 -29c-17.333 0 -33.333 3 -48 9l-64 24c-13.333 5.33301 -43.666 14.666 -90.999 27.999c-31.333 9.33301 -66 16 -104 20c3.33301 -33.333 6.33301 -58 9 -74
s8 -38 16 -66c12 -44 23.667 -84 35 -120c14 -43.333 22.5 -71.333 25.5 -84s4.5 -25.667 4.5 -39c0 -31.333 -10.167 -57.333 -30.5 -78s-45.833 -31 -76.5 -31s-56.334 10.333 -77.001 31s-31 46.334 -31 77.001l30 124c11.333 35.333 23 75.333 35 120
c8 28 13.333 50 16 66s5.66699 40.667 9 74c-38 -4 -72.667 -10.667 -104 -20c-46.667 -13.333 -77 -22.666 -91 -27.999l-64 -24c-14.667 -6 -29.667 -9 -45 -9c-26 0 -47.667 9.5 -65 28.5s-26 42.5 -26 70.5c0 27.333 8 50 24 68s36.667 27 62 27
c23.333 0 56.333 -7.33301 99 -22c58.667 -21.333 98.5 -34.5 119.5 -39.5s51.167 -8.83301 90.5 -11.5c-6.66699 53.333 -15.667 96.833 -27 130.5s-36.333 90.167 -75 169.5z" />
    <glyph glyph-name="bullet" unicode="&#x2022;" horiz-adv-x="1365" 
d="M683 982c78 0 144.332 -27.8311 198.999 -83.498s82 -123.167 82 -202.5c0 -78.667 -27.5 -146 -82.5 -202s-121.167 -84 -198.5 -84s-143.666 28 -198.999 84s-83 123.667 -83 203c0 41.333 8.66699 81.166 26 119.499s42 71.166 74 98.499c52 44.667 112.667 67 182 67
z" />
    <glyph glyph-name="ellipsis" unicode="&#x2026;" horiz-adv-x="1501" 
d="M250 226c33.333 0 61.833 -11.833 85.5 -35.5s35.5 -52.5 35.5 -86.5c0 -33.333 -11.833 -61.833 -35.5 -85.5s-52.167 -35.5 -85.5 -35.5s-61.833 11.833 -85.5 35.5s-35.5 52.167 -35.5 85.5c0 34 11.833 62.833 35.5 86.5s52.167 35.5 85.5 35.5zM750 226
c34 0 62.667 -11.833 86 -35.5s35 -52.5 35 -86.5c0 -33.333 -11.667 -61.833 -35 -85.5s-52 -35.5 -86 -35.5c-33.333 0 -61.833 11.833 -85.5 35.5s-35.5 52.167 -35.5 85.5c0 34 11.833 62.833 35.5 86.5s52.167 35.5 85.5 35.5zM1251 226
c33.333 0 61.833 -11.833 85.5 -35.5s35.5 -52.5 35.5 -86.5c0 -33.333 -11.833 -61.833 -35.5 -85.5s-52.167 -35.5 -85.5 -35.5c-34 0 -62.667 11.833 -86 35.5s-35 52.167 -35 85.5c0 34 11.833 62.833 35.5 86.5s52.167 35.5 85.5 35.5z" />
    <glyph glyph-name="perthousand" unicode="&#x2030;" horiz-adv-x="2293" 
d="M1565 313c0 86 30.333 161.001 91 225.001c72.667 76.667 160.667 115 264 115c100 0 185.667 -38.667 257 -116c59.333 -64 89 -136 89 -216c0 -108 -43.667 -195.667 -131 -263c-66 -50.667 -140.667 -76 -224 -76c-46 0 -90.5 8.66699 -133.5 26
s-81.167 41.666 -114.5 72.999c-65.333 62 -98 139.333 -98 232zM1708 315.001c0 -47.333 7.33105 -93 21.998 -137s34.334 -80 59.001 -108c38.667 -44 84.667 -66 138 -66c46 0 86.333 19.333 121 58c54.667 61.333 82 145.333 82 252c0 111.333 -27.333 196.333 -82 255
c-38 41.333 -82.333 62 -133 62c-49.333 0 -92.666 -23.333 -129.999 -70c-24 -28.667 -42.833 -65 -56.5 -109s-20.5 -89.667 -20.5 -137zM226.998 -190.999l-36 28.9971l924 1259l-35 -19c-69.333 -36 -126.666 -60.833 -171.999 -74.5s-94 -20.5 -146 -20.5
c-27.333 0 -54.666 3 -81.999 9c22 -36 37.167 -66.667 45.5 -92s12.5 -53.666 12.5 -84.999c0 -76 -27.333 -145.667 -82 -209c-34 -40.667 -74.833 -72 -122.5 -94s-97.5 -33 -149.5 -33c-49.333 0 -96.833 9.83301 -142.5 29.5s-86.5 47.5 -122.5 83.5
c-61.333 62.667 -92 134.667 -92 216c0 40 8 79.667 24 119s38.667 75 68 107c33.333 36.667 73.166 65.334 119.499 86.001s94.166 31 143.499 31c33.333 0 64.833 -4.5 94.5 -13.5s62.5 -23.833 98.5 -44.5c45.333 -27.333 78.833 -44.666 100.5 -51.999
s48.5 -11 80.5 -11c80 0 170 25.333 270 76c65.333 33.333 135.333 82.333 210 147h60v-13zM169.998 812.998c0 -47.333 7.16797 -93 21.501 -137s33.833 -80 58.5 -108c39.333 -44 85.666 -66 138.999 -66c46 0 86.333 19.333 121 58c54 61.333 81 145.333 81 252
c0 111.333 -27 196.333 -81 255c-38 41.333 -82.667 62 -134 62c-48.667 0 -92 -23.333 -130 -70c-23.333 -28.667 -41.833 -65 -55.5 -109s-20.5 -89.667 -20.5 -137zM785.999 312.998c0 86 30.665 161.001 91.998 225.001c72.667 76.667 160.334 115 263.001 115
c100 0 185.667 -38.667 257 -116c59.333 -64 89 -136 89 -216c0 -108 -43.667 -195.667 -131 -263c-65.333 -50.667 -139.666 -76 -222.999 -76c-46 0 -90.5 8.66699 -133.5 26s-81.167 41.666 -114.5 72.999c-66 62 -99 139.333 -99 232zM929.997 314.999
c0 -47.333 7.16797 -93 21.501 -137s33.833 -80 58.5 -108c39.333 -44 85.666 -66 138.999 -66c46 0 86.333 19.333 121 58c54.667 61.333 82 145.333 82 252c0 111.333 -27.333 196.333 -82 255c-38 41.333 -82.333 62 -133 62c-49.333 0 -93 -23.333 -131 -70
c-23.333 -28.667 -41.833 -65 -55.5 -109s-20.5 -89.667 -20.5 -137z" />
    <glyph glyph-name="guilsinglleft" unicode="&#x2039;" horiz-adv-x="485" 
d="M268 436l123.001 -256.001c6 -13.333 9 -22.666 9 -27.999l-15 -13c-7.33301 0 -17 6 -29 18l-253 250c-17.333 17.333 -26 28.333 -26 33c0 5.33301 8 15 24 29l262 235l12 11c4.66699 4 9.66699 6 15 6c3.33301 0 6.66602 -1.66699 9.99902 -5s5 -7 5 -11
c0 -7.33301 -3 -16.333 -9 -27z" />
    <glyph glyph-name="guilsinglright" unicode="&#x203a;" horiz-adv-x="485" 
d="M216 423l-121.999 257.001c-6.66699 13.333 -10 22.666 -10 27.999l15 13c7.33301 0 17 -6 29 -18l253 -250c17.333 -17.333 26 -28.333 26 -33c0 -5.33301 -7.66699 -15 -23 -29l-263 -235l-12 -11c-4.66699 -4 -9.33398 -6 -14.001 -6c-4 0 -7.5 1.66699 -10.5 5
s-4.5 7 -4.5 11c0 7.33301 2.66699 16.333 8 27z" />
    <glyph glyph-name="Euro" unicode="&#x20ac;" horiz-adv-x="1008" 
d="M930 401c-58 -279.333 -167.332 -419 -327.999 -419c-122.667 0 -228.834 53.167 -318.501 159.5s-143.167 252.5 -160.5 438.5h-103l21 45h76v57l-1 30c0 8.66699 0.333008 15.667 1 21h-97l21 45h80c18.667 187.333 68.667 334.833 150 442.5
s178.666 161.5 291.999 161.5c53.333 0 113.333 -15.667 180 -47c41.333 -20 73 -30 95 -30c23.333 0 39 17 47 51h22l6 -398h-22c-60.667 268 -170 402 -328 402c-76 0 -138.167 -50.5 -186.5 -151.5s-78.833 -244.5 -91.5 -430.5h311l-21 -45h-292
c-1.33301 -11.333 -2 -28.333 -2 -51c0 -25.333 0.666992 -44.333 2 -57h313l-21 -45h-290c5.33301 -181.333 37.833 -322.333 97.5 -423s132.834 -151 219.501 -151c140.667 0 241.667 132.333 303 397z" />
    <glyph glyph-name="trademark" unicode="&#x2122;" horiz-adv-x="1945" 
d="M367 1338c-100.667 0 -170.664 -8.66504 -209.997 -25.998c-29.333 -12.667 -52.333 -31.834 -69 -57.501s-29.667 -61.834 -39 -108.501l-22 2l11 217h801l11 -217l-23 -2c-9.33301 46.667 -21.833 82 -37.5 106s-38.834 43 -69.501 57
c-20.667 10 -47.167 17.333 -79.5 22s-72.833 7 -121.5 7h-15v-569c0 -38 2.16699 -66 6.5 -84s12.166 -32.667 23.499 -44c21.333 -21.333 52.333 -32 93 -32v-22h-383v22c40.667 0 71.667 10.667 93 32c11.333 11.333 19.166 26 23.499 44s6.5 46 6.5 84v569zM1894 1343
c-27.333 -1.33301 -48.832 -5.33203 -64.499 -11.999s-28.834 -17.334 -39.501 -32.001c-12.667 -18.667 -19 -57 -19 -115v-415c0 -38 2.16699 -66.167 6.5 -84.5s12.5 -32.833 24.5 -43.5c22 -21.333 52.667 -32 92 -32v-22h-384v22c43.333 2 74.333 12.667 93 32
c12 11.333 20 26 24 44s6 46 6 84v480l-293 -662h-18l-292 652v-470c0 -38 2.16699 -66 6.5 -84s12.166 -32.667 23.499 -44c21.333 -21.333 52.333 -32 93 -32v-22h-279v22c40.667 0 71.334 10.667 92.001 32c12 11.333 20.167 26 24.5 44s6.5 46 6.5 84v415
c0 30 -1.5 54 -4.5 72s-7.83301 32 -14.5 42c-10.667 15.333 -23.667 26.333 -39 33s-37 10.667 -65 12v22h261l251 -594l259 594h249v-22z" />
    <glyph glyph-name="Omega" unicode="&#x2126;" horiz-adv-x="1365" 
d="M1411 248l-77.9961 -247.998h-568v94c67.333 33.333 118.5 63.166 153.5 89.499s69.167 59.833 102.5 100.5c50 61.333 88.167 130.333 114.5 207s39.5 156.667 39.5 240c0 76 -11.333 150.667 -34 224s-54.334 138.333 -95.001 195
c-42.667 58.667 -94.834 103.167 -156.501 133.5s-130.5 45.5 -206.5 45.5c-152.667 0 -272.334 -58 -359.001 -174c-42 -56 -74.667 -120.833 -98 -194.5s-35 -148.5 -35 -224.5c0 -82 13 -161.333 39 -238s63.333 -146.334 112 -209.001
c34 -43.333 68.667 -78.333 104 -105s87 -56.667 155 -90v-94h-570l-77 248h39c12.667 -36 26.5 -63.333 41.5 -82s35.167 -33.667 60.5 -45c34 -14.667 86.667 -22 158 -22l222 -6v11c-67.333 26 -119.666 49.833 -156.999 71.5s-74 49.167 -110 82.5
c-68.667 63.333 -121.834 136.666 -159.501 219.999s-56.834 165.333 -57.501 246l-1 30c0 156 59.333 297.333 178 424l7 7c129.333 134.667 299 202 509 202c220.667 0 395.667 -74.333 525 -223c52.667 -60.667 93.167 -127.667 121.5 -201s42.5 -147.666 42.5 -222.999
c0 -91.333 -19.333 -179.333 -58 -264s-93 -158.667 -163 -222c-34.667 -31.333 -70.334 -57.5 -107.001 -78.5s-88 -44.833 -154 -71.5v-11l234 7c70 0 121.333 8.33301 154 25c22 10.667 39.833 25 53.5 43s26.834 44.667 39.501 80h39z" />
    <glyph glyph-name="partialdiff" unicode="&#x2202;" horiz-adv-x="1024" 
d="M298 1372l19.999 34.998c91.333 -37.333 176.333 -86 255 -146c70.667 -54 129.5 -114.167 176.5 -180.5s90.833 -150.833 131.5 -253.5c28 -72 48.167 -135.833 60.5 -191.5s18.5 -112.167 18.5 -169.5c0 -75.333 -11.333 -142.666 -34 -201.999
s-57.334 -113 -104.001 -161c-86 -88 -190.333 -132 -313 -132c-103.333 0 -193.666 31.333 -270.999 94c-56 44.667 -99 100 -129 166s-45 137 -45 213c0 83.333 17.833 160.833 53.5 232.5s84.5 127.834 146.5 168.501c34.667 22.667 73.334 40.5 116.001 53.5
s84.334 19.5 125.001 19.5c61.333 0 118 -13.333 170 -40c18 -9.33301 33.667 -19.833 47 -31.5s29.666 -29.5 48.999 -53.5l20 -23c-23.333 68 -44 121.333 -62 160c-44 94 -104.333 181 -181 261c-27.333 28 -64.333 58.833 -111 92.5s-93 63.167 -139 88.5z
M514.999 869.998c-50.667 0 -98.333 -16.667 -143 -50c-42.667 -31.333 -78.167 -82.833 -106.5 -154.5s-42.5 -145.167 -42.5 -220.5c0 -71.333 13.667 -144.333 41 -219c22.667 -62.667 51.667 -110 87 -142c48 -43.333 100 -65 156 -65c46.667 0 94 17.667 142 53
c46 34 82.667 85.5 110 154.5s41 145.5 41 229.5c0 75.333 -12 145.5 -36 210.5s-56 114.5 -96 148.5c-42.667 36.667 -93.667 55 -153 55z" />
    <glyph glyph-name="Delta" unicode="&#x2206;" horiz-adv-x="1365" 
d="M723 1398l630 -1398h-1340l628 1398h82zM634 1205l-417.999 -932c-20 -44 -30 -77 -30 -99c0 -20 6.33301 -36 19 -48c11.333 -12 36.666 -18 75.999 -18h835z" />
    <glyph glyph-name="product" unicode="&#x220f;" horiz-adv-x="1365" 
d="M28 1365l1309 -0.00195312v-37h-47c-32 0 -56.333 -2.16699 -73 -6.5s-29.667 -11.833 -39 -22.5c-9.33301 -11.333 -15.666 -25.833 -18.999 -43.5s-5 -48.167 -5 -91.5v-1441c0 -42 1.66699 -72.167 5 -90.5s9.66602 -32.833 18.999 -43.5
c17.333 -19.333 53 -29 107 -29h50v-38h-536v38h44c31.333 0 55.5 2.16699 72.5 6.5s30.167 11.833 39.5 22.5s15.666 25 18.999 43s5 48.333 5 91v1441c0 43.333 -1.66699 73.833 -5 91.5s-9.66602 32.167 -18.999 43.5c-9.33301 10.667 -22.333 18.167 -39 22.5
s-41 6.5 -73 6.5h-317c-32 0 -56.333 -2.16699 -73 -6.5s-29.667 -11.833 -39 -22.5c-10 -11.333 -16.5 -25.666 -19.5 -42.999s-4.5 -48 -4.5 -92v-1441c0 -42.667 1.5 -73 4.5 -91s9.5 -32.333 19.5 -43c16.667 -19.333 52.334 -29 107.001 -29h50v-38h-537v38h44
c32 0 56.5 2.16699 73.5 6.5s30.167 11.833 39.5 22.5s15.5 24.834 18.5 42.501s4.5 48.167 4.5 91.5v1441c0 43.333 -1.5 73.833 -4.5 91.5s-9.16699 32.167 -18.5 43.5c-10 10.667 -23.167 18.167 -39.5 22.5s-40.833 6.5 -73.5 6.5h-50v37z" />
    <glyph glyph-name="summation" unicode="&#x2211;" horiz-adv-x="1365" 
d="M115 1365h1058v-328h-38c-12 94 -38 161.333 -78 202c-26 26 -59.333 44.5 -100 55.5s-96 16.5 -166 16.5h-464l420 -790l-488 -899h540c74.667 0 133.334 5.66699 176.001 17s81.334 32 116.001 62c59.333 50.667 102 128 128 232h38l-69 -411h-1073l499 919z" />
    <glyph glyph-name="fraction" unicode="&#x2215;" horiz-adv-x="137" 
d="M386 1365h60l-695 -1365h-60z" />
    <glyph glyph-name="periodcentered" unicode="&#x2219;" horiz-adv-x="339" 
d="M170 873c46.667 0 86.5 -16.667 119.5 -50s49.5 -73.333 49.5 -120s-16.5 -86.5 -49.5 -119.5s-72.833 -49.5 -119.5 -49.5c-47.333 0 -87.5 16.5 -120.5 49.5s-49.5 72.833 -49.5 119.5s16.667 86.667 50 120s73.333 50 120 50z" />
    <glyph glyph-name="radical" unicode="&#x221a;" horiz-adv-x="1365" 
d="M1331 1686v-57h-243l-379 -1629h-171l-176 736h-328v57h468l161 -690l372 1583h296z" />
    <glyph glyph-name="infinity" unicode="&#x221e;" horiz-adv-x="1365" 
d="M642 585c-47.333 -74.667 -86.333 -126.669 -117 -156.002c-56.667 -54.667 -121.667 -82 -195 -82s-138.666 24.333 -195.999 73c-35.333 30.667 -62.666 68.167 -81.999 112.5s-29 91.5 -29 141.5c0 54.667 11 107.167 33 157.5s52.333 91.833 91 124.5
c60 52 128.667 78 206 78c126.667 0 241.667 -83.667 345 -251c11.333 16.667 19.666 29.334 24.999 38.001c36.667 57.333 62.167 94.833 76.5 112.5s32.166 33.834 53.499 48.501c51.333 36 107.666 54 168.999 54c78.667 0 148.334 -27 209.001 -81
c36 -32 63.667 -70.833 83 -116.5s29 -94.5 29 -146.5c0 -56 -11.167 -108.667 -33.5 -158s-53.5 -90.333 -93.5 -123c-30.667 -25.333 -65.167 -45 -103.5 -59s-76.166 -21 -113.499 -21c-66.667 0 -130.834 22 -192.501 66s-116.5 106.667 -164.5 188zM726 740.998
c54.667 -86.667 102.667 -148.333 144 -185c68.667 -62 140 -93 214 -93c58.667 0 107.667 21.5 147 64.5s59 96.167 59 159.5c0 68.667 -24.5 123.167 -73.5 163.5s-115.167 60.5 -198.5 60.5c-59.333 0 -112 -11.667 -158 -35c-27.333 -14 -50.5 -30.5 -69.5 -49.5
s-40.5 -47.5 -64.5 -85.5zM608 633.999c-55.333 86.667 -100.334 146.334 -135.001 179.001c-60.667 58 -128 87 -202 87c-45.333 0 -84.333 -13.333 -117 -40c-24 -20 -43.167 -45.833 -57.5 -77.5s-21.5 -65.167 -21.5 -100.5c0 -64.667 23.333 -116.334 70 -155.001
s109.334 -58 188.001 -58c54 0 101.667 10.667 143 32c25.333 13.333 47.333 29.333 66 48s40.667 47 66 85z" />
    </font>
</defs>
</svg>
